<?xml version="1.0" encoding="UTF-8" standalone="no"?>
<!-- Created with Inkscape (http://www.inkscape.org/) -->

<svg
   version="1.1"
   id="svg1"
   width="256.66183"
   height="104.67269"
   viewBox="0 0 256.66184 104.67269"
   xmlns="http://www.w3.org/2000/svg"
   xmlns:svg="http://www.w3.org/2000/svg">
  <defs
     id="defs1" />
  <g
     id="g1"
     transform="translate(-106.59515,180.15201)">
    <path
       d="m 116.84002,-75.67891 c -0.264,-0.0894 -0.804,-0.45732 -1.2,-0.8176 -0.77066,-0.70114 -0.97127,-2.35606 -0.41223,-3.40064 0.43515,-0.81307 2.0703,-1.41743 3.12602,-1.15538 3.15915,0.78415 3.10363,4.82597 -0.0738,5.37138 -0.528,0.0906 -1.176,0.0916 -1.44,0.002 z m 2.12989,-2.24592 c 0.23496,-0.93615 -0.19439,-1.78716 -0.97956,-1.9416 -1.43874,-0.28298 -2.12759,2.28273 -0.75033,2.79469 0.98018,0.36435 1.48707,0.11438 1.72989,-0.85309 z m 14.51011,2.11779 c -4.0204,-1.16073 -5.16134,-6.61645 -1.94896,-9.31949 2.06922,-1.74113 5.57097,-1.84713 7.2188,-0.21851 0.58359,0.57679 0.59133,0.66101 0.10539,1.14696 -0.48595,0.48595 -0.58825,0.47429 -1.393,-0.15873 -1.06971,-0.84144 -3.02133,-0.90163 -4.23349,-0.13058 -1.11295,0.70795 -1.27622,0.94457 -1.69403,2.45521 -0.49231,1.77997 0.29905,3.78546 1.76897,4.48299 1.45523,0.69055 2.57627,0.64009 4.03857,-0.18177 1.02228,-0.57455 1.3133,-0.6213 1.72752,-0.27754 1.42802,1.18516 -3.02942,2.94066 -5.58977,2.20146 z m 8.20141,-0.3234 c -0.52688,-0.45761 -0.93649,-1.21117 -1.05167,-1.93472 -0.16405,-1.03057 -0.0569,-1.3169 0.82146,-2.19526 0.81818,-0.81819 1.17529,-0.96994 1.87946,-0.79868 0.47814,0.11628 1.33734,0.19964 1.90934,0.18524 l 1.04,-0.0262 v 2.57002 2.57003 h -0.92 c -0.506,0 -1.3465,0.0853 -1.86779,0.18956 -0.71526,0.14305 -1.15952,0.006 -1.8108,-0.56 z m 2.93728,-2.0883 c 0.074,-0.76366 -0.0662,-1.10701 -0.56,-1.37126 -0.83896,-0.449 -1.93869,0.0814 -1.93869,0.93509 0,1.24567 0.36736,1.65271 1.40085,1.55214 0.8642,-0.0841 1.01248,-0.23483 1.09784,-1.11597 z m 12.25654,2.33218 c -2.55211,-1.41453 -1.84332,-4.81303 1.08527,-5.2037 3.29971,-0.44017 4.58256,3.73326 1.58482,5.15578 -1.25351,0.59483 -1.66987,0.6023 -2.67009,0.0479 z m 2.20477,-1.47344 c 0.77278,-0.77278 0.78381,-0.93228 0.1291,-1.86701 -0.67985,-0.97063 -1.78268,-0.80006 -2.18102,0.33732 -0.24121,0.68871 -0.18212,1.00587 0.28315,1.52 0.73282,0.80975 0.96743,0.81103 1.76877,0.01 z m 3.92,1.51295 c -1.14531,-0.3585 -1.26838,-0.60505 -0.58507,-1.17214 0.35101,-0.29132 0.60501,-0.28382 1.11201,0.0328 0.47953,0.29948 0.7526,0.31485 1.01055,0.0569 0.25795,-0.25795 0.0223,-0.5152 -0.87201,-0.95199 -1.5658,-0.76473 -1.84337,-2.04375 -0.6178,-2.84677 1.02249,-0.66996 2.84272,-0.37322 2.6842,0.43759 -0.074,0.37831 -0.36498,0.49977 -1.01368,0.42306 -0.64842,-0.0767 -0.86901,0.0153 -0.76755,0.32 0.0783,0.23518 0.41845,0.47846 0.75587,0.54063 1.44864,0.26692 2.29998,2.08241 1.33348,2.84366 -0.66901,0.52694 -1.94336,0.65952 -3.04,0.31626 z m 29.1452,-0.0724 c -1.92145,-0.81119 -2.28,-2.83495 -0.76981,-4.34513 1.26619,-1.2662 2.63089,-1.25834 3.91176,0.0225 0.62129,0.6213 0.92188,1.21166 0.85538,1.68 -0.0895,0.63007 -0.30643,0.72947 -1.70253,0.78002 -0.88,0.0318 -1.73886,0.0678 -1.90857,0.08 -0.16971,0.0121 -0.067,0.26361 0.22818,0.55882 0.43611,0.43611 0.68441,0.46947 1.32427,0.17793 0.62723,-0.28579 0.86786,-0.26201 1.18226,0.11681 0.80011,0.96407 -1.45081,1.63411 -3.12094,0.92902 z m 2.0548,-3.44051 c -0.0733,-0.22 -0.46933,-0.4 -0.88,-0.4 -0.41067,0 -0.80667,0.18 -0.88,0.4 -0.088,0.26386 0.21156,0.4 0.88,0.4 0.66845,0 0.96795,-0.13614 0.88,-0.4 z m -86.6633,3.36 c -0.22718,-2.33972 -0.27745,-5.58508 -0.11897,-7.68 l 0.19973,-2.64 h 2.36014 c 2.17143,0 2.44846,0.0776 3.46482,0.96992 1.35963,1.19377 1.74714,2.8855 1.04558,4.56457 -0.6117,1.464 -1.77102,2.20515 -3.74619,2.39494 -1.39121,0.13368 -1.58181,0.24033 -1.58181,0.88511 0,1.15333 -0.33728,1.74546 -0.99423,1.74546 -0.33317,0 -0.61625,-0.108 -0.62907,-0.24 z m 4.9033,-4.58572 c 1.41638,-1.73299 0.10564,-4.45428 -2.14545,-4.45428 h -1.13455 v 2.50667 c 0,1.37866 0.108,2.61532 0.24,2.74813 0.43283,0.43547 2.46779,-0.10039 3.04,-0.80052 z m 9.52,2.27795 v -2.59228 l 1.04,0.0262 c 0.572,0.0144 1.436,-0.0699 1.92,-0.18728 0.69037,-0.16747 0.88,-0.0998 0.88,0.31388 0,0.29004 -0.252,0.60522 -0.56,0.70039 -1.31566,0.40655 -1.52282,0.70243 -1.68,2.39941 -0.13797,1.4897 -0.25909,1.74153 -0.88,1.82971 -0.69583,0.0988 -0.72,0.0152 -0.72,-2.49002 z m 25.73349,2.11406 c -0.0915,-0.23853 -0.12302,-1.35327 -0.07,-2.47719 l 0.0965,-2.04349 1.6,-0.23649 c 0.88,-0.13007 1.77757,-0.17278 1.99461,-0.0949 0.5981,0.21458 0.12434,1.07497 -0.65365,1.18709 -0.86181,0.1242 -1.49012,1.34144 -1.49624,2.89871 -0.004,0.9913 -0.11777,1.2 -0.65476,1.2 -0.35752,0 -0.72494,-0.19517 -0.81647,-0.43371 z m 4.86651,-0.56629 c -0.25988,-1.2994 -0.25767,-6.80993 0.004,-8.71534 0.15429,-1.1257 0.33944,-1.48466 0.76576,-1.48466 0.30925,0 0.64968,0.22778 0.75651,0.50617 0.25087,0.65376 0.24468,3.64202 -0.0157,7.57383 -0.17617,2.66041 -0.28788,3.12 -0.75834,3.12 -0.36195,0 -0.62054,-0.34399 -0.75174,-1 z m 18.36,-4.25775 c 0,-2.91624 0.12312,-5.30225 0.27359,-5.30225 0.15047,0 0.61847,0.41417 1.04,0.92038 1.67279,2.00885 5.0936,5.47962 5.40075,5.47962 0.19917,0 0.32566,-1.24293 0.32566,-3.2 v -3.2 h 0.8 0.8 v 5.10111 c 0,2.80562 -0.1175,5.17374 -0.26112,5.2625 -0.14362,0.0888 -1.69162,-1.37141 -3.44,-3.24482 l -3.17888,-3.40621 -0.16,3.34371 c -0.15158,3.16774 -0.19789,3.34909 -0.88,3.44596 l -0.72,0.10226 z m 10.24,2.69775 c 0,-2.51733 0.0133,-2.56 0.8,-2.56 0.78667,0 0.8,0.0427 0.8,2.56 0,2.51733 -0.0133,2.56 -0.8,2.56 -0.78667,0 -0.8,-0.0427 -0.8,-2.56 z m 2.88,0 v -2.56 l 1.36,-0.0639 c 3.6966,-0.17364 4.08,0.12378 4.08,3.16505 0,1.94009 -0.0312,2.01884 -0.8,2.01884 -0.76491,0 -0.8,-0.0847 -0.8,-1.93004 0,-2.09886 -0.37999,-2.56289 -1.57499,-1.92334 -0.5488,0.2937 -0.66501,0.66148 -0.66501,2.10464 0,1.65199 -0.0443,1.74874 -0.8,1.74874 -0.78667,0 -0.8,-0.0427 -0.8,-2.56 z m 13.24433,2.10244 c -0.31861,-0.83029 0.12797,-1.51654 0.91424,-1.40489 0.52887,0.0751 0.72143,0.31598 0.72143,0.90245 0,0.58647 -0.19256,0.82734 -0.72143,0.90244 -0.43273,0.0614 -0.79859,-0.0986 -0.91424,-0.4 z m -15.76534,-6.67145 c -0.65956,-0.65956 -0.4217,-1.51099 0.42213,-1.51099 0.89396,0 1.22329,0.36768 0.95518,1.06638 -0.25282,0.65883 -0.94095,0.88097 -1.37731,0.44461 z m -38.77753,-10.80244 c -0.15257,-0.0943 -0.21891,-4.0543 -0.14742,-8.8 0.0715,-4.7457 0.13807,-9.16368 0.14797,-9.81772 l 0.018,-1.18918 3.44,-0.0908 3.44,-0.0908 -2.10183,-0.99597 c -2.15381,-1.0206 -4.15877,-2.78347 -4.99079,-4.38818 -1.99082,-3.83968 -0.4792,-9.61237 3.2129,-12.26968 2.86476,-2.06185 2.51397,-2.02617 19.91995,-2.02617 h 15.79977 v 9.88576 c 0,7.62123 -0.0916,9.91757 -0.4,10.02461 -0.22,0.0764 -1.62301,0.17478 -3.1178,0.2187 -1.49479,0.0439 -2.75075,0.11282 -2.79103,0.15309 -0.0403,0.0403 0.6801,0.45467 1.60082,0.92087 0.92072,0.4662 2.13331,1.32224 2.69464,1.90231 3.21774,3.32516 3.33402,9.20417 0.26171,13.23217 -1.09725,1.43857 -3.70817,3.01948 -5.33848,3.23244 -1.78888,0.23368 -31.28119,0.32556 -31.6484,0.0986 z m -36.0639,-19.74855 0.0824,-19.76 h 16.48 16.48 v 6.56 6.56 l -4.08,0.0896 -4.08,0.0896 v 0.78088 0.78088 l 4.08,0.0896 4.08,0.0896 0.0264,3.04 c 0.0145,1.672 -0.0354,3.796 -0.11089,4.72 l -0.13723,1.68 h -3.94244 c -2.86622,0 -3.98054,0.10919 -4.08198,0.4 -0.3681,1.05527 0.12887,1.2 4.12043,1.2 h 3.96576 v 6.72 6.72 h -16.48244 -16.48244 z m 97.20244,19.44621 c 0,-0.26852 0.72891,-1.54444 2.47593,-4.33401 0.21776,-0.34771 0.63454,-1.0642 0.92619,-1.5922 0.29164,-0.528 1.64258,-2.76 3.0021,-4.96 2.35189,-3.80587 6.69274,-11.03579 8.0694,-13.44 0.35272,-0.616 0.91245,-1.50223 1.24385,-1.9694 0.33139,-0.46717 0.60253,-0.94209 0.60253,-1.05537 0,-0.11329 0.47675,-0.95506 1.05946,-1.8706 0.5827,-0.91555 1.15732,-1.88063 1.27695,-2.14463 0.11962,-0.264 0.75886,-1.36938 1.42054,-2.45639 0.66168,-1.08701 1.96827,-3.28021 2.90354,-4.87377 0.93526,-1.59357 1.82367,-2.97353 1.97423,-3.06658 0.25087,-0.15505 2.11122,2.67283 4.1029,6.23674 0.44261,0.792 1.87986,3.24 3.19389,5.44 1.31403,2.2 2.73466,4.61027 3.15696,5.35615 0.68273,1.2059 3.82701,6.56496 11.55402,19.6925 1.32364,2.24876 2.51022,4.15268 2.63684,4.23093 0.42009,0.25964 0.57993,-5.26851 0.63366,-21.916 0.0293,-9.06204 0.10337,-16.52661 0.1647,-16.58794 0.0613,-0.0613 5.01721,-0.10106 11.01307,-0.0883 10.18757,0.0217 11.03198,0.0672 12.89318,0.69418 2.62381,0.8839 4.29356,1.88998 6.25013,3.76592 3.31149,3.17503 4.86845,6.8238 4.87918,11.43446 0.0106,4.54153 -1.27331,7.93669 -4.23325,11.19473 -0.836,0.9202 -1.52,1.84794 -1.52,2.06165 0,0.34896 1.13053,2.56872 4.11973,8.08891 0.55015,1.01597 1.00027,1.98797 1.00027,2.16 0,0.20214 -14.99848,0.31279 -42.4,0.31279 -27.4936,0 -42.4,-0.11032 -42.4,-0.31379 z m 95.51191,-0.0193 c -0.11634,-0.18824 -0.16258,-4.47431 -0.10276,-9.52459 0.0598,-5.05028 -0.007,-9.36233 -0.14908,-9.58233 -0.1826,-0.28327 -1.37292,-0.4 -4.07896,-0.4 h -3.82111 v -9.92 -9.92 l 6.8,-0.0238 c 3.74,-0.0131 11.74426,-0.0491 17.78724,-0.08 7.95614,-0.0407 11.07156,0.0454 11.29288,0.31214 0.31423,0.37866 0.35788,15.74514 0.0519,18.27169 l -0.1647,1.36 h -3.46478 c -2.42042,0 -3.54282,0.12057 -3.72367,0.4 -0.14239,0.22 -0.33088,4.648 -0.41888,9.84 l -0.16,9.44 -9.81828,0.0846 c -6.7128,0.0578 -9.88518,-0.0237 -10.02981,-0.25767 z m 30.56809,-19.49794 v -19.83679 l 0.72,-0.14536 c 0.396,-0.08 7.84799,-0.1187 16.55999,-0.0861 l 15.83997,0.0593 v 6.72 6.72 l -3.52,0.0524 c -1.936,0.0288 -3.78198,0.0648 -4.10222,0.08 -0.41504,0.0197 -0.55289,0.2344 -0.48,0.74762 0.0992,0.69827 0.22564,0.7227 4.19072,0.80962 l 4.0885,0.0896 -0.088,4.71037 -0.089,4.71038 -4.08,0.0896 c -3.73468,0.082 -4.07997,0.14002 -4.07997,0.68576 0,0.82111 0.33503,0.89666 4.07997,0.92005 1.804,0.0113 3.499,0.0304 3.7665,0.0426 0.4219,0.0191 0.475,0.90372 0.4,6.66207 l -0.087,6.64 -16.55997,0.0829 -16.55999,0.0829 z m -129.93678,-24.4872 c -7.26945,-1.44947 -13.39067,-6.90231 -15.87396,-14.14069 -0.75185,-2.19152 -0.86057,-3.01599 -0.87837,-6.66109 -0.0184,-3.76373 0.0651,-4.40386 0.87608,-6.72 1.51275,-4.32027 4.12852,-7.90256 7.56199,-10.35612 4.19888,-3.00052 6.68074,-3.86971 11.7398,-4.11147 4.48584,-0.21438 7.27696,0.35783 10.93641,2.24207 5.5195,2.84197 9.60678,8.29363 10.96454,14.62464 0.58342,2.7204 0.21261,8.04797 -0.76846,11.04088 -3.29099,10.03963 -14.00866,16.18523 -24.55803,14.08178 z m 111.43087,0.16843 c -2.43227,-0.38014 -5.7332,-1.49507 -7.52547,-2.54182 -11.52152,-6.72892 -14.26591,-21.86444 -5.82091,-32.1027 4.16632,-5.05102 9.89832,-7.69459 16.64734,-7.67764 8.35923,0.021 15.12604,4.25506 18.85593,11.7984 2.88606,5.83677 2.82182,12.61256 -0.17959,18.94279 -1.70073,3.587 -5.69598,7.63493 -9.26211,9.38424 -4.01861,1.97128 -8.83441,2.80327 -12.71519,2.19673 z m -204.70079,-1.3011 c -0.11247,-0.18197 -0.11796,-6.84196 -0.0122,-14.79999 0.10575,-7.95804 0.18927,-16.80915 0.1856,-19.66915 l -0.007,-5.2 h 16.48 16.48 v 6.72 c 0,5.15514 -0.0931,6.72329 -0.4,6.73411 -0.22,0.008 -2.056,0.0438 -4.08,0.08 -3.54969,0.0636 -3.68362,0.0914 -3.78225,0.78589 -0.10157,0.71516 -0.0741,0.72 4.08,0.72 h 4.18225 v 4.92259 4.92259 l -2.48,0.006 c -5.76079,0.0139 -5.84,0.023 -5.84,0.67152 0,0.78988 0.44671,0.87057 4.71995,0.85252 l 3.59996,-0.0152 4e-5,6.8 5e-5,6.8 h -16.46111 c -10.9889,0 -16.52909,-0.10999 -16.66559,-0.33085 z m 36.0067,-9.57809 V -158.64 h 3.30667 c 1.81867,0 3.40535,-0.0987 3.52596,-0.2193 0.12062,-0.12061 -0.47176,-0.51661 -1.31638,-0.88 -2.05505,-0.88415 -3.98861,-2.32129 -4.81094,-3.57577 -1.82875,-2.78978 -2.11469,-6.65354 -0.70752,-9.56036 0.88295,-1.82393 3.03545,-4.05353 4.846,-5.01959 l 1.39621,-0.74498 16.4,-0.0936 16.4,-0.0936 v 9.58745 c 0,5.2731 -0.0874,9.81523 -0.19424,10.09363 -0.15804,0.41185 -0.75433,0.50617 -3.2,0.50617 -1.65316,0 -3.00576,0.11507 -3.00576,0.25571 0,0.14065 0.48756,0.43202 1.08347,0.64751 1.68971,0.611 3.91327,2.77446 4.81876,4.68851 1.12907,2.38667 1.15358,5.99367 0.0567,8.34919 -0.97569,2.09532 -2.47527,3.78515 -4.32286,4.87131 l -1.47611,0.86777 -16.4,0.0911 -16.4,0.0911 z M 251.02807,-139.3 c -0.10553,-0.27499 -0.10434,-8.37499 0.003,-17.99999 0.10699,-9.62501 0.19785,-18.62108 0.20191,-19.99127 0.008,-2.84729 -0.123,-2.82566 2.78618,-0.45848 0.91234,0.74236 3.28834,2.64424 5.28,4.22641 1.99167,1.58217 3.83721,3.0572 4.10121,3.27785 0.264,0.22065 0.93141,0.72615 1.48314,1.12333 0.55173,0.39718 2.15498,1.61587 3.56279,2.7082 l 2.55965,1.98606 0.19721,-0.98606 c 0.10846,-0.54233 0.19721,-3.77813 0.19721,-7.19067 v -6.20463 l 9.84,0.0846 9.84,0.0846 -0.0256,11.84 c -0.0141,6.512 -0.0501,15.476 -0.08,19.92 l -0.0544,8.08 h -19.85005 c -17.70208,0 -19.8708,-0.0541 -20.0419,-0.5 z"
       style="fill:#ffffff;fill-opacity:1;stroke:none;stroke-width:2;stroke-dasharray:none;stroke-opacity:1"
       id="path1-4" />
  </g>
</svg>
