<?xml version="1.0" encoding="UTF-8" standalone="no"?>
<!-- Created with Inkscape (http://www.inkscape.org/) -->

<svg
   version="1.1"
   id="svg1"
   width="440.09088"
   height="104.19791"
   viewBox="0 0 440.09088 104.19791"
   xmlns="http://www.w3.org/2000/svg"
   xmlns:svg="http://www.w3.org/2000/svg">
  <defs
     id="defs1" />
  <g
     id="g1"
     transform="translate(-12.873136,-478.31679)">
    <path
       d="m 105.56501,582.2844 c -0.1765,-0.0438 -0.68319,-0.1542 -1.126,-0.24549 -0.88932,-0.18332 -1.93508,-1.65171 -1.94701,-2.73386 -0.0129,-1.14293 1.65192,-2.58436 3.00148,-2.59923 1.39583,-0.0157 2.74275,1.1356 2.75618,2.35523 0.008,0.77396 -0.0786,0.81546 -1.75092,0.83389 -1.38903,0.0156 -1.75872,0.12569 -1.75433,0.52387 0.004,0.36752 0.28771,0.48592 1.04487,0.43609 1.59757,-0.10506 1.83958,-0.0478 1.84491,0.43631 0.005,0.44536 -1.45403,1.14564 -2.06918,0.99319 z m 0.75954,-3.67767 c -0.002,-0.18151 -0.22054,-0.41052 -0.48564,-0.50891 -0.64354,-0.23886 -1.53033,0.13385 -1.27557,0.5361 0.26673,0.42113 1.76588,0.39798 1.7612,-0.0274 z m -40.762023,3.63812 c -0.894092,-0.25588 -1.771991,-1.04535 -1.778089,-1.59898 -0.0052,-0.46956 1.312103,-0.66063 1.803787,-0.26164 0.275196,0.22332 0.759752,0.44271 1.076785,0.48751 1.131029,0.15988 1.407063,-0.77736 1.493514,-5.0711 0.08247,-4.09582 0.08841,-4.12486 0.845165,-4.1332 0.419162,-0.005 0.776665,0.17145 0.794448,0.39127 0.149933,1.85338 -0.04602,8.16345 -0.272658,8.77989 -0.158492,0.43109 -0.77923,0.99031 -1.392527,1.25453 -1.238935,0.53377 -1.236107,0.5336 -2.570425,0.15172 z m 7.028399,-0.0497 c -1.008688,-0.38183 -1.50563,-1.14824 -1.518783,-2.3423 -0.02616,-2.37623 1.037818,-3.18447 3.846778,-2.9221 l 1.947391,0.18187 0.02607,2.36432 c 0.01777,1.61265 -0.100689,2.40474 -0.372579,2.49149 -0.990111,0.31587 -3.335762,0.45123 -3.928851,0.22672 z m 2.328569,-1.69604 c 0.583297,-0.59631 0.441611,-1.45313 -0.3273,-1.97916 -1.200428,-0.82126 -2.366451,0.24629 -1.820541,1.6668 0.304341,0.79191 1.507562,0.96689 2.147841,0.31236 z m 3.890694,1.00581 c -1.921337,-1.87947 -0.796354,-4.64158 1.902593,-4.67131 1.320253,-0.0141 2.134501,0.46953 1.779682,1.05803 -0.116135,0.19264 -0.77588,0.35646 -1.466099,0.36406 -1.083498,0.0115 -1.282125,0.1274 -1.453899,0.84518 -0.285429,1.19275 0.815335,2.26018 1.782679,1.72867 0.766727,-0.42126 1.309976,-0.22543 1.317692,0.475 0.0056,0.50325 -1.221174,1.10672 -2.27327,1.11831 -0.354062,0.003 -1.069282,-0.40918 -1.589378,-0.91794 z m 6.270287,0.47985 c -0.987661,-0.55205 -1.432662,-1.26332 -1.455544,-2.3264 -0.02783,-1.29168 0.691942,-2.27248 1.994899,-2.71846 2.940019,-1.00634 5.095122,2.3379 2.931756,4.54946 -0.903469,0.9236 -2.3386,1.12842 -3.471111,0.4954 z m 2.321777,-1.30315 c 0.664633,-0.67944 0.445069,-2.16959 -0.363169,-2.46465 -1.050378,-0.38347 -1.83831,0.16366 -1.826144,1.26804 0.01435,1.3065 1.361563,2.0428 2.189313,1.19661 z m 4.472016,1.38126 -1.208789,-0.11266 0.0269,-5.50087 c 0.02568,-5.25834 0.0551,-5.50117 0.66684,-5.50791 0.587042,-0.006 0.650246,0.2368 0.764331,2.94157 l 0.124384,2.94862 1.027655,-0.0491 c 1.525102,-0.0728 2.330573,0.26928 2.752593,1.16909 0.56889,1.21298 0.47264,2.51031 -0.25658,3.45867 -0.67271,0.87488 -0.972849,0.92513 -3.897287,0.65257 z m 2.333186,-1.40348 c 1.192671,-0.6553 0.447913,-2.7618 -0.878786,-2.48564 -0.894012,0.1861 -1.255579,1.07583 -0.817124,2.0107 0.419992,0.8955 0.758136,0.99019 1.69591,0.47494 z m 3.684011,1.13929 c -0.89949,-0.64263 -0.3381,-1.22247 0.9618,-0.9934 1.272274,0.2242 1.550704,-0.39528 0.31099,-0.69195 -1.88579,-0.45127 -2.33823,-2.50308 -0.71937,-3.26233 0.82605,-0.38741 2.739994,-6.8e-4 2.746124,0.55496 0.005,0.41439 -0.72733,0.79019 -1.352434,0.69441 -0.9167,-0.14047 -0.61994,0.39864 0.496894,0.90268 1.24899,0.56368 1.63739,2.08263 0.70999,2.77657 -0.73341,0.54878 -2.398474,0.55884 -3.153994,0.0188 z m 11.491244,-0.10158 c -0.0882,-0.2226 -0.10107,-1.05051 -0.0282,-1.83981 0.0725,-0.7893 0.13598,-1.81059 0.14103,-2.26953 0.009,-0.79794 0.0896,-0.83619 1.84883,-0.87464 1.01183,-0.0221 2.08037,0.0234 2.37453,0.10122 0.78466,0.20747 1.2427,1.80696 1.04504,3.64938 -0.15131,1.41047 -0.2586,1.60358 -0.84776,1.52607 -0.58371,-0.0768 -0.68269,-0.31994 -0.73508,-1.80559 -0.0634,-1.79698 -0.43153,-2.31019 -1.45625,-2.03013 -0.47317,0.12932 -0.59954,0.46074 -0.58764,1.54118 0.008,0.75703 -0.0697,1.60514 -0.17348,1.88469 -0.22536,0.6072 -1.35322,0.69079 -1.58063,0.11712 z m 6.69902,-0.1259 c -0.35336,-0.8914 0.11184,-1.51297 1.05872,-1.41461 0.70107,0.0728 0.8847,0.25644 0.8917,0.89166 0.007,0.63521 -0.17254,0.82283 -0.87184,0.91109 -0.5743,0.0724 -0.9495,-0.0625 -1.07858,-0.38814 z m -91.856855,0.67618 c -2.992832,-1.24016 -1.991422,-5.10412 1.332317,-5.14073 1.726616,-0.019 2.67578,0.87868 2.694169,2.54807 0.02289,2.07699 -2.049975,3.41169 -4.026486,2.59266 z m 2.101137,-1.60964 c 0.207467,-0.25565 0.326349,-0.869 0.264184,-1.36299 -0.202115,-1.60617 -2.517053,-1.25103 -2.499049,0.38339 0.01454,1.31921 1.449024,1.94799 2.234865,0.9796 z m 13.576942,1.44427 c -2.003633,-0.84542 -2.247218,-1.73335 -2.169814,-7.90965 0.03028,-2.41691 0.05158,-2.48072 0.831041,-2.48931 l 0.799953,-0.009 0.04406,3.99976 c 0.03936,3.57311 0.113111,4.06726 0.691069,4.63267 0.761632,0.74503 2.481225,0.82112 3.380692,0.14958 0.538257,-0.40185 0.630642,-0.9793 0.730886,-4.56833 l 0.114755,-4.10832 0.799953,-0.009 0.799953,-0.009 0.0363,3.83984 c 0.04441,4.66722 -0.275568,5.67133 -2.039661,6.39982 -1.520078,0.62772 -2.667845,0.65067 -4.019449,0.0803 z m 7.942468,-0.36717 c -1.920837,-2.00002 -0.239506,-5.3412 2.434078,-4.83704 l 0.984716,0.18569 -0.03216,-2.91982 c -0.03195,-2.90116 -0.02712,-2.91988 0.767788,-2.92863 l 0.799953,-0.009 0.06104,5.54178 0.06104,5.54176 -2.199697,0.065 c -1.890938,0.0559 -2.294723,-0.0339 -2.876763,-0.63995 z m 3.24448,-1.26438 c 0.235934,-0.38398 0.217655,-0.78065 -0.06361,-1.38038 -0.309804,-0.66056 -0.583102,-0.81774 -1.270817,-0.7309 -0.704053,0.089 -0.89519,0.29633 -0.973178,1.05601 -0.159423,1.55304 1.527718,2.32457 2.307614,1.05527 z m 3.610753,0.95089 c -0.461587,-0.53646 -0.842966,-1.31326 -0.847515,-1.72621 -0.0046,-0.41298 0.359625,-1.19799 0.809283,-1.74448 0.678134,-0.82418 1.050801,-0.99618 2.185383,-1.00868 2.336125,-0.0262 3.730388,1.97462 2.726166,3.91124 -0.571602,1.10233 -1.264774,1.49182 -2.702716,1.51865 -1.100435,0.0201 -1.476939,-0.14434 -2.170601,-0.95052 z m 3.139706,-0.83294 c 0.981616,-1.00348 0.378692,-2.38146 -1.035183,-2.36588 -0.504099,0.005 -0.841564,0.27389 -1.046944,0.83253 -0.596824,1.62337 0.909173,2.73245 2.082127,1.53335 z m -42.736184,-3.30929 c -0.06581,-5.97457 -0.2573,-5.61474 2.91034,-5.4688 2.771003,0.12769 4.406912,1.54753 4.43224,3.84685 0.02717,2.46624 -1.274992,3.87523 -3.905332,4.22573 -1.630006,0.2172 -1.646884,0.23104 -1.73213,1.42036 -0.07403,1.03249 -0.195639,1.20223 -0.866729,1.20962 l -0.780643,0.008 z m 4.760243,0.60049 c 1.280172,-1.03916 1.077693,-3.50372 -0.34674,-4.22055 -1.189585,-0.59865 -2.422276,-0.56649 -2.658266,0.0694 -0.103757,0.27954 -0.179345,1.35329 -0.167969,2.38609 0.0153,1.38634 0.155121,1.95111 0.534312,2.15787 0.595221,0.32455 2.015408,0.11315 2.638663,-0.39277 z m 9.668433,1.92341 -0.0282,-2.55984 0.919943,-0.0104 c 0.50597,-0.006 1.368925,-0.10509 1.917681,-0.22114 0.796213,-0.16839 0.998916,-0.10392 1.003574,0.31901 0.0032,0.29149 -0.245162,0.62214 -0.55194,0.73476 -1.245938,0.45737 -1.667385,1.15446 -1.650038,2.72925 0.01588,1.44034 -0.03962,1.55094 -0.782874,1.55913 -0.786614,0.008 -0.800421,-0.0339 -0.828149,-2.55104 z m 400.491257,-15.7052 c -0.0889,-0.0827 -0.81052,-0.22446 -1.60357,-0.31506 -1.76283,-0.20142 -4.30741,-0.95825 -5.65688,-1.68257 -0.5522,-0.2964 -1.58335,-0.84976 -2.29138,-1.22971 -2.00467,-1.07568 -4.67724,-3.63709 -6.26947,-6.00876 -2.34024,-3.48602 -3.13856,-5.54502 -3.54265,-9.13659 -0.62692,-5.57262 0.38694,-9.90371 3.37672,-14.42431 1.81007,-2.73677 2.60605,-3.56086 5.23947,-5.42459 7.37774,-5.22121 16.9748,-5.47796 24.21394,-0.64778 4.06764,2.71411 6.93662,6.33665 8.49831,10.73053 0.76712,2.15854 0.91207,3.08816 0.96894,6.2175 0.0399,2.17124 -0.10731,4.40288 -0.35805,5.44428 -1.80427,7.49416 -8.49564,14.17066 -15.86213,15.82701 -1.77033,0.39805 -6.49247,0.85531 -6.71325,0.65005 z m -85.87898,-0.76777 c -0.0304,-0.0251 -18.48728,0.0442 -41.01543,0.15419 -22.52816,0.10993 -42.11252,0.18579 -43.52079,0.16864 -1.40827,-0.0172 -4.41369,-0.0302 -6.67869,-0.0288 l -4.11819,0.002 0.0185,-19.7614 c 0.0118,-12.64322 0.13361,-19.83604 0.33811,-19.9686 0.52195,-0.33834 20.41253,-0.20648 22.26471,0.14765 3.3709,0.64443 6.26085,2.35356 8.86731,5.24417 3.92626,4.35429 5.09577,10.29806 3.12975,15.90622 -0.90171,2.5722 -2.42229,4.99753 -3.81418,6.08364 -0.60119,0.46911 -1.09083,1.05648 -1.08809,1.30525 0.007,0.63716 3.91271,8.11248 4.23673,8.1089 0.23938,-0.003 2.54927,-3.58908 3.55752,-5.52357 0.21795,-0.41819 1.17209,-2.03266 2.12028,-3.58772 0.9482,-1.55504 2.50172,-4.12695 3.45229,-5.71535 3.17539,-5.30611 9.48752,-15.89721 11.80409,-19.80604 3.47189,-5.85823 2.89201,-5.612 4.99273,-2.12006 0.99433,1.65287 2.09644,3.50606 2.44913,4.11821 1.20289,2.08788 4.39583,7.46553 6.60705,11.1279 5.73657,9.5012 9.77492,16.28236 9.7764,16.41646 8.9e-4,0.0812 0.51427,0.92986 1.14084,1.88598 0.62658,0.95613 1.14002,1.81047 1.14099,1.89854 9.7e-4,0.0881 0.39098,0.76192 0.8667,1.49744 0.76045,1.17573 0.89116,1.26051 1.08181,0.70177 0.11929,-0.34955 0.1968,-4.37954 0.17226,-8.95555 -0.0554,-10.33038 0.0763,-29.40666 0.20397,-29.54758 0.11676,-0.12885 1.89549,1.14282 6.75506,4.82943 4.05752,3.07814 5.33331,4.04264 7.97231,6.0271 0.94765,0.71261 2.35436,1.81318 3.12602,2.44571 0.77167,0.63254 1.51507,1.14884 1.65199,1.14733 0.13694,-0.002 0.31952,-3.17171 0.40571,-7.0449 l 0.15673,-7.04214 9.92397,-0.10934 9.9239,-0.10933 -0.0152,19.76136 c -0.008,10.86876 -0.0858,19.88164 -0.1721,20.02863 -0.12064,0.2055 -27.47077,0.5149 -27.71414,0.31329 z m 31.50328,-0.48503 c -0.75106,-0.29111 -0.75962,-0.34208 -0.60469,-3.57328 0.0864,-1.80287 0.11872,-8.67785 0.0718,-15.27774 -0.0467,-6.59988 -0.0373,-13.97421 0.0215,-16.38741 l 0.10687,-4.38763 16.20418,-0.01 c 8.91228,-0.005 16.35417,0.0341 16.53737,0.0879 0.20387,0.0599 0.31414,1.13641 0.28418,2.77468 -0.0268,1.47226 -0.0352,4.43649 -0.0195,6.58718 l 0.0291,3.91037 -4.07876,0.13453 c -3.83564,0.12646 -4.07834,0.17264 -4.07172,0.77445 0.006,0.59731 0.27376,0.64768 4.00857,0.7559 l 4.00152,0.11593 0.14099,4.71873 0.14098,4.71873 -4.19054,0.0461 c -4.16275,0.0458 -4.1899,0.0511 -4.08042,0.76499 0.10562,0.69164 0.26157,0.72321 4.11174,0.83476 l 4.00152,0.11593 -0.0192,2.88039 c -0.0105,1.58421 -0.0136,4.57243 -0.007,6.64048 l 0.0124,3.76008 -15.91926,0.15506 c -9.24437,0.09 -16.23874,0.0313 -16.68126,-0.14025 z m -164.40261,0.72814 c -0.10147,-0.25575 -0.15956,-9.21966 -0.12896,-19.91978 l 0.055,-19.45477 9.7584,-0.19931 c 12.82187,-0.26181 15.13267,0.1323 19.40808,3.31007 7.49904,5.57375 8.42524,16.51068 2.00631,23.69126 -1.69728,1.89867 -1.7802,2.32144 -0.76602,3.90488 0.22388,0.34955 1.3953,2.46077 2.60315,4.6916 l 2.1961,4.05606 -17.47364,0.19252 c -15.02093,0.16544 -17.4995,0.1272 -17.65797,-0.27252 z m -141.077199,1.09384 c -4.019715,-1.11499 -6.292545,-2.40986 -9.288893,-5.29199 -2.389544,-2.29847 -4.207611,-5.27966 -5.084229,-8.33692 -0.632184,-2.20477 -0.693477,-3.26239 -0.806256,-13.91196 -0.06683,-6.33919 -0.0065,-11.71239 0.134677,-11.94046 0.203423,-0.32856 3.175279,-0.44064 14.310025,-0.53969 11.923645,-0.10608 16.231657,-0.10342 24.664604,0.0167 l 1.00935,0.0144 -0.03479,8.88091 c -0.05106,13.02461 -0.134839,14.71399 -0.854546,17.23171 -1.798041,6.28995 -7.380181,11.81331 -13.811621,13.66622 -2.931027,0.84442 -7.607459,0.94085 -10.238297,0.21108 z m 78.878359,-0.5817 -4.96145,-0.10536 0.012,-9.83087 0.012,-9.83087 -4.12107,-0.0445 -4.12109,-0.0445 0.0119,-9.76071 c 0.007,-5.36841 0.0713,-9.82723 0.14384,-9.9085 0.17906,-0.20056 35.36144,-0.40632 35.68919,-0.20867 0.29995,0.18083 0.42025,12.24893 0.16709,16.76102 l -0.17069,3.04207 -3.5727,0.0393 c -1.96498,0.0216 -3.65115,0.11939 -3.74706,0.21717 -0.0959,0.0978 -0.17421,3.26685 -0.17409,7.04234 1.5e-4,3.7755 -0.0383,8.20781 -0.0856,9.84959 l -0.0859,2.98507 -5.01751,-0.0487 c -2.75963,-0.0268 -7.25018,-0.0961 -9.97899,-0.15402 z m 25.8067,-0.18373 c -0.24568,-0.24033 -0.36525,-37.0252 -0.12591,-38.72708 l 0.14449,-1.02728 8.06905,0.0338 c 4.43798,0.0187 11.84894,0.003 16.4688,-0.0358 l 8.39974,-0.0696 0.074,6.71959 0.074,6.71959 -4.182,0.0461 c -4.15387,0.0458 -4.18126,0.0511 -4.07182,0.76489 0.10602,0.69164 0.26156,0.72322 4.1117,0.83476 l 4.00152,0.11593 0.12214,1.11872 c 0.0672,0.6153 0.0405,2.73553 -0.0591,4.71162 l -0.18122,3.59288 -4.04778,0.13389 c -3.80476,0.12596 -4.04738,0.17235 -4.04075,0.77389 0.006,0.60187 0.25029,0.64261 4.09425,0.68455 l 4.08721,0.0446 -0.0135,6.63095 -0.0135,6.63095 -16.34188,0.26291 c -8.98803,0.14465 -16.44437,0.16259 -16.56962,0.0402 z m -72.81687,0.45131 -3.971034,-0.0466 -0.0162,-19.52281 c -0.009,-10.73755 0.0679,-19.66231 0.17072,-19.83283 0.25276,-0.41923 21.315964,-0.63826 23.524184,-0.24463 2.70814,0.48274 4.9012,1.63941 6.99879,3.69129 2.31584,2.26538 3.36549,4.59063 3.40793,7.5495 0.0293,2.02724 -0.92168,5.23961 -1.7618,5.95262 -0.68529,0.5816 -0.58732,0.87359 0.86058,2.56474 2.8031,3.27405 3.30013,7.21042 1.42991,11.32446 -1.64798,3.62513 -5.46894,6.72143 -9.87772,8.00435 -1.40218,0.40801 -11.19228,0.67196 -20.76536,0.55981 z m -87.311502,0.31887 -1.041119,-0.096 -0.07566,-8.53942 c -0.04163,-4.69667 0.01976,-9.11649 0.136343,-9.82181 l 0.211968,-1.28242 3.513474,-0.2015 c 2.301516,-0.13199 3.291716,-0.2908 2.870583,-0.46042 -5.590028,-2.25137 -7.41052,-4.54569 -7.464067,-9.40679 -0.02664,-2.41672 0.07372,-2.91198 0.900326,-4.44392 1.210121,-2.24272 3.18417,-3.99046 5.532553,-4.89831 1.873993,-0.72445 1.975672,-0.72875 17.511635,-0.74057 8.594678,-0.007 15.662838,7.9e-4 15.707012,0.0163 0.04418,0.0155 0.127785,4.33769 0.185805,9.6048 0.122029,11.07849 0.246383,10.59467 -2.675644,10.41045 -1.018188,-0.0641 -2.199783,-0.0273 -2.625766,0.0819 -0.717068,0.18393 -0.653127,0.26624 0.861973,1.10954 1.689792,0.94055 3.52613,2.91387 4.265609,4.58382 0.739283,1.66948 0.883499,5.28437 0.285412,7.15364 -0.783921,2.45003 -2.616106,4.63673 -4.814046,5.74552 l -1.847308,0.93191 -15.199,0.17447 c -8.359449,0.0961 -15.667504,0.13141 -16.24012,0.0786 z M 272.8662,518.21348 c -0.21621,-0.34138 -0.30851,-38.56678 -0.0948,-39.27611 0.0933,-0.30979 2.39093,-0.42636 10.0702,-0.51096 l 9.94929,-0.10961 0.0444,9.84011 0.0445,9.84011 5.40545,0.10047 5.40546,0.10046 0.1093,9.9194 0.1093,9.9194 -15.41738,0.25293 c -10.3723,0.17014 -15.48557,0.14516 -15.62579,-0.0762 z M 236.18266,499.0216 c -0.007,-10.78058 0.0485,-19.80012 0.12311,-20.04341 0.11367,-0.37064 2.78032,-0.44792 16.44858,-0.47662 8.97209,-0.0188 16.39732,0.0483 16.50049,0.14925 0.23315,0.22806 0.32307,12.71168 0.0947,13.09111 -0.0915,0.15167 -1.95764,0.29549 -4.14712,0.3196 -3.68936,0.0407 -3.98038,0.0882 -3.97421,0.6482 0.008,0.74548 1.00318,0.93303 4.93615,0.93045 1.56518,-8.4e-4 2.97925,0.0786 3.14239,0.17696 0.3058,0.18436 0.39794,6.50701 0.12179,8.35845 l -0.15537,1.04178 -3.9864,0.0439 c -3.95101,0.0435 -3.98543,0.0499 -3.87622,0.76274 0.10657,0.69504 0.23995,0.72036 4.03094,0.76549 l 3.92075,0.0466 0.0739,6.70974 0.0739,6.70975 -16.65725,0.18346 -16.65725,0.18347 z m -58.75324,19.71642 c -0.4653,-0.18183 -0.67498,-12.24322 -0.5123,-29.46707 l 0.0975,-10.32455 16.50813,-0.0989 16.50814,-0.0989 0.10453,4.63913 c 0.0575,2.55152 0.0359,5.61195 -0.0489,6.80095 l -0.15343,2.16182 -3.95595,0.0436 c -3.74264,0.0412 -3.95558,0.0781 -3.9489,0.68354 0.006,0.57608 0.23868,0.64287 2.32751,0.66913 1.27625,0.0161 2.53681,0.0588 2.80121,0.0951 0.26442,0.0363 1.0209,0.0752 1.68106,0.0868 l 1.20031,0.0208 0.0528,4.79015 0.0528,4.79015 -4.07877,0.13453 c -3.83565,0.12647 -4.07835,0.17264 -4.07171,0.77446 0.008,0.73943 -0.13965,0.71644 4.57841,0.71271 l 3.61046,-0.003 0.0345,6.27714 c 0.0189,3.45242 -0.0397,6.47725 -0.13048,6.72184 -0.13771,0.37101 -2.82402,0.46981 -16.21013,0.59618 -8.82479,0.0833 -16.22585,0.0808 -16.44682,-0.005 z m -71.20408,0.44094 -13.364816,0.0555 -0.02373,-9.83683 -0.02373,-9.83681 3.438786,-0.12869 c 1.89134,-0.0707 3.43755,-0.24132 3.43604,-0.37897 -0.002,-0.13766 -0.82844,-0.58191 -1.83761,-0.98721 -2.13956,-0.85931 -4.383072,-2.91356 -5.281427,-4.83588 -1.005018,-2.15054 -0.920181,-5.64557 0.195888,-8.06956 1.014179,-2.20274 2.913369,-4.11489 5.074559,-5.10922 1.9778,-0.90994 5.50178,-1.06603 21.30917,-0.94379 l 12.66776,0.098 0.0439,8.84233 c 0.0237,4.86328 -0.0189,9.37784 -0.0957,10.03237 l -0.13954,1.19005 -2.92516,0.12383 -2.92515,0.12382 1.13857,0.55189 c 1.9874,0.96333 3.46611,2.39486 4.41458,4.27377 0.8,1.58477 0.92198,2.18362 0.93191,4.57534 0.009,2.32199 -0.12154,3.03141 -0.83958,4.5409 -0.98407,2.0688 -2.83744,3.90925 -4.86851,4.83457 -1.71453,0.78112 -2.38607,0.81034 -20.32621,0.88478 z m 28.22628,-0.31592 c -0.0568,-0.70906 -0.16593,-27.30772 -0.11614,-28.32044 0.0324,-0.6604 0.0489,-3.5142 0.0367,-6.34178 l -0.0223,-5.14107 11.92063,-0.008 c 13.01395,-0.009 13.37801,0.0344 17.38372,2.05781 3.99823,2.01966 7.84109,6.35017 9.48244,10.68575 3.61197,9.5409 -0.56006,20.24595 -9.69602,24.87907 -3.95909,2.00778 -5.09545,2.15549 -17.69043,2.29951 -6.2036,0.0714 -11.28791,0.0211 -11.29848,-0.11083 z m -69.385513,0.43885 -8.443151,0.008 0.01644,-19.75598 c 0.009,-10.8658 0.09331,-19.88407 0.187269,-20.04059 0.09722,-0.16193 4.876085,-0.25259 11.087028,-0.21033 6.003914,0.0408 13.40302,0.0506 16.442455,0.0216 l 5.526238,-0.0529 -0.01331,6.64055 -0.01331,6.64054 -3.997994,0.20406 c -3.731458,0.19045 -3.997515,0.24671 -3.990935,0.84401 0.0065,0.5973 0.27381,0.64768 4.008559,0.75589 l 4.001517,0.11593 0.11097,4.55805 c 0.102418,4.20402 0.06355,4.58416 -0.500557,4.8941 -0.336388,0.18482 -2.134324,0.32833 -3.99543,0.31891 -3.303105,-0.0167 -4.31629,0.25077 -3.834004,1.01224 0.13863,0.21888 1.680021,0.3294 4.206058,0.30157 l 3.987238,-0.0439 -0.0115,6.80053 -0.0115,6.80054 -8.159381,0.0899 c -4.487727,0.0495 -11.958927,0.0933 -16.602653,0.0975 z m -46.398842,0.18745 -4.601521,-0.0383 0.0085,-19.43225 c 0.0047,-10.68773 0.08339,-19.70386 0.174951,-20.03585 0.160423,-0.58173 0.574498,-0.59985 11.413479,-0.49969 6.185854,0.0572 11.896442,0.23069 12.690197,0.38561 6.586208,1.28546 12.406103,6.41777 14.661826,12.92962 3.891444,11.23387 -2.488245,22.97345 -14.18839,26.10876 -2.524601,0.67652 -3.938148,0.71734 -20.159031,0.58215 z"
       style="fill:#ffffff;fill-opacity:1;stroke:none"
       id="path1-3" />
  </g>
</svg>
