<?xml version="1.0" encoding="UTF-8" standalone="no"?>
<!-- Created with Inkscape (http://www.inkscape.org/) -->

<svg
   version="1.1"
   id="svg1"
   width="307.67032"
   height="94.14325"
   viewBox="0 0 307.67032 94.143248"
   xml:space="preserve"
   xmlns="http://www.w3.org/2000/svg"
   xmlns:svg="http://www.w3.org/2000/svg"><defs
     id="defs1" /><g
     id="g1"
     transform="translate(-171.03113,716.4712)"><path
       style="fill:none;stroke:#323232;stroke-width:3.5;stroke-linejoin:bevel;stroke-dasharray:none;stroke-opacity:0.316505"
       d="m 431.96384,-622.39994 -2.11198,-0.16216 -0.55577,-0.46221 -0.55577,-0.46221 0.15528,-0.97779 c 0.0854,-0.53779 1.3905,-4.57779 2.90023,-8.97779 l 2.74495,-8 0.008,-0.84455 0.008,-0.84455 -0.56,-0.65519 -0.56,-0.65518 -2.41469,-0.21174 -2.41469,-0.21174 -0.42161,0.50799 c -0.23188,0.2794 -2.02637,5.29757 -3.98775,11.15148 l -3.56616,10.64348 -4.45216,0.0894 -4.45216,0.0894 -0.27492,-0.27492 -0.27492,-0.27491 1.47133,-4.13447 c 0.80923,-2.27396 1.94728,-5.57447 2.529,-7.33447 0.58172,-1.76 1.21267,-3.56 1.40213,-4 0.18945,-0.44 0.73106,-2.096 1.20359,-3.68 0.47252,-1.584 1.00139,-3.06 1.17526,-3.28 l 0.31612,-0.4 h 12.12082 12.12081 l 0.64,0.64 c 0.82918,0.82918 1.00725,0.0237 -1.9453,8.8 -1.42105,4.224 -2.92562,8.89178 -3.34349,10.37285 l -0.75976,2.69285 -0.41572,0.39115 -0.41573,0.39115 -1.6,0.11816 c -0.88,0.065 -2.55038,0.0452 -3.71197,-0.044 z m 26.77263,0.0779 -11.49934,-0.0883 -0.58066,-0.52549 -0.58066,-0.52549 v -0.59967 c 0,-0.74496 1.69878,-5.94513 2.3596,-7.223 0.26824,-0.51873 1.00408,-1.39651 1.63519,-1.95064 l 1.14748,-1.0075 1.50887,-0.027 c 0.82987,-0.0148 3.81286,-0.0544 6.62886,-0.0879 l 5.12,-0.0609 0.90567,-0.45518 0.90567,-0.45518 0.57046,-1.13694 c 0.64506,-1.2856 1.47276,-3.83729 1.73562,-5.35064 l 0.17606,-1.01371 -0.64996,-0.82629 -0.64997,-0.8263 h -2.03222 -2.03222 l -0.97367,0.81929 -0.97367,0.81929 -0.20436,1.08931 c -0.11239,0.59912 -0.36929,1.21954 -0.57088,1.37871 l -0.36653,0.2894 -3.84,0.14763 c -2.112,0.0812 -4.092,0.0895 -4.4,0.0185 l -0.56,-0.12909 v -0.46002 c 0,-0.25302 0.30963,-1.11872 0.68806,-1.9238 l 0.68805,-1.46377 1.28858,-0.85274 1.28858,-0.85274 11.10227,0.007 11.10228,0.007 0.53757,0.44615 0.53758,0.44615 -0.11294,1.30714 -0.11294,1.30714 -0.84579,2.24 c -1.30298,3.45084 -2.59379,7.2332 -4.23228,12.40154 l -1.49684,4.72154 -0.59505,0.31846 c -0.32728,0.17515 -0.71252,0.28434 -0.85609,0.24263 -0.14357,-0.0417 -5.43574,-0.11555 -11.76038,-0.16411 z m 3.60154,-1.31757 0.4222,-0.2677 1.37738,-3.9674 c 0.75756,-2.18206 1.48221,-4.21739 1.61033,-4.52294 l 0.23295,-0.55556 -0.85336,-0.32444 -0.85336,-0.32445 h -1.87834 -1.87833 l -0.77118,0.2932 c -0.42414,0.16126 -0.99468,0.51671 -1.26785,0.78988 l -0.49668,0.49668 -1.00217,3.03777 -1.00218,3.03777 0.20576,0.81981 0.20576,0.81982 0.67464,0.47253 0.67464,0.47254 2.0888,-0.005 2.08879,-0.005 z m -135.62219,0.82722 -0.8,-0.40431 -0.10255,-1.06318 -0.10255,-1.06319 0.5401,-1.32951 c 0.29705,-0.73124 1.87748,-5.2638 3.51205,-10.07236 1.63458,-4.80856 3.05426,-8.82514 3.15485,-8.92573 0.21063,-0.21063 8.90814,-0.12805 9.1228,0.0866 0.14995,0.14995 -0.89123,3.58848 -2.46536,8.14196 -0.51717,1.496 -1.77585,5.27318 -2.79707,8.39374 -1.02122,3.12055 -1.939,5.80191 -2.03952,5.95857 l -0.18275,0.28483 -3.52,0.19844 -3.52,0.19844 z m 17.60046,0.001 -0.96046,-0.24915 4.4e-4,-1.19085 4.4e-4,-1.19085 2.41141,-7.04 c 1.32628,-3.872 2.69493,-7.92401 3.04144,-9.00447 l 0.63003,-1.96446 1.27904,-1.15554 1.27904,-1.15553 0.71908,-0.0348 c 0.39549,-0.0192 5.61461,-0.007 11.59803,0.0263 l 10.87895,0.0612 0.43508,0.36108 0.43508,0.36109 -0.13791,1.66309 -0.13792,1.6631 -0.54349,0.82947 -0.5435,0.82948 h -4.51719 -4.5172 l 0.19263,-1.62649 0.19264,-1.62648 -0.81037,-0.81036 -0.81036,-0.81037 -1.91307,0.13838 -1.91308,0.13838 -0.91438,0.93847 -0.91438,0.93847 -2.77848,8.37896 -2.77849,8.37896 0.20921,0.65914 c 0.11506,0.36253 0.42605,0.876 0.6911,1.14104 l 0.48189,0.4819 1.81714,-0.002 1.81715,-0.002 0.95166,-0.57793 0.95166,-0.57793 0.66416,-1.74039 0.66416,-1.74038 h 4.62418 4.62418 l -0.0492,1.05832 -0.0492,1.05832 -0.85802,1.23812 -0.85802,1.23813 -1.11828,0.53066 -1.11829,0.53066 -10.69405,0.0529 -10.69405,0.0529 z m 35.79456,0.16177 -1.48498,-0.10483 -0.55628,-0.61468 -0.55629,-0.61469 0.34271,-1.20921 c 1.462,-5.15858 2.74463,-7.71861 4.3707,-8.72358 l 1.04466,-0.64563 h 6.69102 6.69103 l 0.71303,-0.49943 c 0.8441,-0.59123 1.51075,-1.81009 2.33229,-4.26421 l 0.60135,-1.79636 0.008,-1.13884 0.008,-1.13884 -0.43205,-0.59086 -0.43205,-0.59085 -1.72795,-0.12803 -1.72795,-0.12802 -1.12,0.57772 -1.12,0.57772 -0.69832,1.76 -0.69832,1.76 -4.3963,0.0894 -4.39629,0.0894 -0.25902,-0.25902 -0.25902,-0.25902 0.32593,-1.18043 0.32593,-1.18043 0.82582,-0.98143 c 0.4542,-0.53978 1.23352,-1.19226 1.73181,-1.44993 l 0.90599,-0.46851 h 10.98469 10.98469 l 0.7112,0.49814 0.71121,0.49815 v 0.75312 c 0,0.41421 -0.79701,3.03404 -1.77113,5.82185 -0.97412,2.78781 -1.98833,5.85558 -2.25379,6.81727 -0.78181,2.83229 -2.4142,7.47364 -2.90441,8.25807 l -0.45408,0.7266 -10.78829,-0.0779 c -5.93357,-0.0428 -11.45654,-0.12504 -12.27328,-0.1827 z m 14.12671,-1.25387 c 0.12719,-0.14231 0.9133,-2.16919 1.74691,-4.50417 l 1.51567,-4.24543 -0.18212,-0.47457 -0.18211,-0.47458 h -2.60067 -2.60067 l -0.92786,0.5481 -0.92786,0.5481 -0.96835,2.32607 c -0.53259,1.27934 -1.05421,2.7554 -1.15915,3.28013 l -0.19082,0.95405 0.2088,0.83191 0.2088,0.83191 1.02885,0.44696 1.02885,0.44696 1.88524,-0.12834 c 1.03689,-0.0706 1.98931,-0.24478 2.11649,-0.3871 z m -223.23594,0.72749 -0.18444,-0.48065 0.70516,-2.01279 c 2.22759,-6.35844 6.36134,-18.49183 8.04471,-23.6128 1.07031,-3.256 2.13161,-6.352 2.35845,-6.88 0.22685,-0.528 0.87772,-2.4 1.4464,-4.16 l 1.03395,-3.2 1.13716,-1.19716 1.13717,-1.19717 0.97782,-0.16759 c 0.53781,-0.0922 6.66583,-0.21882 13.61783,-0.28144 l 12.64,-0.11385 0.84122,0.42677 c 0.46267,0.23472 0.92595,0.64756 1.0295,0.91741 l 0.18828,0.49065 -1.93282,5.52119 c -1.06305,3.03665 -2.19933,6.38519 -2.52508,7.44119 -0.32575,1.056 -1.11825,3.432 -1.7611,5.28 -0.64285,1.848 -1.43164,4.224 -1.75286,5.28 -0.32123,1.056 -1.81855,5.50922 -3.3274,9.89605 l -2.74336,7.97606 -0.40819,0.25904 -0.40819,0.25905 -4.17884,0.005 -4.17884,0.005 -0.58259,-0.42601 -0.5826,-0.426 1.04753,-3.014 c 0.57615,-1.65769 1.47511,-4.16599 1.99769,-5.57399 0.52258,-1.408 1.18436,-3.39417 1.47061,-4.41371 l 0.52046,-1.8537 -0.47671,-0.3014 -0.47671,-0.30139 -4,-5.3e-4 c -2.2,-2.9e-4 -4.3069,0.0818 -4.68201,0.18249 l -0.682,0.18301 -2.14351,6.29262 c -1.17892,3.46093 -2.28428,6.86861 -2.45634,7.57261 -0.17206,0.704 -0.42039,1.3886 -0.55183,1.52134 l -0.23899,0.24134 -4.86754,0.1721 -4.86755,0.17211 z m 26.78267,-18.37887 c 0.10366,-0.11405 0.94605,-2.58337 1.87198,-5.48737 0.92593,-2.904 2.31712,-7.12683 3.09154,-9.38406 l 1.40802,-4.10405 v -1.23309 -1.23309 l -0.50286,-0.50285 -0.50285,-0.50286 h -3.47259 -3.4726 l -0.93678,0.78825 -0.93679,0.78826 -1.13654,3.29174 c -0.6251,1.81046 -1.42885,4.22775 -1.78611,5.37175 -0.35726,1.144 -1.37931,4.19619 -2.27122,6.78265 -0.89191,2.58646 -1.62166,4.91645 -1.62166,5.17775 v 0.47509 l 0.72,0.13202 c 1.05939,0.19426 9.32804,-0.11761 9.54846,-0.36014 z m 11.9647,18.4502 -0.16627,-0.4333 1.31976,-3.67214 c 1.72898,-4.81073 4.31995,-12.41439 5.12224,-15.03213 0.35062,-1.144 0.81706,-2.44 1.03653,-2.88 l 0.39904,-0.8 19.02777,-0.084 19.02777,-0.084 0.88407,0.36451 0.88407,0.36452 0.17281,0.68854 0.17282,0.68854 -1.23818,3.51095 c -2.28555,6.48087 -3.02089,8.62532 -3.28875,9.59095 -0.14646,0.528 -0.81542,2.544 -1.48657,4.48 l -1.22027,3.52 -3.47904,0.0912 -3.47904,0.0912 -0.76096,-0.4986 -0.76096,-0.49859 v -0.66396 c 0,-0.36517 1.296,-4.49128 2.88,-9.16914 l 2.88,-8.50519 v -0.85389 -0.85388 l -0.56,-0.50542 -0.56,-0.50542 -1.94233,-0.21898 -1.94234,-0.21899 -0.45931,0.45932 -0.45932,0.45931 -2.67692,8.13549 c -1.47231,4.47453 -3.13067,9.2875 -3.68526,10.6955 l -1.00833,2.56 -4.3931,0.089 -4.39309,0.089 v -0.44166 c 0,-0.24291 1.0175,-3.37897 2.26112,-6.96903 2.49171,-7.19303 2.84032,-8.23756 3.64265,-10.91436 l 0.54761,-1.827 -0.20996,-0.66153 -0.20996,-0.66153 -0.74412,-0.48757 -0.74412,-0.48756 -2.03161,0.0961 -2.03161,0.0961 -2.76724,8.16 c -1.52199,4.488 -3.08998,9.20382 -3.48443,10.4796 -0.39446,1.27578 -0.90128,2.57178 -1.12629,2.88 l -0.40909,0.5604 -4.18676,0.10544 -4.18675,0.10543 z m 49.68684,0.0368 -0.56,-0.32617 0.001,-0.8641 10e-4,-0.8641 2.09696,-6.24 c 1.15333,-3.432 2.46927,-7.42005 2.9243,-8.86233 l 0.82735,-2.62233 0.97053,-1.17743 0.97053,-1.17742 1.05366,-0.44025 1.05365,-0.44024 10.81028,0.005 10.81028,0.005 0.8,0.4033 0.8,0.40329 0.10344,0.72104 0.10344,0.72104 -1.19102,3.57435 -1.19103,3.57436 -1.2089,1.29659 -1.20891,1.2966 -7.89072,0.10083 -7.89072,0.10083 -0.58559,1.33917 c -0.32208,0.73654 -0.90478,2.51387 -1.2949,3.94962 l -0.7093,2.61046 0.20196,0.80468 0.20196,0.80468 1.15745,0.38199 1.15746,0.382 1.25488,-0.16832 1.25488,-0.16831 0.80046,-0.52448 0.80045,-0.52448 0.50618,-1.18433 c 0.2784,-0.65139 0.61218,-1.40034 0.74174,-1.66434 l 0.23555,-0.48 4.68562,-0.0886 4.68562,-0.0885 v 0.49883 c 0,1.54286 -1.65534,3.99164 -3.26411,4.82868 l -0.86411,0.4496 -11.29589,-0.01 -11.29589,-0.01 z m 18.18882,-11.9952 0.98882,-0.14897 0.70806,-0.75369 0.70806,-0.7537 0.94196,-2.5214 c 0.51808,-1.38678 0.94248,-2.89026 0.94312,-3.34107 l 10e-4,-0.81966 -0.65247,-0.70034 -0.65246,-0.70034 h -1.76343 -1.76342 l -0.9387,0.48542 -0.93869,0.48541 -0.49528,0.95777 c -0.2724,0.52677 -0.76784,1.78434 -1.10096,2.79458 -0.33313,1.01025 -0.81696,2.40602 -1.07519,3.10171 l -0.46951,1.2649 0.1523,0.39689 c 0.26901,0.70103 1.91818,0.77805 5.40663,0.25249 z m 15.34884,12.0494 -0.18012,-0.29143 1.62478,-4.58857 c 0.89362,-2.52371 1.908,-5.38057 2.25418,-6.34857 0.34617,-0.968 1.35176,-3.95531 2.23465,-6.63847 l 1.60524,-4.87847 0.7018,-0.16879 c 0.386,-0.0928 5.78951,-0.12952 12.00782,-0.0815 l 11.30601,0.0873 0.47184,0.64 0.47184,0.64 -0.18053,0.97699 c -0.0993,0.53735 -0.72283,2.48135 -1.38563,4.32 l -1.2051,3.34301 -3.54438,0.09 -3.54438,0.09 -0.74112,-0.60012 -0.74111,-0.60012 0.85447,-2.7406 0.85448,-2.74061 -0.20984,-0.58931 c -0.11541,-0.32411 -0.42627,-0.8413 -0.6908,-1.1493 l -0.48095,-0.56 h -2.15123 -2.15122 l -0.32592,0.4 c -0.17926,0.22 -1.19973,3.064 -2.26771,6.32 -3.89853,11.88561 -4.57869,13.93359 -4.86213,14.64 l -0.28888,0.72 h -4.62798 -4.62797 z m 41.84031,-27.89859 -0.36679,-0.36679 0.6701,-1.8016 c 0.36856,-0.99087 0.80667,-1.98159 0.97359,-2.20159 l 0.30349,-0.4 h 4.42193 4.42194 l 0.18321,0.29644 0.1832,0.29644 -0.68384,1.86356 c -0.37611,1.02496 -0.78621,1.97651 -0.91133,2.11457 l -0.2275,0.25101 -4.3006,0.15737 -4.30061,0.15737 z m 23.69554,-21.66776 -1.00649,-0.0978 -0.56954,-0.62934 -0.56954,-0.62933 0.73202,-2.23289 0.73203,-2.23289 h 4.63403 4.63403 l -0.21818,1.58639 -0.21819,1.58639 0.81361,0.81361 0.81362,0.81361 h 1.59371 c 0.87654,0 1.95556,-0.13757 2.39781,-0.30572 l 0.80409,-0.30571 0.54527,-0.83219 c 0.2999,-0.4577 0.8828,-1.79613 1.29534,-2.97428 l 0.75008,-2.1421 0.001,-1.15041 10e-4,-1.1504 -0.6584,-0.59584 -0.6584,-0.59585 -6.12424,0.0421 -6.12424,0.0421 -0.89736,-0.46404 -0.89736,-0.46405 v -0.7289 c 0,-0.7305 1.80569,-6.33222 2.56686,-7.96308 l 0.40531,-0.86842 1.2888,-0.89158 1.2888,-0.89158 11.54511,0.075 11.54512,0.075 0.42026,0.56502 0.42026,0.56502 -0.15004,0.8 c -0.16896,0.90094 -0.88379,2.83419 -1.27196,3.44 l -0.2563,0.4 h -3.95494 c -2.17522,0 -4.18549,-0.0885 -4.46728,-0.1966 l -0.51234,-0.19661 0.20257,-1.527 0.20256,-1.527 -0.6764,-0.67639 -0.67639,-0.6764 h -2.06216 -2.06216 l -0.83555,0.72 -0.83555,0.72 -0.94229,2.87787 c -0.51826,1.58283 -0.94229,3.18688 -0.94229,3.56455 v 0.68668 l 0.61114,0.75545 0.61114,0.75545 6.55556,0.098 6.55556,0.098 0.53417,0.59026 0.53418,0.59026 -0.36289,1.39174 c -0.1996,0.76545 -0.86011,2.75973 -1.4678,4.43173 l -1.10491,3.04 -1.16882,0.8 -1.16883,0.8 -10.58425,0.16 c -5.82134,0.088 -11.03717,0.116 -11.59074,0.0622 z m 34.29432,-0.0457 -1.27216,-0.17652 -0.34742,-0.7001 -0.34743,-0.7001 4.86042,-14.6599 4.86042,-14.6599 4.52582,-0.0888 4.52583,-0.0888 0.18148,0.47294 0.18148,0.47293 -0.98814,2.83117 c -0.54347,1.55714 -0.98813,3.06088 -0.98813,3.34165 v 0.5105 l 0.50617,0.19423 c 0.27839,0.10683 2.51039,0.19424 4.96,0.19424 h 4.45382 v 0.4088 c 0,0.22484 -0.22416,0.72884 -0.49814,1.12 l -0.49815,0.7112 h -4.92296 -4.92297 l -0.2272,0.3676 c -0.21565,0.34894 -1.33779,3.64335 -3.7987,11.1524 -0.60564,1.848 -1.19357,3.8865 -1.30651,4.53001 l -0.20534,1.17001 0.66999,0.66999 0.66999,0.66999 h 4 4 v 0.66104 c 0,0.36357 -0.15088,0.94295 -0.33528,1.28751 l -0.33528,0.62647 -8.06472,-0.071 c -4.4356,-0.039 -8.6372,-0.15042 -9.33689,-0.24751 z m 27.03216,-0.10925 -0.8,-0.40329 -0.1051,-0.73369 -0.1051,-0.7337 0.82629,-2.56173 c 0.45446,-1.40895 1.13102,-3.27011 1.50348,-4.13592 l 0.6772,-1.57419 1.16162,-0.72237 1.16161,-0.72238 6.7777,-0.16 6.77769,-0.16 0.87763,-0.65611 0.87763,-0.65611 0.912,-2.22389 c 0.5016,-1.22314 0.99871,-2.82443 1.10468,-3.55843 l 0.19269,-1.33454 -0.86742,-0.86742 -0.86742,-0.86742 -1.84083,0.16692 -1.84082,0.16692 -0.70202,0.43504 -0.70202,0.43504 -0.67262,1.84 -0.67262,1.84 h -4.57824 -4.57823 l -0.19239,-0.31128 -0.19238,-0.31129 0.833,-1.76081 0.83299,-1.76081 1.0205,-0.72791 1.0205,-0.7279 11.4732,-0.0916 11.47319,-0.0916 0.44681,0.37082 0.4468,0.37081 v 1.07435 c 0,0.59088 -0.19299,1.61725 -0.42888,2.28081 -0.23588,0.66356 -0.83129,2.50248 -1.32313,4.08648 -0.49183,1.584 -1.23099,3.75894 -1.64257,4.8332 -0.41157,1.07427 -1.26708,3.66467 -1.90113,5.75645 -0.63405,2.09179 -1.30353,3.98484 -1.48773,4.2068 l -0.33492,0.40355 -11.88082,-0.005 -11.88082,-0.005 z m 15.67746,-1.34421 c 0.18694,-0.22524 0.85882,-1.90208 1.49306,-3.7263 l 1.15318,-3.31676 0.0382,-1.12 0.0381,-1.12 -2.57503,-0.0919 -2.57503,-0.0919 -1.10497,0.74246 -1.10497,0.74246 -0.86899,2.54943 -0.86899,2.54944 -0.011,1.1504 -0.011,1.15041 0.56058,0.50731 0.56058,0.50732 1.43942,0.10228 c 0.79168,0.0562 1.90238,0.0511 2.46821,-0.0114 l 1.02879,-0.1137 z m -202.04571,1.1683 -0.16602,-0.26864 3.69398,-10.85136 c 2.03168,-5.96825 5.2601,-15.52905 7.17425,-21.24623 l 3.48028,-10.39487 0.4598,-0.33622 0.4598,-0.33621 14.34743,0.10877 14.34743,0.10877 0.56566,0.51191 c 0.98236,0.88903 1.23599,0.002 -5.63251,19.70715 -1.61866,4.64386 -2.06097,5.44269 -3.49923,6.31965 l -1.02261,0.62353 -1.97714,0.001 -1.97715,10e-4 -0.49082,0.49082 -0.49082,0.49082 0.29872,0.78571 c 0.1643,0.43214 0.52844,2.11927 0.8092,3.74918 0.28076,1.62991 0.73605,4.25947 1.01177,5.84347 0.27571,1.584 0.51816,3.312 0.53877,3.84 l 0.0375,0.96 h -4.70931 -4.70931 l -0.50701,-0.50775 -0.507,-0.50774 -0.61161,-3.97226 c -0.33638,-2.18474 -0.85271,-5.44695 -1.1474,-7.24935 l -0.53579,-3.2771 -0.43935,-0.36462 -0.43934,-0.36463 -1.32306,0.17746 -1.32306,0.17746 -0.24503,0.39647 c -0.13477,0.21806 -0.85312,2.28098 -1.59635,4.58426 -0.74322,2.30329 -1.68046,5.05998 -2.08275,6.12597 -0.40229,1.066 -0.83193,2.4739 -0.95477,3.12867 l -0.22334,1.1905 -0.58172,0.31133 -0.58173,0.31133 h -4.64215 -4.64215 z m 26.19728,-18.9799 0.87533,-0.68853 0.55856,-1.31147 c 0.30721,-0.7213 1.73273,-4.78695 3.16783,-9.03477 l 2.60926,-7.72332 v -1.05149 -1.05149 l -0.5296,-0.58519 -0.52959,-0.5852 h -3.90081 -3.90081 l -0.46235,0.56 c -0.25429,0.308 -1.00746,2.288 -1.67371,4.4 -0.66625,2.112 -1.35971,4.2 -1.54102,4.64 -0.1813,0.44 -1.18284,3.3847 -2.22564,6.54378 l -1.89599,5.74378 0.15971,0.41622 0.15972,0.41622 h 4.12689 4.12689 z m 13.72446,18.4897 -0.90879,-0.78171 0.85527,-2.50973 c 6.03478,-17.70859 6.00675,-17.64074 7.71743,-18.6838 l 1.02261,-0.62353 11.44,-10e-4 11.44,-10e-4 0.64,0.64 c 0.82087,0.82087 0.80774,1.07913 -0.18918,3.7219 -0.45605,1.20895 -1.04909,2.8461 -1.31786,3.6381 -0.26878,0.792 -0.75779,1.81962 -1.0867,2.2836 l -0.59801,0.84361 -1.2906,0.51639 -1.2906,0.5164 h -6.99435 -6.99434 l -0.308,0.4 c -0.4643,0.60299 -2.33036,6.4852 -2.33036,7.34578 v 0.75181 l 0.49814,0.71121 0.49815,0.7112 h 1.91774 1.91775 l 0.91504,-0.47319 0.91504,-0.47318 0.56196,-1.52682 c 0.30908,-0.83974 0.68384,-1.66529 0.83281,-1.83455 l 0.27085,-0.30774 4.38996,0.0774 4.38995,0.0774 0.2941,0.29409 0.29409,0.29409 -0.92779,1.84191 -0.92779,1.84191 -0.90298,0.6543 -0.90299,0.6543 -11.46588,0.0914 -11.46588,0.0914 z m 18.91794,-11.85696 1.09087,-0.45579 0.61476,-1.22421 c 0.33812,-0.67331 0.93655,-2.20283 1.32985,-3.39893 l 0.71508,-2.17474 -0.19563,-0.77944 -0.19562,-0.77945 -0.93948,-0.48582 -0.93947,-0.48582 h -1.44476 -1.44475 l -1.12768,0.99012 -1.12769,0.99011 -0.4493,1.48989 c -0.24712,0.81943 -0.75267,2.25121 -1.12346,3.18173 l -0.67414,1.69184 v 0.94816 0.94815 h 2.41028 2.41027 z m 20.32858,1.29498 v -11.32082 l 0.44307,-0.36771 0.44307,-0.36772 4.91693,0.0885 4.91693,0.0885 0.029,2.76726 c 0.016,1.522 -0.0819,4.402 -0.21744,6.4 -0.48288,7.11788 -0.5449,8.61852 -0.38196,9.2416 l 0.16504,0.63114 h 0.3825 c 0.21038,0 0.67317,-0.396 1.02842,-0.88 1.41293,-1.92496 6.15498,-9.02638 7.63919,-11.44 0.86582,-1.408 2.2745,-3.532 3.13041,-4.72 l 1.55619,-2.16 h 1.39544 1.39544 l 0.17452,0.28239 0.17453,0.28238 -0.63564,0.80809 c -0.34961,0.44445 -0.63564,0.895 -0.63564,1.00123 0,0.17405 -0.82289,1.39798 -3.64696,5.42432 -1.85144,2.63964 -4.20352,6.03413 -4.64938,6.70992 -2.64002,4.00148 -4.45319,6.6563 -5.22589,7.65167 l -0.93155,1.2 h -5.73311 -5.73311 z m 27.08959,10.73562 c -0.78669,-0.86928 -0.90032,-0.39903 2.44908,-10.1348 0.78714,-2.288 1.67114,-4.952 1.96444,-5.92 0.84264,-2.78101 2.20484,-6.21789 2.5664,-6.4751 l 0.33049,-0.2351 4.22111,-0.005 4.22112,-0.005 0.18752,0.30342 0.18752,0.30342 -0.67726,1.85658 c -0.37249,1.02112 -0.79748,2.28858 -0.94441,2.81658 -0.61692,2.21678 -5.88049,17.3132 -6.16438,17.68 l -0.30959,0.4 h -3.75122 -3.75122 z m 11.87041,-27.49359 -3.44,-0.10286 0.005,-0.38918 c 0.003,-0.21404 0.2742,-1.25317 0.60357,-2.30917 l 0.59885,-1.92 4.83643,-0.0883 4.83644,-0.0883 v 0.43824 c 0,0.80199 -1.28357,4.18276 -1.68482,4.43762 -0.21735,0.13805 -0.82718,0.22263 -1.35518,0.18795 -0.528,-0.0347 -2.508,-0.10935 -4.4,-0.16593 z"
       id="path70" /><path
       style="fill:#ffffff;fill-opacity:1;stroke:none;stroke-width:0.8;stroke-linejoin:bevel;stroke-dasharray:none;stroke-opacity:0.316505"
       d="m 432.01701,-622.60828 c -2.5405,-0.19506 -3.2855,-0.69631 -3.06824,-2.06437 0.0854,-0.53778 1.39051,-4.57779 2.90023,-8.97779 1.50972,-4.4 2.74833,-8.38005 2.75247,-8.84455 0.0138,-1.5478 -0.85776,-2.13259 -3.52718,-2.36666 -1.99332,-0.17479 -2.48826,-0.1231 -2.83629,0.29625 -0.23188,0.2794 -2.02637,5.29757 -3.98776,11.15148 l -3.56616,10.64348 -4.45216,0.0894 c -2.44869,0.0492 -4.57587,-0.0343 -4.72708,-0.18553 -0.15322,-0.15322 0.37638,-2.10508 1.19641,-4.40939 0.80923,-2.27395 1.94728,-5.57447 2.529,-7.33447 0.58172,-1.76 1.21267,-3.56 1.40213,-4 0.18945,-0.44 0.73107,-2.096 1.20359,-3.68 0.47252,-1.584 1.00139,-3.06 1.17526,-3.28 0.24293,-0.30739 3.12222,-0.4 12.43694,-0.4 11.69415,0 12.14334,0.0225 12.76082,0.64 0.352,0.352 0.63964,0.748 0.6392,0.88 -4.3e-4,0.132 -1.16346,3.696 -2.58451,7.92 -1.42105,4.224 -2.92561,8.89179 -3.34349,10.37286 -0.41787,1.48106 -0.94684,2.86886 -1.17548,3.08399 -0.51378,0.48341 -2.93268,0.67992 -5.7277,0.46532 z m 26.77263,0.0779 c -14.24755,-0.10937 -13.50357,0.21923 -11.72472,-5.17869 1.20274,-3.64968 1.65883,-4.50463 3.05885,-5.73387 0.92328,-0.81065 1.44229,-1.01278 2.65635,-1.03449 0.82988,-0.0148 3.81287,-0.0544 6.62886,-0.0879 3.6864,-0.0438 5.37359,-0.18834 6.02567,-0.51607 0.98443,-0.49477 1.76927,-1.83183 2.54114,-4.32907 0.87466,-2.82982 0.90652,-3.55131 0.19671,-4.4537 -0.57691,-0.73343 -0.87838,-0.8263 -2.68219,-0.8263 -1.7136,0 -2.18488,0.12846 -3.00589,0.81929 -0.58043,0.4884 -1.05621,1.25924 -1.17803,1.9086 -0.11239,0.59912 -0.36929,1.21954 -0.57088,1.37871 -0.37997,0.30002 -7.61901,0.6832 -8.60652,0.45556 -0.73539,-0.16951 -0.70644,-0.73761 0.12805,-2.51291 0.43246,-0.92001 1.16673,-1.78054 1.97663,-2.31651 l 1.28858,-0.85274 11.10227,0.007 c 9.01651,0.006 11.20327,0.0905 11.63985,0.45287 0.7288,0.60484 0.54312,2.44752 -0.53409,5.30042 -1.30298,3.45084 -2.59379,7.2332 -4.23228,12.40154 -1.41373,4.45939 -2.02308,5.5513 -2.94798,5.28263 -0.14357,-0.0417 -5.43574,-0.11555 -11.76038,-0.1641 z m 3.60154,-1.31757 c 0.23221,-0.14724 1.04202,-2.05303 1.79958,-4.2351 0.75756,-2.18207 1.48221,-4.21739 1.61033,-4.52295 0.31724,-0.75655 -0.9293,-1.20444 -3.35211,-1.20444 -3.4781,0 -4.05517,0.49197 -5.41621,4.61752 -1.08214,3.28017 -1.06477,4.34532 0.084,5.14994 0.73744,0.51653 4.54534,0.65733 5.27443,0.19503 z m -135.62219,0.82722 c -1.02187,-0.51644 -1.20517,-2.03817 -0.465,-3.8602 0.29705,-0.73123 1.87748,-5.26379 3.51205,-10.07235 1.63458,-4.80857 3.05426,-8.82515 3.15486,-8.92574 0.21062,-0.21062 8.90813,-0.12804 9.12279,0.0866 0.14995,0.14995 -0.89123,3.58848 -2.46536,8.14196 -0.51717,1.496 -1.77585,5.27318 -2.79707,8.39374 -1.02122,3.12055 -1.939,5.80191 -2.03952,5.95857 -0.32062,0.49971 -7.11783,0.73474 -8.02275,0.27741 z m 17.60046,10e-4 c -0.85071,-0.22068 -0.96041,-0.38523 -0.96002,-1.44 2.4e-4,-0.65497 1.08558,-4.35885 2.41185,-8.23085 1.32628,-3.872 2.69493,-7.92401 3.04144,-9.00446 0.69134,-2.15562 2.58656,-4.24641 3.90719,-4.31036 0.39549,-0.0191 5.61461,-0.007 11.59803,0.0263 7.52403,0.0423 11.01313,0.17252 11.31404,0.42225 0.58586,0.48622 0.33656,3.41665 -0.38425,4.51675 -0.54239,0.82779 -0.55266,0.82948 -5.06069,0.82948 h -4.5172 l 0.19263,-1.62649 c 0.1717,-1.44966 0.10454,-1.71458 -0.61772,-2.43685 -0.72739,-0.72739 -1.00625,-0.79619 -2.72344,-0.67198 -3.04843,0.2205 -3.25685,0.55275 -6.52032,10.39428 -1.78513,5.38335 -2.70369,8.61461 -2.56928,9.0381 0.39563,1.24654 1.08998,1.62301 2.99013,1.62125 2.49877,-0.002 3.54299,-0.69247 4.38463,-2.89793 l 0.66416,-1.74038 h 4.62418 4.62418 l -0.0492,1.05832 c -0.0271,0.58207 -0.43528,1.61547 -0.90719,2.29644 -1.56455,2.25765 -1.77122,2.2929 -13.78865,2.35234 -5.88173,0.0291 -11.12626,-0.0592 -11.65452,-0.19625 z m 35.79456,0.16177 c -0.95642,-0.0675 -1.68298,-0.32361 -2.04126,-0.71951 -0.63081,-0.69703 -0.55242,-1.11845 1.04038,-5.59311 1.09753,-3.08333 1.73887,-4.1028 3.11674,-4.95436 0.9605,-0.59363 1.5837,-0.64564 7.73569,-0.64564 8.25644,0 8.11919,0.0671 9.73634,-4.76364 1.25071,-3.73615 0.71954,-5.18414 -1.97496,-5.38378 -2.54719,-0.18872 -3.77688,0.54584 -4.66627,2.78742 l -0.69832,1.76 -4.39629,0.0894 c -2.41797,0.0492 -4.51286,-0.0272 -4.65532,-0.16963 -0.40647,-0.40647 0.30869,-2.51988 1.21866,-3.60131 1.61561,-1.92004 1.60428,-1.91845 13.62249,-1.91845 11.91816,0 12.4071,0.0689 12.4071,1.74941 0,0.41421 -0.79701,3.03405 -1.77113,5.82185 -0.97412,2.78781 -1.98832,5.85558 -2.25379,6.81728 -0.78181,2.83229 -2.4142,7.47364 -2.90441,8.25806 l -0.45407,0.7266 -10.7883,-0.0779 c -5.93357,-0.0428 -11.45654,-0.12504 -12.27328,-0.1827 z m 14.12671,-1.25386 c 0.50782,-0.56823 3.25052,-8.78102 3.08047,-9.22418 -0.14029,-0.36557 -0.77948,-0.47458 -2.78279,-0.47458 -3.51056,0 -4.17438,0.41878 -5.42474,3.42227 -1.69395,4.06907 -1.67102,5.57711 0.0965,6.34496 1.07123,0.46537 4.59637,0.41739 5.03058,-0.0685 z m -223.23594,0.72748 c -0.10144,-0.26435 0.13288,-1.3864 0.52072,-2.49344 2.22759,-6.35844 6.36134,-18.49183 8.04471,-23.6128 1.07031,-3.256 2.13161,-6.352 2.35845,-6.88 0.22685,-0.528 0.87772,-2.4 1.4464,-4.16 1.15814,-3.58437 2.55758,-5.46566 4.2861,-5.76192 0.53781,-0.0922 6.66583,-0.21882 13.61783,-0.28144 13.16209,-0.11855 14.02106,-0.0457 14.51072,1.23034 0.10356,0.26985 -0.68149,2.97518 -1.74454,6.01183 -1.06305,3.03665 -2.19933,6.38519 -2.52508,7.44119 -0.32575,1.056 -1.11825,3.432 -1.7611,5.28 -0.64285,1.848 -1.43164,4.224 -1.75286,5.28 -1.58749,5.21876 -6.12022,17.90349 -6.47895,18.13115 -0.2245,0.14248 -2.28867,0.26125 -4.58703,0.26395 -5.69413,0.007 -5.65347,0.0432 -4.2965,-3.86111 0.57615,-1.65769 1.47511,-4.16599 1.99769,-5.57399 0.52258,-1.408 1.18436,-3.39417 1.47061,-4.41371 0.45932,-1.63593 0.46446,-1.88911 0.0437,-2.1551 -0.51284,-0.32423 -8.03023,-0.42226 -9.15872,-0.11943 -0.56229,0.15089 -1.05827,1.2876 -2.82551,6.47563 -1.17892,3.46093 -2.28428,6.86861 -2.45634,7.57261 -0.17206,0.704 -0.42039,1.3886 -0.55183,1.52134 -0.13145,0.13274 -2.42939,0.31879 -5.10654,0.41344 -4.14265,0.14648 -4.89501,0.10053 -5.05198,-0.30854 z m 26.78267,-18.37883 c 0.10366,-0.11405 0.94605,-2.58337 1.87198,-5.48737 0.92593,-2.904 2.31712,-7.12683 3.09154,-9.38406 0.77441,-2.25723 1.40802,-4.65894 1.40802,-5.33714 0,-1.99476 -0.48816,-2.2388 -4.4783,-2.2388 -3.22344,0 -3.53981,0.0566 -4.40938,0.78825 -0.9159,0.77068 -1.90452,3.19182 -3.85944,9.45175 -0.35726,1.144 -1.37931,4.19619 -2.27122,6.78265 -0.89191,2.58646 -1.62166,4.91645 -1.62166,5.17775 0,0.2613 0.324,0.5345 0.72,0.60711 1.05939,0.19427 9.32804,-0.11761 9.54846,-0.36014 z m 11.9647,18.4502 c -0.0914,-0.23832 0.42762,-2.08576 1.15349,-4.10544 1.72898,-4.81073 4.31995,-12.41439 5.12224,-15.03213 0.35062,-1.144 0.81706,-2.44 1.03653,-2.88 l 0.39904,-0.8 19.02777,-0.084 c 20.02105,-0.0884 20.62142,-0.0502 20.96872,1.33356 0.0974,0.38811 -0.36745,2.22052 -1.06536,4.1995 -2.28555,6.48087 -3.02089,8.62532 -3.28875,9.59094 -0.14646,0.528 -0.81542,2.544 -1.48657,4.48 l -1.22027,3.52 -3.47904,0.0912 c -3.79039,0.0994 -5.00096,-0.28064 -5.00096,-1.56992 0,-0.36518 1.296,-4.49129 2.88,-9.16915 1.584,-4.67785 2.88,-8.88944 2.88,-9.35907 0,-1.24542 -0.86849,-1.83637 -3.06233,-2.08371 -1.48702,-0.16765 -2.05001,-0.11131 -2.40165,0.24033 -0.25262,0.25262 -1.66393,4.12029 -3.13624,8.59481 -1.47231,4.47452 -3.13067,9.28749 -3.68526,10.69549 l -1.00833,2.56 -4.3931,0.089 c -3.56514,0.0722 -4.39309,0.006 -4.39309,-0.35263 0,-0.24291 1.0175,-3.37897 2.26112,-6.96903 4.63257,-13.37324 4.65568,-13.48432 3.02622,-14.55198 -0.51875,-0.3399 -1.35942,-0.45847 -2.77573,-0.39148 l -2.03161,0.0961 -2.76724,8.16 c -1.52199,4.488 -3.08998,9.20382 -3.48443,10.4796 -1.10181,3.56359 -0.87623,3.4238 -5.72214,3.54584 -3.29979,0.0831 -4.22198,0.0136 -4.35303,-0.32787 z m 49.68684,0.0368 c -0.89823,-0.52317 -0.68375,-1.67879 1.53942,-8.29437 1.15333,-3.432 2.46927,-7.42005 2.92431,-8.86233 0.92057,-2.91784 2.20837,-4.74318 3.82206,-5.41742 0.82456,-0.34453 3.40406,-0.43922 11.86393,-0.43553 11.51451,0.005 12.30856,0.10226 12.51372,1.53234 0.0569,0.39657 -0.43252,2.3295 -1.08758,4.29539 -0.92272,2.76916 -1.46336,3.86645 -2.39993,4.87096 l -1.20891,1.29659 -7.89072,0.10083 -7.89071,0.10083 -0.5856,1.33917 c -0.97408,2.2276 -2.01944,6.49938 -1.80224,7.36476 0.38326,1.52703 3.92084,1.95659 5.82709,0.70756 0.44025,-0.28846 1.02823,-1.05743 1.30663,-1.70881 0.2784,-0.65139 0.61218,-1.40034 0.74174,-1.66434 0.19027,-0.38772 1.1364,-0.49702 4.92117,-0.56855 4.06815,-0.0769 4.68562,-0.0228 4.68562,0.41027 0,0.81012 -0.93594,2.81106 -1.69527,3.62432 -1.53374,1.64265 -1.6339,1.65465 -13.72884,1.64423 -7.07527,-0.006 -11.50513,-0.1316 -11.85589,-0.3359 z m 18.18882,-11.9952 c 1.40509,-0.21168 2.26731,-1.28795 3.3469,-4.17776 1.11371,-2.98115 1.16998,-3.91847 0.29181,-4.86107 -0.51873,-0.55679 -1.0139,-0.70034 -2.41589,-0.70034 -3.04522,0 -3.94811,0.8143 -5.23705,4.72319 -0.33312,1.01024 -0.81696,2.40601 -1.07519,3.1017 -0.52256,1.40781 -0.42523,1.98979 0.36785,2.19965 0.52816,0.13976 2.81862,10e-4 4.72157,-0.28537 z m 15.34884,12.0494 c -0.15515,-0.25103 0.683,-2.79539 3.69884,-11.22857 0.34617,-0.968 1.35176,-3.95531 2.23465,-6.63847 1.34151,-4.07695 1.72055,-4.9062 2.30705,-5.04726 0.38599,-0.0928 5.7895,-0.12952 12.00781,-0.0815 14.08375,0.1087 13.23708,-0.41944 10.68353,6.66425 l -1.20509,3.34301 -3.54439,0.09 c -3.07294,0.0781 -3.64296,0.0102 -4.2855,-0.51009 l -0.74111,-0.60012 0.85447,-2.74061 c 0.85642,-2.74681 0.84931,-3.43658 -0.0462,-4.47921 -0.59071,-0.68779 -4.57754,-0.81264 -5.10932,-0.16 -0.17926,0.22 -1.19973,3.064 -2.26771,6.32 -3.89853,11.8856 -4.57869,13.93359 -4.86212,14.64 -0.28093,0.70016 -0.41641,0.72 -4.91686,0.72 -2.54539,0 -4.70903,-0.13115 -4.80809,-0.29143 z m 41.84031,-27.89859 c -0.27571,-0.27572 -0.2004,-0.81411 0.30331,-2.16839 0.36856,-0.99087 0.80667,-1.98159 0.97359,-2.20159 0.3642,-0.48002 9.0384,-0.57629 9.33057,-0.10356 0.18144,0.29358 -0.97389,3.7912 -1.41197,4.27457 -0.39213,0.43266 -8.7803,0.61416 -9.1955,0.19897 z m 23.69554,-21.66766 c -0.55357,-0.0538 -1.26279,-0.38097 -1.57603,-0.72711 -0.54725,-0.6047 -0.54089,-0.71672 0.16248,-2.86222 l 0.73203,-2.23289 h 4.63403 4.63403 l -0.21818,1.58639 c -0.19595,1.42473 -0.13527,1.6693 0.59543,2.4 0.65366,0.65366 1.12692,0.81361 2.40732,0.81361 2.99078,0 3.71894,-0.63796 5.04251,-4.4179 0.94349,-2.69447 0.97255,-4.2441 0.0945,-5.03875 -0.59761,-0.54083 -1.2239,-0.59196 -6.78264,-0.55377 -6.71484,0.0461 -7.91896,-0.19943 -7.91896,-1.61492 0,-0.73049 1.80569,-6.33222 2.56686,-7.96308 0.22292,-0.47763 0.98527,-1.26963 1.69411,-1.76 l 1.2888,-0.89158 11.54511,0.075 c 10.61102,0.0689 11.57912,0.12069 11.96538,0.64 0.54087,0.72717 0.0247,3.20304 -1.00174,4.80502 -0.2704,0.42201 -7.65764,0.59515 -8.67852,0.2034 -0.4128,-0.15841 -0.47298,-0.49327 -0.30977,-1.72361 0.29457,-2.22058 -0.44077,-2.87979 -3.21239,-2.87979 -2.82022,0 -3.45315,0.58451 -4.67555,4.31787 -1.10727,3.38172 -1.14796,3.99699 -0.33115,5.00668 0.60113,0.74308 0.71851,0.75706 7.1667,0.85346 8.73173,0.13054 8.45177,-0.21267 5.79322,7.10199 -0.93334,2.56795 -1.2864,3.16422 -2.27373,3.84 l -1.16883,0.8 -10.58425,0.16 c -5.82134,0.088 -11.03717,0.116 -11.59074,0.0622 z m 34.29432,-0.0457 c -2.42998,-0.33718 -2.49042,0.002 2.89341,-16.23662 l 4.86042,-14.6599 4.52582,-0.0888 c 3.75495,-0.0737 4.55674,-0.008 4.70731,0.38411 0.0998,0.26011 -0.26318,1.74696 -0.80666,3.3041 -1.1254,3.22445 -1.1909,3.77434 -0.48196,4.04638 0.27839,0.10683 2.51039,0.19424 4.96,0.19424 4.75232,0 4.96808,0.0834 3.95568,1.5288 -0.47806,0.68253 -0.69661,0.7112 -5.42111,0.7112 -3.36182,0 -4.99502,0.11657 -5.15017,0.36761 -0.12495,0.20218 -0.78302,2.03818 -1.46236,4.08 -4.14658,12.4628 -4.14873,12.47188 -3.1782,13.4424 0.60852,0.60852 1.03698,0.66999 4.66999,0.66999 3.8291,0 4,0.0282 4,0.66104 0,0.36357 -0.15088,0.94295 -0.33528,1.28751 -0.32085,0.59951 -0.68236,0.62342 -8.4,0.55548 -4.4356,-0.039 -8.6372,-0.15042 -9.33689,-0.24751 z m 27.03217,-0.10925 c -1.10563,-0.55736 -1.14303,-1.45886 -0.18392,-4.4324 1.40509,-4.3562 2.07416,-5.64387 3.3423,-6.43249 1.0847,-0.67455 1.61042,-0.73297 7.93931,-0.88238 6.19264,-0.14619 6.85345,-0.21664 7.65532,-0.81611 0.97826,-0.73134 2.58701,-4.31002 2.89431,-6.43843 0.16765,-1.16115 0.08,-1.44724 -0.67473,-2.20196 -0.79436,-0.79436 -1.02246,-0.85336 -2.70824,-0.7005 -2.47094,0.22406 -3.12266,0.70268 -3.91749,2.877 l -0.67262,1.84 h -4.57824 c -2.62151,0 -4.66046,-0.13304 -4.77062,-0.31128 -0.34141,-0.55241 1.43909,-3.80828 2.49411,-4.56081 1.00969,-0.7202 1.14211,-0.72888 12.4937,-0.81954 8.3462,-0.0667 11.59497,0.009 11.92,0.27918 0.56535,0.4692 0.5735,2.16309 0.0179,3.72597 -0.23589,0.66357 -0.8313,2.50248 -1.32314,4.08648 -0.49183,1.584 -1.23099,3.75894 -1.64257,4.83321 -0.41157,1.07426 -1.26708,3.66466 -1.90113,5.75645 -0.63405,2.09178 -1.30353,3.98484 -1.48773,4.20679 -0.48367,0.58278 -23.73931,0.57421 -24.89655,-0.009 z m 15.67745,-1.3442 c 0.57793,-0.69636 2.64408,-6.97939 2.6844,-8.16307 l 0.0381,-1.12 -2.57504,-0.0919 c -3.61905,-0.12915 -4.46787,0.46272 -5.65395,3.94246 -1.02199,2.99827 -1.12325,4.64007 -0.33044,5.35756 0.93515,0.84629 5.15179,0.90043 5.83688,0.0749 z m -202.04571,1.16829 c -0.0913,-0.14775 1.49627,-5.15175 3.52796,-11.12 2.03169,-5.96825 5.2601,-15.52905 7.17425,-21.24623 1.91415,-5.71718 3.68719,-10.54616 3.94008,-10.73107 0.31048,-0.22703 5.11919,-0.30089 14.80723,-0.22745 17.3411,0.13147 16.24049,-0.20934 14.7048,4.55339 -0.42561,1.32 -1.49907,4.488 -2.38546,7.04 -5.09173,14.65957 -4.80385,13.99671 -6.53799,15.05408 -0.72145,0.4399 -1.60487,0.62388 -2.99975,0.62472 -2.34815,10e-4 -3.13343,0.52352 -2.66007,1.76855 0.1643,0.43214 0.52844,2.11927 0.8092,3.74918 0.28076,1.62991 0.73606,4.25947 1.01177,5.84347 0.27571,1.584 0.51816,3.312 0.53877,3.84 l 0.0375,0.96 h -4.70931 c -3.87407,0 -4.79923,-0.0901 -5.21632,-0.50774 -0.32051,-0.32099 -0.73197,-1.96884 -1.11861,-4.48 -1.33155,-8.64823 -1.70038,-10.54072 -2.12254,-10.89108 -0.54328,-0.45089 -2.98827,-0.16696 -3.33049,0.38676 -0.13477,0.21806 -0.85312,2.28098 -1.59635,4.58427 -0.74322,2.30328 -1.68046,5.05997 -2.08275,6.12596 -0.40229,1.066 -0.83193,2.4739 -0.95477,3.12868 -0.12284,0.65477 -0.48511,1.33059 -0.80506,1.50182 -0.71023,0.38011 -9.79962,0.41879 -10.03206,0.0427 z m 26.19728,-18.9799 c 0.48143,-0.37869 1.12669,-1.27869 1.43389,-2 1.30936,-3.07429 5.77709,-16.84738 5.77709,-17.80958 0,-1.96648 -0.57015,-2.22188 -4.96,-2.22188 -3.32559,0 -3.96899,0.0826 -4.36315,0.56 -0.25429,0.308 -1.00747,2.288 -1.67372,4.4 -0.66625,2.112 -1.35971,4.2 -1.54102,4.64 -1.00905,2.44881 -4.09726,12.35107 -3.96191,12.70378 0.11967,0.31185 1.19451,0.41622 4.2866,0.41622 3.73932,0 4.2091,-0.0647 5.00222,-0.68854 z m 13.72446,18.4897 -0.90879,-0.78171 0.85527,-2.50973 c 3.9802,-11.67958 5.74398,-16.60911 6.18178,-17.27729 0.28217,-0.43064 0.97321,-1.06357 1.53565,-1.40651 0.96315,-0.58728 1.68774,-0.6236 12.46261,-0.62472 11.01417,-10e-4 11.46382,0.0226 12.08,0.6388 0.82087,0.82087 0.80774,1.07913 -0.18918,3.7219 -0.45605,1.20896 -1.04909,2.8461 -1.31786,3.6381 -1.30767,3.85333 -2.13778,4.16 -11.26025,4.16 -5.21788,0 -7.07257,0.10159 -7.30234,0.4 -0.4643,0.60299 -2.33037,6.4852 -2.33037,7.34578 0,0.4135 0.22417,1.07186 0.49814,1.46302 0.42055,0.60041 0.79691,0.7112 2.4159,0.7112 2.60606,0 3.61196,-0.57724 4.30978,-2.47318 0.30908,-0.83975 0.68384,-1.6653 0.83281,-1.83456 0.34301,-0.38972 8.94389,-0.25974 9.34486,0.14123 0.43141,0.43141 -1.3889,3.85286 -2.46447,4.63221 -0.86348,0.62568 -1.40461,0.6583 -12.36886,0.74574 l -11.46588,0.0914 z m 18.91794,-11.85695 c 1.22373,-0.51131 1.91254,-1.66382 3.03548,-5.07894 0.41427,-1.25989 0.63279,-2.50263 0.51946,-2.95418 -0.25666,-1.02259 -1.7208,-1.75109 -3.51933,-1.75109 -1.90267,0 -3.50774,1.3423 -4.14943,3.47012 -0.24712,0.81943 -0.75267,2.25121 -1.12345,3.18173 -0.37078,0.93051 -0.67415,2.11851 -0.67415,2.64 v 0.94815 h 2.41028 c 1.36167,0 2.88487,-0.1983 3.50114,-0.45579 z m 20.32858,1.29497 c 0,-9.2532 0.0809,-11.38797 0.44307,-11.68853 0.30221,-0.25082 2.00624,-0.33957 5.36,-0.27918 l 4.91693,0.0885 0.029,2.76727 c 0.016,1.52199 -0.0819,4.40199 -0.21745,6.4 -0.62658,9.236 -0.6159,9.87273 0.16558,9.87273 0.21038,0 0.67317,-0.396 1.02842,-0.88 1.41293,-1.92496 6.15498,-9.02638 7.63919,-11.44 0.86582,-1.408 2.27451,-3.532 3.13041,-4.72 1.51191,-2.09854 1.59589,-2.16 2.95163,-2.16 1.69224,0 1.94378,0.31142 1.10885,1.37286 -0.3496,0.44445 -0.63564,0.895 -0.63564,1.00123 0,0.17405 -0.82289,1.39798 -3.64696,5.42432 -1.85144,2.63964 -4.20352,6.03413 -4.64938,6.70992 -2.64002,4.00148 -4.45319,6.6563 -5.22589,7.65167 l -0.93155,1.2 h -5.73311 -5.73311 z m 27.08959,10.73562 c -0.29127,-0.32185 -0.52959,-0.7494 -0.52959,-0.95011 0,-0.39488 0.74477,-2.69136 2.97867,-9.18469 0.78715,-2.288 1.67114,-4.952 1.96444,-5.92 0.84264,-2.78101 2.20484,-6.21789 2.5664,-6.4751 0.49037,-0.34884 8.74178,-0.29495 8.96024,0.0585 0.10314,0.16688 -0.11724,1.13888 -0.48973,2.16 -0.3725,1.02112 -0.79748,2.28858 -0.94442,2.81658 -0.61692,2.21678 -5.88049,17.31321 -6.16438,17.68 -0.21644,0.27965 -1.43828,0.4 -4.06081,0.4 -3.22772,0 -3.82513,-0.0817 -4.28082,-0.5852 z m 11.87041,-27.49359 c -2.43461,-0.0728 -3.43862,-0.2166 -3.43529,-0.49204 0.003,-0.21404 0.2742,-1.25317 0.60357,-2.30917 l 0.59885,-1.92 4.83644,-0.0883 c 5.48332,-0.10014 5.20325,-0.27804 4.19161,2.66233 -0.72596,2.11006 -1.02917,2.40288 -2.39518,2.31315 -0.528,-0.0347 -2.508,-0.10935 -4.4,-0.16593 z"
       id="path11" /></g></svg>
