<?xml version="1.0" encoding="UTF-8" standalone="no"?>
<!-- Created with Inkscape (http://www.inkscape.org/) -->

<svg
   width="109.2mm"
   height="109.2mm"
   viewBox="0 0 109.19999 109.2"
   version="1.1"
   id="svg1"
   xml:space="preserve"
   xmlns="http://www.w3.org/2000/svg"
   xmlns:svg="http://www.w3.org/2000/svg"><defs
     id="defs1"><filter
       style="color-interpolation-filters:sRGB"
       id="filter28"
       x="0"
       y="0"
       width="1"
       height="1"><feColorMatrix
         type="hueRotate"
         values="180"
         result="color1"
         id="feColorMatrix27" /><feColorMatrix
         values="-1 0 0 0 1 0 -1 0 0 1 0 0 -1 0 1 -0.21 -0.72 -0.07 2 0 "
         result="fbSourceGraphic"
         id="feColorMatrix28" /><feColorMatrix
         result="fbSourceGraphicAlpha"
         in="fbSourceGraphic"
         values="0 0 0 -1 0 0 0 0 -1 0 0 0 0 -1 0 0 0 0 1 0"
         id="feColorMatrix31" /><feColorMatrix
         id="feColorMatrix32"
         type="hueRotate"
         values="180"
         result="color1"
         in="fbSourceGraphic" /><feColorMatrix
         id="feColorMatrix33"
         values="-1 0 0 0 1 0 -1 0 0 1 0 0 -1 0 1 -0.21 -0.72 -0.07 2 0 "
         result="fbSourceGraphic" /><feColorMatrix
         result="fbSourceGraphicAlpha"
         in="fbSourceGraphic"
         values="0 0 0 -1 0 0 0 0 -1 0 0 0 0 -1 0 0 0 0 1 0"
         id="feColorMatrix37" /><feColorMatrix
         id="feColorMatrix38"
         type="hueRotate"
         values="180"
         result="color1"
         in="fbSourceGraphic" /><feColorMatrix
         id="feColorMatrix39"
         values="-1 0 0 0 1 0 -1 0 0 1 0 0 -1 0 1 -0.21 -0.72 -0.07 2 0 "
         result="color2" /></filter><filter
       style="color-interpolation-filters:sRGB"
       id="filter30"
       x="0"
       y="0"
       width="1"
       height="1"><feColorMatrix
         type="hueRotate"
         values="180"
         result="color1"
         id="feColorMatrix29" /><feColorMatrix
         values="-1 0 0 0 1 0 -1 0 0 1 0 0 -1 0 1 -0.21 -0.72 -0.07 2 0 "
         result="fbSourceGraphic"
         id="feColorMatrix30" /><feColorMatrix
         result="fbSourceGraphicAlpha"
         in="fbSourceGraphic"
         values="0 0 0 -1 0 0 0 0 -1 0 0 0 0 -1 0 0 0 0 1 0"
         id="feColorMatrix34" /><feColorMatrix
         id="feColorMatrix35"
         type="hueRotate"
         values="180"
         result="color1"
         in="fbSourceGraphic" /><feColorMatrix
         id="feColorMatrix36"
         values="-1 0 0 0 1 0 -1 0 0 1 0 0 -1 0 1 -0.21 -0.72 -0.07 2 0 "
         result="fbSourceGraphic" /><feColorMatrix
         result="fbSourceGraphicAlpha"
         in="fbSourceGraphic"
         values="0 0 0 -1 0 0 0 0 -1 0 0 0 0 -1 0 0 0 0 1 0"
         id="feColorMatrix40" /><feColorMatrix
         id="feColorMatrix41"
         type="hueRotate"
         values="180"
         result="color1"
         in="fbSourceGraphic" /><feColorMatrix
         id="feColorMatrix42"
         values="-1 0 0 0 1 0 -1 0 0 1 0 0 -1 0 1 -0.21 -0.72 -0.07 2 0 "
         result="color2" /></filter></defs><g
     id="layer1"
     transform="matrix(0.95766197,0,0,0.98592822,-43.189249,-72.080305)"><path
       style="fill:#ffffff;fill-opacity:1;stroke:none;stroke-width:6.29201;filter:url(#filter28)"
       d="m 93.216545,81.897325 c -8.87948,0.935371 -32.704546,2.866956 -38.685923,8.262799 -11.34513,10.234466 -5.530302,43.455356 -5.530113,56.982996 1.25e-4,4.59373 -1.573381,14.66479 2.002999,18.17681 12.28522,12.06392 32.891047,3.34269 47.007557,3.21805 5.179195,-0.044 8.351195,4.73807 13.318105,5.56685 8.23757,1.37449 18.93078,-0.81009 27.16885,-1.76251 28.06729,-3.24492 15.37265,-39.42589 14.53506,-56.62995 -0.44988,-9.24115 5.37917,-14.92988 -0.51595,-23.972574 -8.77163,-13.454149 -44.31408,-11.4212 -59.300265,-9.842471 m 34.094335,3.652137 c 31.15082,-3.782822 23.41957,35.773498 22.04388,55.733648 -0.66198,9.60526 4.97604,23.6542 -9.25782,25.9606 -14.97637,2.42677 -27.02445,-2.07335 -40.487715,-1.5966 -15.35962,0.54426 -28.17612,7.63397 -42.373357,-2.44992 -4.782119,-3.39656 -3.237996,-13.7921 -3.007834,-18.71774 0.569427,-12.18643 -7.159179,-45.07359 5.070545,-53.930606 4.63281,-3.355153 11.450706,0.03146 16.870816,-0.738242 17.29178,-2.447341 33.641255,-2.136013 51.141485,-4.26114"
       id="path2" /><path
       style="fill:#ffffff;fill-opacity:1;stroke-width:6.29201;filter:url(#filter30)"
       d="m 76.564105,155.26081 c -0.60718,-0.77203 -1.10412,-1.73093 -1.10412,-2.13091 0,-0.94374 -0.11514,-0.92757 -2.59067,0.36242 -11.313106,5.89668 -14.985565,-11.1716 -4.486019,-20.84972 6.336369,-5.84063 15.214619,3.92967 11.402349,12.54803 -1.39393,3.15111 -1.40085,3.82989 -0.0629,6.02618 1.35159,2.2168 1.36486,4.18331 0.0315,4.89607 -1.52418,0.81569 -1.97547,0.69527 -3.19272,-0.85219 z m -4.4336,-5.11949 c 0.99886,-0.79915 0.81305,-1.68607 -0.69388,-3.31206 -2.680968,-2.89281 -0.0629,-4.77331 3.02815,-2.17376 2.79724,2.35372 5.01961,-1.51008 3.66047,-6.36425 -2.45404,-8.76496 -10.801021,-2.71538 -10.891437,7.89377 l -0.03146,3.6378 1.03749,0.75969 c 1.03642,0.75895 2.613767,0.58013 3.890227,-0.44107 z m 65.880425,4.3223 c -1.58855,-2.51637 -6.03832,-8.10733 -6.64462,-8.34856 -0.61725,-0.24539 -1.17793,0.85798 -2.6339,5.18348 -1.67223,4.96824 -2.57299,5.62972 -4.78294,3.51246 l -1.62535,-1.55715 -2.93397,1.43892 c -9.35062,4.586 -15.74935,-7.69205 -9.66327,-18.542 l 1.18202,-2.10719 2.91861,-0.674 c 6.01869,-1.38985 7.42432,0.70841 1.68733,2.51875 -2.50171,0.7894 -2.9726,1.37783 -3.51724,4.39485 l -0.36053,1.99771 h 1.82783 c 1.00528,0 2.51442,-0.35801 3.35364,-0.79575 0.83923,-0.43792 2.07373,-0.79732 2.74326,-0.79908 l 1.21738,-0.003 -0.55433,1.03573 c -0.30516,0.56943 -2.01822,1.816 -3.80755,2.76968 -6.48687,3.45753 -4.38849,8.7649 2.70972,6.85351 3.13808,-0.84495 3.94906,-1.91768 4.97308,-6.57786 2.37039,-10.78765 5.47299,-12.46756 8.68204,-4.70095 0.80676,1.95248 2.04755,4.34445 2.75728,5.31556 l 1.29056,1.76573 0.95425,-0.86358 c 0.77882,-0.70483 0.99086,-1.93354 1.15345,-6.6825 0.20889,-6.09482 0.89233,-7.94989 2.55185,-6.92386 0.63134,0.39011 0.77675,2.51467 0.80437,11.75034 l 0.0315,11.2739 -0.90253,0.48323 c -1.50567,0.80576 -1.96763,0.5732 -3.41398,-1.71785 z m -50.428475,-0.23344 c -3.44947,-1.87143 -5.21243,-10.01858 -3.36893,-15.56877 1.83985,-5.5393 4.47953,-4.13108 3.7669,2.00955 l -0.37249,3.20792 h 0.90467 c 0.4977,0 1.71973,-0.81507 2.71595,-1.81122 l 1.81122,-1.81129 v -2.332 c 0,-4.25315 1.97909,-5.81156 3.76992,-2.96858 1.57621,2.50227 1.09059,5.89977 -1.80845,12.65217 -1.32082,3.07648 -2.53468,6.01316 -2.69745,6.52589 -0.36745,1.15698 -2.67958,1.20423 -4.72146,0.0963 z m 15.002295,-0.80645 -1.10966,-1.10965 0.17744,-9.05585 0.17743,-9.05584 1.03686,-0.75731 c 1.8715,-1.36713 2.95417,4.25718 2.95712,15.36151 l 0.001,5.7268 h -1.06543 c -0.58578,0 -1.56476,-0.49958 -2.17508,-1.10966 z m 28.45752,-29.85 c -1.22002,-0.21959 -3.13783,-0.97212 -4.26177,-1.6716 -1.12394,-0.69942 -2.33383,-1.44301 -2.6887,-1.65241 -0.38193,-0.22525 -1.23286,0.27874 -2.0858,1.23613 -1.52557,1.71225 -2.89364,1.98066 -5.35835,1.0514 -8.27368,-3.11927 -8.66253,-17.21218 -0.58893,-21.33295 4.83252,-2.466406 5.36526,-0.7736 1.04089,3.30752 -4.13027,3.8979 -4.73562,7.14609 -2.13897,11.47714 2.65963,4.43625 6.31341,4.2052 6.31341,-0.39891 0,-2.2292 -1.12684,-3.29331 -2.27325,-2.1469 -1.51096,1.51096 -4.98453,0.35864 -4.40673,-1.46151 0.52475,-1.65323 2.24713,-2.36511 4.85712,-2.00734 l 2.27921,0.31271 0.95614,-2.51498 c 0.52601,-1.3833 1.89207,-3.53385 3.03596,-4.7791 l 2.07989,-2.26412 h 2.03163 c 2.73859,0 3.01425,0.73938 0.78851,2.115 -3.11492,1.9251 -4.55397,4.04727 -4.55397,6.71584 0,2.85708 0.23092,2.88451 4.75991,0.56628 3.96541,-2.02961 6.22211,-2.70204 6.66475,-1.98582 0.43981,0.71201 -2.66687,3.63767 -5.22671,4.92193 -4.40259,2.20875 -5.52282,4.00688 -3.41581,5.48273 1.7366,1.21631 2.9933,1.03655 7.06171,-1.01037 3.83404,-1.92907 4.53969,-1.96757 4.53969,-0.2479 0,3.13046 -5.72044,6.9528 -9.41008,6.28767 z m -67.648667,-0.93411 c -2.704245,-1.26652 -4.980758,-4.4282 -4.980758,-6.91738 v -1.80581 l 1.185415,0.78707 c 0.651916,0.43289 1.727284,1.81185 2.389644,3.0644 1.723383,3.25889 2.228128,3.73658 3.948302,3.73658 3.921308,0 4.491049,-3.10927 2.065668,-11.27334 -1.804172,-6.07312 -1.987584,-8.50467 -0.735788,-9.75646 l 0.862446,-0.862385 1.056681,0.956255 c 2.759302,2.49718 6.201472,16.13254 4.917272,19.47901 -1.11344,2.90162 -7.003767,4.32739 -10.708882,2.59206 z m 32.951802,0.32844 c -1.54689,-1.86388 -2.33081,-21.05893 -0.90825,-22.23956 0.9998,-0.82973 2.39726,0.13968 2.39726,1.66342 0,1.66574 1.36304,1.13061 3.375535,-1.32542 3.2317,-3.943829 7.61402,-5.294787 8.79164,-2.710154 1.48479,3.258824 -0.86541,7.245884 -5.6413,9.570344 -2.4966,1.21511 -2.19987,2.06529 2.25626,6.46391 4.50577,4.4477 5.25836,6.09583 3.55926,7.79492 l -1.11658,1.11658 -1.13665,-1.02868 c -0.62543,-0.56565 -2.09052,-2.66183 -3.2563,-4.65791 -3.88375,-6.64991 -5.913985,-6.16806 -4.999945,1.18655 l 0.425335,3.42361 -0.964125,0.70502 c -1.20807,0.88327 -2.07057,0.89491 -2.78226,0.0378 z m 8.995375,-18.01208 c 0.79474,-0.56566 1.69582,-1.74856 2.0025,-2.62818 l 0.55747,-1.5993 h -0.99685 c -1.29143,0 -3.73682,2.08844 -5.01624,4.2841 l -1.00773,1.72924 1.50794,-0.37815 c 0.82935,-0.20827 2.15816,-0.8415 2.95291,-1.4074 z m -26.150985,16.5495 c -5.172,-5.53666 -1.68044,-20.46458 5.1899,-22.18891 1.7057,-0.427857 5.50268,3.23233 7.42508,7.15798 l 1.37902,2.81599 -0.31775,2.68116 c -0.92429,7.80423 -9.62577,13.87005 -13.67644,9.53378 z m 9.02268,-5.36702 c 2.85393,-3.93981 2.56419,-9.05591 -0.69338,-12.2408 -5.4665,-5.344437 -10.08499,9.17797 -4.78231,15.03741 l 0.84345,0.93197 1.54399,-0.79839 c 0.84924,-0.43918 2.23889,-1.75774 3.08825,-2.93019 z"
       id="path11" /></g></svg>
