<?xml version="1.0" encoding="UTF-8" standalone="no"?>
<!-- Created with Inkscape (http://www.inkscape.org/) -->

<svg
   width="86.252411mm"
   height="85.467491mm"
   viewBox="0 0 86.252411 85.467491"
   version="1.1"
   id="svg1"
   xml:space="preserve"
   xmlns="http://www.w3.org/2000/svg"
   xmlns:svg="http://www.w3.org/2000/svg"><defs
     id="defs1"><filter
       style="color-interpolation-filters:sRGB"
       id="filter3"
       x="0"
       y="0"
       width="1"
       height="1"><feColorMatrix
         type="hueRotate"
         values="180"
         result="color1"
         id="feColorMatrix2" /><feColorMatrix
         values="-1 0 0 0 1 0 -1 0 0 1 0 0 -1 0 1 -0.21 -0.72 -0.07 2 0 "
         result="fbSourceGraphic"
         id="feColorMatrix3" /><feColorMatrix
         result="fbSourceGraphicAlpha"
         in="fbSourceGraphic"
         values="0 0 0 -1 0 0 0 0 -1 0 0 0 0 -1 0 0 0 0 1 0"
         id="feColorMatrix6" /><feColorMatrix
         id="feColorMatrix7"
         type="hueRotate"
         values="180"
         result="color1"
         in="fbSourceGraphic" /><feColorMatrix
         id="feColorMatrix8"
         values="-1 0 0 0 1 0 -1 0 0 1 0 0 -1 0 1 -0.21 -0.72 -0.07 2 0 "
         result="fbSourceGraphic" /><feColorMatrix
         result="fbSourceGraphicAlpha"
         in="fbSourceGraphic"
         values="0 0 0 -1 0 0 0 0 -1 0 0 0 0 -1 0 0 0 0 1 0"
         id="feColorMatrix9" /><feColorMatrix
         id="feColorMatrix10"
         type="hueRotate"
         values="180"
         result="color1"
         in="fbSourceGraphic" /><feColorMatrix
         id="feColorMatrix11"
         values="-1 0 0 0 1 0 -1 0 0 1 0 0 -1 0 1 -0.21 -0.72 -0.07 2 0 "
         result="color2" /></filter></defs><g
     id="layer1"
     transform="translate(-119.80461,-72.803969)"><path
       style="fill:#000000;filter:url(#filter3)"
       d="m 151.20933,158.07785 c -0.59306,-0.13391 -1.88595,-0.30939 -2.87308,-0.38995 -0.98713,-0.0806 -3.77719,-0.44124 -6.20015,-0.80151 -2.46266,-0.36617 -5.19683,-0.58442 -6.20014,-0.49491 -0.98713,0.0881 -3.45637,0.1631 -5.48721,0.16674 -4.68164,0.008 -6.50892,-0.52935 -7.64368,-2.24951 -1.18771,-1.80041 -1.8345,-3.30433 -2.20389,-5.12445 -1.22285,-6.02538 -0.9902,-28.96573 0.37231,-36.71139 0.54791,-3.1148 0.6491,-4.9731 0.59531,-10.93184 -0.15178,-16.811883 0.11088,-22.572895 1.09606,-24.039916 0.82784,-1.232719 2.94304,-2.116263 5.60249,-2.340229 1.25635,-0.105803 3.35236,-0.344316 4.65781,-0.53003 1.38177,-0.196571 2.88166,-0.223633 3.58956,-0.06477 1.54213,0.34608 4.79614,-0.01605 9.37411,-1.043212 2.87918,-0.646006 4.26764,-0.783453 7.01595,-0.694526 6.35224,0.20554 9.11281,0.617038 11.63918,1.734966 1.36358,0.603389 2.88647,1.034999 3.65189,1.034999 0.7221,0 1.40367,0.146845 1.5146,0.326323 0.11245,0.181964 1.62965,0.326324 3.42959,0.326324 1.77535,0 3.9493,0.154708 4.83098,0.343796 1.74169,0.373524 5.01392,-0.177307 6.92544,-1.165795 1.83871,-0.950833 5.70046,-1.204014 8.96193,-0.587555 1.6153,0.305311 3.01067,0.66046 3.10082,0.78922 0.0901,0.128759 0.74827,0.343734 1.46248,0.477721 1.38694,0.26019 3.10531,1.689447 3.10531,2.582843 0,0.29287 0.55993,1.368797 1.24429,2.390947 2.30666,3.44519 2.44378,3.951057 2.40159,8.859938 -0.0209,2.430913 -0.16343,4.860378 -0.31675,5.398812 -0.15331,0.538434 -0.21314,3.915887 -0.13296,7.505434 0.28001,12.53432 0.22734,19.71282 -0.14737,20.08754 -0.241,0.24099 -0.26223,0.75007 -0.0649,1.55661 0.16125,0.65917 0.3595,3.15176 0.44055,5.53907 0.081,2.38732 0.21696,4.45319 0.30203,4.59083 0.0851,0.13765 0.17971,1.70868 0.21033,3.4912 0.0306,1.78251 0.17927,3.47703 0.33035,3.7656 0.57344,1.09529 0.17414,5.13679 -0.86174,8.72216 -0.51499,1.78251 -2.28024,3.96927 -3.20417,3.96927 -0.26024,0 -0.52212,0.14547 -0.58194,0.32326 -0.22261,0.66155 -4.03438,1.45412 -7.12474,1.48142 -4.70709,0.0416 -18.59212,0.76225 -18.95022,0.98357 -0.17354,0.10725 -1.9647,0.2573 -3.98034,0.33343 -2.01565,0.0761 -5.13327,0.22925 -6.92805,0.34027 -4.84398,0.29962 -11.72484,0.32475 -12.95361,0.0473 z m 10.17986,-4.013 c 4.7532,-0.14998 10.55493,-0.50628 10.8099,-0.66385 0.80764,-0.49915 8.88252,-0.78052 13.99069,-0.48751 1.92243,0.11027 6.13841,-0.1214 8.64758,-0.47519 0.53844,-0.0759 1.88989,-0.23563 3.00324,-0.35492 1.11335,-0.11929 2.00389,-0.30643 1.97899,-0.41587 -0.0249,-0.10944 0.26887,-1.21518 0.65284,-2.45719 0.38397,-1.24202 0.60452,-2.40966 0.49012,-2.59477 -0.26932,-0.43577 -0.31554,-3.49093 -0.0553,-3.6518 0.10947,-0.0676 0.0798,-0.87732 -0.066,-1.79926 -0.14574,-0.92193 -0.18005,-5.73558 -0.0763,-10.69699 0.20484,-9.79101 0.21711,-16.32748 0.0524,-27.9475 -0.10282,-7.256299 -0.01,-8.533037 1.06376,-14.578716 0.21273,-1.198136 0.29748,-2.411154 0.18833,-2.695595 -0.10915,-0.284441 -0.22793,-0.625758 -0.26395,-0.758482 -0.036,-0.132725 -0.48058,-0.945296 -0.9879,-1.805715 -0.50732,-0.860418 -0.9224,-1.701982 -0.9224,-1.870143 0,-0.16816 -0.40383,-0.392129 -0.89739,-0.497709 -0.49357,-0.10558 -1.2347,-0.328646 -1.64697,-0.495702 -0.41227,-0.167057 -1.88073,-0.302507 -3.26324,-0.301 -1.38251,0.0015 -3.49607,-0.249021 -4.6968,-0.556729 -2.13449,-0.547 -2.22905,-0.543855 -4.24221,0.141113 -2.93503,0.998628 -3.96741,1.156822 -7.19282,1.102175 -3.67734,-0.0623 -3.46946,-0.06928 -4.92148,0.165073 -1.2195,0.196821 -4.47498,-0.566145 -5.34925,-1.253671 -0.21649,-0.170244 -0.55335,-0.210812 -0.74858,-0.09015 -0.19523,0.120661 -0.71046,-0.01354 -1.14495,-0.29823 -0.43448,-0.284687 -1.33425,-0.517613 -1.99947,-0.517613 -0.66523,0 -1.44288,-0.211202 -1.72812,-0.469339 -0.37178,-0.336455 -1.90352,-0.541105 -5.41003,-0.722816 -8.1929,-0.424563 -10.56601,-0.32595 -12.92582,0.537123 -1.1449,0.418734 -2.22848,0.87011 -2.40795,1.003058 -0.51589,0.382139 -3.98541,0.727335 -4.44645,0.442394 -0.99839,-0.617037 -10.38216,0.185831 -11.7014,1.001162 -0.26878,0.166114 -0.35067,0.711868 -0.23954,1.596261 0.0929,0.739117 0.0634,2.112091 -0.0654,3.051054 -0.12887,0.938964 -0.12655,1.820037 0.005,1.957942 0.13169,0.137904 0.3189,1.131809 0.416,2.208676 0.0971,1.076868 0.31878,2.781886 0.49261,3.788928 0.19579,1.134332 0.20214,2.3379 0.0167,3.163283 -0.16464,0.732762 -0.36325,3.212851 -0.44136,5.511288 -0.0781,2.29845 -0.36073,5.20692 -0.62806,6.46326 -0.26733,1.25635 -0.58434,3.09192 -0.70447,4.07905 -0.12014,0.98713 -0.40392,2.88889 -0.63064,4.22614 -0.42026,2.47882 -0.42308,4.03729 -0.0157,8.66364 0.12644,1.43582 0.26953,3.85877 0.31796,5.38434 0.0484,1.52556 0.26544,3.72824 0.48225,4.89485 0.43145,2.32162 0.4505,2.56417 0.33318,4.24221 -0.0439,0.62817 0.0277,1.94978 0.15917,2.93691 0.13146,0.98713 0.27502,2.74927 0.31902,3.91588 0.14252,3.77852 0.48369,4.15581 5.3048,5.86646 l 3.00572,1.06651 4.82604,-0.27777 c 5.91309,-0.34033 7.20563,-0.26871 9.79339,0.54268 3.16345,0.9919 5.25594,1.2663 8.08559,1.06033 1.43583,-0.10451 3.85878,-0.22941 5.38434,-0.27755 z m -14.80371,-11.26758 c -0.4729,-0.37198 -0.85982,-0.81846 -0.85982,-0.99218 0,-0.44525 -1.37006,-2.24737 -1.70856,-2.24737 -0.1543,0 -0.60393,0.33741 -0.99919,0.74979 -1.25106,1.30529 -3.17472,1.71633 -5.70952,1.21999 -1.78701,-0.34991 -2.4575,-0.67223 -3.6567,-1.75783 -2.08475,-1.88726 -3.03371,-3.58735 -3.11244,-5.57603 -0.07,-1.76885 0.61336,-8.04057 1.18664,-10.89016 0.59632,-2.96414 2.93612,-4.90528 6.56944,-5.45013 1.3709,-0.20558 1.51461,-0.14719 2.96705,1.20546 0.8395,0.78182 1.52637,1.58653 1.52637,1.78823 0,0.2017 0.2269,0.4538 0.50422,0.56022 0.44021,0.16892 1.43854,2.04458 1.58422,2.97642 0.0281,0.17947 0.17158,0.5194 0.31893,0.7554 0.14735,0.23599 0.18129,0.89679 0.0754,1.46845 -0.15899,0.85852 0.21142,6.5938 0.54134,8.38216 0.10393,0.5633 2.94665,4.6241 3.63973,5.1993 0.61095,0.50704 0.3814,2.25143 -0.37142,2.82251 -0.82232,0.62381 -1.5048,0.56523 -2.49572,-0.21423 z m -4.73717,-4.66138 c 0.33777,-0.36255 0.61412,-0.75215 0.61412,-0.86578 0,-0.11363 -0.80765,-1.36694 -1.79478,-2.78513 -1.80228,-2.5893 -2.12977,-3.5988 -1.40319,-4.32538 0.61405,-0.61405 1.07436,-0.47513 2.42771,0.73269 l 1.25974,1.12428 0.19367,-1.35195 c 0.10652,-0.74357 0.0822,-1.87359 -0.054,-2.51115 -0.13623,-0.63756 -0.4025,-2.10103 -0.5917,-3.25215 -0.45059,-2.74146 -1.35537,-3.71905 -3.95211,-4.27011 -1.79284,-0.38047 -1.97286,-0.36125 -2.91773,0.31157 -0.55386,0.39438 -0.92947,0.84252 -0.83469,0.99587 0.0948,0.15336 0.0226,0.37138 -0.16046,0.4845 -0.30444,0.18815 -0.2712,0.82389 0.16221,3.10266 0.40374,2.12276 0.46005,4.37006 0.11977,4.78007 -0.27536,0.33179 -0.26184,0.4411 0.0546,0.4411 0.23137,0 0.33989,0.0808 0.24117,0.1795 -0.0987,0.0987 -0.0591,0.71323 0.088,1.36556 0.14712,0.65234 0.14388,1.41705 -0.007,1.69936 -0.18271,0.34139 -0.0665,0.77044 0.34709,1.28117 0.34199,0.42234 0.6218,0.9612 0.6218,1.19747 0,0.23627 0.54468,0.87854 1.21039,1.42728 1.45938,1.20294 3.37965,1.30764 4.37565,0.23857 z m 22.4374,3.54102 c -0.93023,-0.50548 -2.05815,-2.61256 -2.5353,-4.73618 -0.16543,-0.73629 -0.25169,-4.96211 -0.19168,-9.39071 l 0.10911,-8.05198 0.92123,-0.73711 c 1.0762,-0.86111 1.31738,-0.82661 2.16581,0.30976 0.53532,0.71701 0.65154,1.53493 0.76217,5.36377 0.0718,2.48476 0.1864,5.17855 0.25467,5.9862 0.29798,3.52486 0.62047,5.75373 0.91476,6.32229 0.7959,1.53762 0.37707,4.50721 -0.71839,5.09349 -0.74732,0.39995 -0.63282,0.41081 -1.68238,-0.15953 z m 14.54073,-1.67781 c -0.89671,-0.83104 -0.96702,-0.84392 -1.84759,-0.33854 -0.50347,0.28895 -1.1185,0.44743 -1.36673,0.35218 -0.24822,-0.0952 -0.54826,-0.0163 -0.66675,0.17538 -0.55438,0.89701 -3.34335,-0.0417 -5.17231,-1.74097 -0.504,-0.46825 -1.30215,-1.69404 -1.77367,-2.72398 -1.2644,-2.76182 -1.442,-7.82581 -0.40923,-11.66885 0.40616,-1.51139 1.00215,-2.9866 1.32442,-3.27825 0.69686,-0.63065 1.78749,-0.38344 2.26781,0.51405 0.31046,0.5801 0.40756,0.58636 1.71285,0.11041 0.76105,-0.2775 2.29095,-0.77106 3.39976,-1.09679 1.86328,-0.54738 2.03171,-0.55138 2.22305,-0.0528 0.22662,0.59058 -1.25485,2.00158 -2.11797,2.01724 -0.26922,0.005 -0.8566,0.29603 -1.3053,0.64701 -0.44869,0.35097 -0.96534,0.6414 -1.14811,0.64539 -0.18277,0.004 -0.99354,0.55793 -1.80172,1.23097 -1.40101,1.16675 -1.46736,1.29966 -1.42535,2.85533 0.0422,1.56402 0.0831,1.63276 0.98591,1.65929 0.51801,0.0152 1.35561,-0.17724 1.86132,-0.4277 1.44423,-0.71527 2.34376,-0.44019 2.34376,0.71671 0,0.68715 -0.2198,1.07892 -0.75504,1.34577 -1.0877,0.54227 -2.6892,2.13032 -3.02817,3.00272 -0.64725,1.66583 1.92764,3.56279 4.29348,3.16308 0.70648,-0.11936 1.28451,-0.39325 1.28451,-0.60864 0,-1.16233 1.08115,-8.39255 1.76103,-11.77696 0.66213,-3.29606 0.91967,-4.02106 1.65223,-4.65119 1.04959,-0.90281 1.66977,-0.66931 3.01837,1.13641 0.50086,0.67063 1.02079,1.26828 1.1554,1.32811 0.1346,0.0598 0.24474,0.32141 0.24474,0.58131 0,0.25989 0.22027,0.55705 0.48948,0.66036 0.26922,0.10331 0.48949,0.33448 0.48949,0.51372 0,0.17924 0.36933,0.78762 0.82073,1.35196 1.07194,1.34015 1.08946,1.36288 2.74841,3.56637 0.78165,1.03821 1.58325,1.83215 1.78135,1.76431 0.1981,-0.0678 0.34017,-0.62358 0.31572,-1.235 -0.0467,-1.16816 -1.43794,-6.94877 -2.07197,-8.60906 -0.20392,-0.53401 -0.44504,-1.50191 -0.53581,-2.15089 -0.13847,-0.98997 -0.0366,-1.26416 0.63294,-1.70283 0.75158,-0.49245 0.83441,-0.48123 1.42413,0.19295 1.17108,1.33881 1.44819,1.80586 2.10375,3.54569 2.46298,6.53674 2.86691,10.09382 1.75343,15.44137 -0.22725,1.09138 -1.05956,2.16319 -1.60141,2.06223 -0.19542,-0.0364 -0.69276,0.0481 -1.1052,0.1879 -1.01563,0.34414 -1.55149,-0.17069 -2.19536,-2.10921 -0.29348,-0.88357 -0.65273,-1.6065 -0.79833,-1.6065 -0.14559,0 -0.35002,-0.33988 -0.45428,-0.75529 -0.16243,-0.64716 -2.91499,-4.5765 -3.945,-5.63156 -0.18786,-0.19243 -0.70867,-0.88894 -1.15737,-1.54781 -0.81631,-1.19868 -1.51564,-1.56159 -1.53102,-0.79449 -0.005,0.22434 -0.13551,1.14213 -0.29114,2.03952 -0.25519,1.47137 -0.31166,8.13672 -0.0921,10.87224 0.14902,1.85689 -1.86515,2.3342 -3.49112,0.8273 z m -25.7585,-1.41626 c -4.30003,-2.05801 -6.49921,-6.9256 -6.87111,-15.20829 -0.12725,-2.83392 -0.0962,-3.00183 0.69144,-3.7418 0.64001,-0.60126 0.94925,-0.69908 1.38107,-0.43685 1.04864,0.63683 1.98949,3.35176 2.81557,8.12469 0.0311,0.17947 0.21843,0.62001 0.41636,0.97897 0.19793,0.35895 0.43505,1.09318 0.52693,1.63162 0.0919,0.53843 0.40012,1.62152 0.68498,2.40687 0.28486,0.78535 0.51793,1.67544 0.51793,1.97799 0,0.30255 0.30062,0.87277 0.66805,1.26716 l 0.66806,0.71708 1.56749,-1.55293 c 2.02039,-2.00165 2.42555,-2.78765 2.11397,-4.10109 -0.13588,-0.57277 -0.21337,-1.16865 -0.17221,-1.32417 0.36338,-1.37298 0.002,-3.21173 -1.03465,-5.26474 -1.49563,-2.96195 -1.63775,-3.91588 -0.58339,-3.91588 0.80181,0 0.80821,0.009 3.09772,4.58597 0.85736,1.71376 1.1272,3.39923 0.73568,4.59513 -0.12545,0.38319 -0.0991,1.27093 0.0586,1.97278 0.3656,1.62715 0.0701,2.39183 -1.5861,4.10445 -0.73621,0.76129 -1.57733,1.7838 -1.86915,2.27225 -0.29182,0.48844 -0.96385,1.03911 -1.49339,1.22371 -0.52955,0.1846 -0.97761,0.33027 -0.9957,0.32372 -0.0181,-0.007 -0.62026,-0.29304 -1.33818,-0.63664 z m 4.71355,-23.38579 c -0.27919,-0.0754 -0.79315,-0.60899 -1.14213,-1.18586 -0.56778,-0.93855 -0.62914,-1.62364 -0.5835,-6.51512 0.0298,-3.1982 -0.0717,-5.39044 -0.24475,-5.2835 -0.16266,0.10053 -0.29574,0.34802 -0.29574,0.54998 0,0.51577 -1.30417,3.19804 -1.99182,4.09656 -0.3155,0.41225 -0.66237,1.15354 -0.77082,1.64731 -0.23774,1.08239 -1.39172,2.37781 -3.16156,3.54903 -1.08978,0.72119 -1.41374,0.80154 -1.93045,0.47885 -0.3415,-0.21326 -0.90792,-0.38776 -1.25872,-0.38776 -0.3508,0 -0.72615,-0.14291 -0.8341,-0.31759 -0.10796,-0.17467 -0.68093,-0.54757 -1.27328,-0.82866 -1.04607,-0.49639 -1.14169,-0.47835 -3.33095,0.62852 -2.18696,1.10571 -4.44148,1.7987 -5.90496,1.81505 -0.39275,0.004 -1.19642,-0.43256 -1.78593,-0.97099 -0.58951,-0.53844 -1.166,-0.97898 -1.2811,-0.97898 -0.41428,0 -1.2769,-2.82501 -1.2769,-4.18177 0,-1.83001 0.76901,-2.17934 1.86966,-0.84931 2.15409,2.60303 3.01176,3.39947 3.6608,3.39947 1.11249,0 2.62719,-0.93533 2.9685,-1.83306 0.3048,-0.80166 0.25509,-1.35934 -0.33107,-3.71444 -0.93311,-3.74908 -1.34319,-5.332067 -1.98655,-7.668596 -1.35208,-4.910433 -1.34108,-4.680508 -0.27733,-5.793619 l 0.95464,-0.998935 1.10414,1.112012 c 1.2537,1.262641 2.47859,3.306328 2.48157,4.140431 0.001,0.308627 0.24035,1.001678 0.53164,1.540111 0.2913,0.538434 0.62682,1.419508 0.7456,1.957944 0.11878,0.538435 0.35679,0.945165 0.52891,0.903875 0.31815,-0.0763 1.56653,-3.369584 1.94792,-5.138645 0.2503,-1.160958 2.35625,-3.259141 3.57933,-3.566114 1.5023,-0.377052 4.08151,1.068745 5.98331,3.353992 0.91193,1.095791 1.71585,1.883814 1.78649,1.751163 0.0706,-0.132652 0.16438,-1.048836 0.2083,-2.035965 0.0439,-0.987129 0.14755,-1.862871 0.23029,-1.946094 0.2782,-0.279838 7.77482,0.02241 9.08802,0.366412 0.80242,0.210196 1.84218,0.882948 2.71756,1.758325 l 1.41786,1.417866 0.96714,-1.101513 c 2.06102,-2.347367 4.89506,-3.32766 6.81386,-2.356908 1.36677,0.691468 1.02928,1.364355 -0.71742,1.430404 -1.90709,0.07211 -4.3227,1.419089 -5.04303,2.812053 -0.41359,0.799798 -0.47657,1.607554 -0.31415,4.028851 0.11174,1.66568 0.37807,3.43806 0.59184,3.93863 0.43807,1.02582 2.3671,3.55786 3.35918,4.40928 0.70709,0.60683 0.56518,0.70086 2.50573,-1.66011 0.25141,-0.30587 0.27441,-0.91867 0.0735,-1.95794 -0.32305,-1.67092 -0.66863,-1.79991 -2.65134,-0.98965 -0.94547,0.38638 -1.1464,0.36158 -1.95794,-0.24169 -0.4974,-0.36974 -0.95001,-1.05316 -1.00581,-1.51871 -0.15701,-1.30994 1.42082,-1.98271 4.70613,-2.00663 l 2.64673,-0.0193 0.18764,-3.540694 c 0.14303,-2.69883 0.32104,-3.688105 0.74866,-4.160625 0.68368,-0.755459 1.05169,-0.776113 1.79779,-0.100902 0.46103,0.417225 0.78607,0.452927 1.65731,0.18204 6.16436,-1.916623 6.46928,-1.968919 6.46592,-1.10896 -0.002,0.562744 -1.49727,1.773844 -2.77152,2.2451 -1.46747,0.542716 -3.6217,2.093231 -4.10517,2.954713 -0.58672,1.045464 -0.53764,2.688421 0.0922,3.086881 0.57865,0.366077 2.72772,0.1283 4.50245,-0.49814 2.15677,-0.761325 2.61058,-0.694425 2.61058,0.38483 0,0.941127 -0.66904,1.648997 -2.9369,3.107377 -0.62818,0.40396 -1.40685,1.29397 -1.73039,1.9778 -0.52055,1.10024 -0.53403,1.3261 -0.11707,1.96246 0.72408,1.10509 2.55093,1.53355 4.74141,1.11204 1.01075,-0.19449 1.97724,-0.47978 2.14774,-0.63396 0.52468,-0.47444 1.40074,-0.31083 1.55676,0.29074 0.22655,0.8735 -0.0589,1.38688 -0.77109,1.38688 -0.35459,0 -0.56259,0.13287 -0.46222,0.29527 0.38253,0.61894 -2.79473,2.06737 -4.90688,2.23691 -2.42675,0.1948 -4.28133,-0.51447 -6.18877,-2.36685 -0.64808,-0.62937 -1.31144,-1.1443 -1.47415,-1.1443 -0.48477,0 -1.9324,1.38862 -1.9324,1.85362 0,0.23685 -0.1402,0.43064 -0.31154,0.43064 -0.17135,0 -0.40502,0.49828 -0.51927,1.1073 -0.16663,0.8882 -0.39328,1.14441 -1.14549,1.29485 -1.03036,0.20607 -3.07842,-0.41274 -4.71632,-1.42502 l -1.05357,-0.65114 0.15549,1.34608 c 0.17197,1.48877 -0.17002,1.90418 -1.5745,1.91249 -0.63332,0.004 -1.16269,-0.41033 -2.1211,-1.65918 -2.94253,-3.83422 -6.25529,-6.44406 -7.62703,-6.00869 -0.44488,0.1412 -0.51894,0.59179 -0.44337,2.69748 0.0499,1.39038 0.2456,3.17155 0.43487,3.95815 0.29036,1.2067 0.25796,1.52541 -0.2073,2.03953 -0.53338,0.58937 -1.03495,0.68409 -2.10005,0.3966 z m -8.79259,-5.70615 c 0,-0.16239 0.36711,-0.46253 0.81581,-0.66697 0.44869,-0.20444 0.81581,-0.4979 0.81581,-0.65214 0,-0.15423 0.39864,-0.9016 0.88588,-1.66081 1.04051,-1.62133 2.37649,-4.38428 2.37936,-4.92078 0.001,-0.20652 0.19023,-0.74261 0.42028,-1.19131 0.23004,-0.448687 0.46103,-1.445347 0.5133,-2.214812 0.0877,-1.291425 -0.029,-1.524338 -1.51723,-3.028319 -1.39752,-1.412276 -2.96224,-2.262295 -4.16445,-2.262295 -1.20548,0 -3.20165,7.844366 -2.95498,11.612266 0.15204,2.32251 0.26719,2.82743 1.0471,4.59158 0.34698,0.78485 0.61034,0.98926 1.1072,0.85933 0.35855,-0.0938 0.65192,-0.30335 0.65192,-0.46574 z m 21.75565,-0.36285 c -1.82116,-2.43286 -1.94979,-2.98418 -1.74745,-7.48991 0.10314,-2.296867 0.12723,-4.176147 0.0536,-4.176147 -0.0737,0 -1.0434,0.587779 -2.15489,1.30618 -1.1115,0.71838 -2.81923,1.683817 -3.79495,2.145407 l -1.77403,0.83926 1.41808,1.02663 c 1.7778,1.28704 7.14742,6.03191 7.71832,6.82029 0.23453,0.32386 0.5724,0.58884 0.75084,0.58884 0.17843,0 -0.0328,-0.47725 -0.46947,-1.06055 z M 163.068,98.375808 c 1.41463,-0.75375 2.87761,-1.695692 3.25105,-2.093207 l 0.67899,-0.722754 -0.7649,-0.411355 c -1.04679,-0.562951 -5.5403,-0.797623 -6.4056,-0.33453 -0.54673,0.2926 -0.66282,0.614014 -0.57393,1.588993 0.0613,0.67221 0.12633,1.699448 0.14454,2.282753 0.0441,1.412782 0.51064,1.373382 3.66985,-0.3099 z"
       id="path1" /></g></svg>
