<?xml version="1.0" encoding="UTF-8" standalone="no"?>
<!-- Created with Inkscape (http://www.inkscape.org/) -->

<svg
   width="146.52367"
   height="144.2617"
   viewBox="0 0 38.767719 38.169242"
   version="1.1"
   id="svg1"
   xml:space="preserve"
   xmlns="http://www.w3.org/2000/svg"
   xmlns:svg="http://www.w3.org/2000/svg"><defs
     id="defs1" /><g
     id="layer1"
     transform="translate(-4.2660232,-4.385272)"><path
       style="fill:#000000"
       d="m 21.717755,42.420144 c -0.696368,-0.184951 -1.189294,-0.56325 -1.502359,-1.152996 -0.226562,-0.426791 -0.255909,-0.567089 -0.219001,-1.046975 0.125963,-1.637808 1.817026,-2.984264 3.748048,-2.984264 2.010842,0 3.128233,1.608008 2.287087,3.291288 -0.466762,0.934075 -1.527868,1.686439 -2.732909,1.937734 -0.625145,0.130366 -0.956764,0.120971 -1.580866,-0.04479 z m 15.338531,-2.00881 c -1.03586,-0.285661 -2.07204,-1.101471 -2.5188,-1.983104 -1.033152,-2.038827 0.63934,-3.869191 2.98611,-3.267976 0.73408,0.188063 1.28144,0.501959 1.90873,1.094599 1.22181,1.154332 1.3351,2.775989 0.25989,3.720036 -0.58944,0.517537 -1.68443,0.698841 -2.63593,0.436445 z M 14.273315,36.727321 c -2.035905,-0.562626 -3.454171,-2.00789 -4.013258,-4.089654 -0.21425,-0.797761 -0.209855,-2.400876 0.0088,-3.213825 0.169085,-0.628616 0.544887,-1.42863 1.09738,-2.336118 0.77834,-1.278449 0.607691,-1.55286 -1.7801721,-2.862604 -1.566235,-0.859086 -2.064558,-1.184192 -2.503012,-1.632968 -1.080183,-1.105611 -1.145815,-2.755389 -0.143325,-3.602692 0.510306,-0.431309 1.038622,-0.615017 1.76362,-0.613251 0.917855,0.0022 1.6666371,0.301509 2.9486171,1.178507 2.065649,1.413104 2.65228,1.689433 3.586571,1.689433 0.559246,0 1.36153,-0.368508 1.641072,-0.753782 0.235847,-0.325052 0.226172,-0.944142 -0.02237,-1.431318 -0.104652,-0.205134 -0.48423,-0.690001 -0.843507,-1.077481 -0.769059,-0.829432 -0.940809,-1.18209 -0.944782,-1.939945 -0.0055,-1.044447 0.6679,-1.992559 1.59188,-2.24136 0.280122,-0.07543 0.554027,-0.03591 1.617178,0.233333 2.187624,0.554016 3.234658,0.529027 3.482476,-0.08311 0.06427,-0.158749 0.143231,-0.702214 0.175474,-1.207701 0.09947,-1.559439 0.477912,-2.571451 1.250503,-3.3440417 1.102436,-1.102436 2.499605,-1.194126 4.375553,-0.287145 1.262269,0.61028 1.732211,1.3482097 1.522326,2.3904467 -0.05599,0.278018 -0.355235,1.00632 -0.664997,1.618449 -0.527899,1.043197 -0.564037,1.155345 -0.5765,1.789094 -0.01285,0.653256 -0.0047,0.680322 0.241253,0.799982 0.140357,0.06829 0.964958,0.180975 1.838133,0.251187 0.870971,0.07003 1.708835,0.165268 1.86192,0.21163 1.365021,0.413401 2.171934,1.552518 2.192941,3.095772 0.01292,0.948986 -0.207832,1.411398 -1.272379,2.665293 -0.857808,1.010384 -1.423874,2.008884 -1.494601,2.636369 -0.05921,0.525332 0.1603,1.372351 0.562781,2.171572 0.437761,0.869278 0.659694,1.108 1.902664,2.046609 1.422722,1.074342 1.742022,1.50446 1.878042,2.529812 0.0939,0.707852 -0.0801,1.179842 -0.65835,1.7861 -0.860069,0.901696 -1.905897,1.350261 -3.343481,1.434051 -1.642813,0.09575 -2.747975,-0.293259 -4.677462,-1.646436 -1.532218,-1.074566 -2.329484,-1.458705 -3.149216,-1.517356 -1.186934,-0.08493 -1.840304,0.376587 -2.963896,2.093566 -1.271516,1.943023 -2.057326,2.685618 -3.3171,3.13468 -0.733714,0.261541 -2.433986,0.328519 -3.17078,0.124905 z M 38.674536,25.290228 c -0.87174,-0.186849 -1.49005,-0.6207 -1.78803,-1.254614 -0.17329,-0.368676 -0.20192,-0.55202 -0.16555,-1.060293 0.0749,-1.047236 0.76911,-1.934271 1.98478,-2.53616 0.58506,-0.289669 0.78184,-0.339105 1.48334,-0.372644 0.98224,-0.04696 1.54496,0.112964 2.11532,0.601177 1.49208,1.277158 0.58147,3.651655 -1.70161,4.437151 -0.61848,0.212788 -1.43441,0.291232 -1.92825,0.185383 z M 32.700602,13.799597 C 32.29903,13.673727 31.7605,13.195339 31.526784,12.756869 31.360322,12.444574 31.3232,12.224728 31.322661,11.547996 c -5.9e-4,-0.74076 0.03008,-0.892042 0.293576,-1.448314 0.783837,-1.6547447 2.604027,-2.6486507 3.926009,-2.1437807 0.52384,0.200056 1.11251,0.836901 1.25253,1.355028 0.18668,0.6907597 0.0726,1.6905927 -0.27294,2.3925037 -0.37005,0.751676 -1.13828,1.547132 -1.812982,1.877235 -0.547496,0.267865 -1.515471,0.373388 -2.008252,0.218929 z M 7.8858019,13.03169 C 6.6184999,12.703342 5.4471969,11.691549 4.8191309,10.382643 4.3706989,9.4480983 4.2128029,8.6827093 4.2813829,7.7759353 c 0.0889,-1.175486 0.611917,-2.051736 1.477376,-2.475166 0.65858,-0.322213 1.258975,-0.380527 1.989906,-0.193271 2.9468851,0.754957 4.6182241,4.817549 2.9056511,7.0628827 -0.571347,0.749086 -1.7665261,1.120916 -2.7685141,0.861309 z M 17.260282,10.6447 C 16.510317,10.350654 15.829268,9.7323693 15.47127,9.0205623 c -0.451339,-0.897396 -0.606775,-2.071736 -0.383378,-2.896473 0.498321,-1.839703 2.439945,-2.316786 3.910854,-0.96095 0.489671,0.451363 1.001928,1.41212 1.160705,2.176943 0.287034,1.382638 -0.283194,2.7707297 -1.336756,3.2540287 -0.415306,0.190513 -1.145258,0.214148 -1.562413,0.05059 z"
       id="path1" /></g></svg>
