<?xml version="1.0" encoding="UTF-8" standalone="no"?>
<!-- Created with Inkscape (http://www.inkscape.org/) -->

<svg
   version="1.1"
   id="svg1"
   width="457.92432"
   height="85.251389"
   viewBox="0 0 457.92432 85.251388"
   xmlns="http://www.w3.org/2000/svg"
   xmlns:svg="http://www.w3.org/2000/svg">
  <defs
     id="defs1" />
  <g
     id="g1"
     transform="translate(-61.697192,-117.18083)">
    <path
       style="fill:#000000"
       d="m 206.85547,202.14387 c -1.36168,-0.39163 -2.9812,-1.64091 -2.9812,-2.29967 0,-0.78144 0.8612,-1.43357 2.16,-1.63561 1.6195,-0.25193 1.8553,0.2756 0.32,0.71592 -0.71559,0.20523 -1.04,0.49282 -1.04,0.92198 0,0.89349 1.56443,1.53214 3.8328,1.56469 1.5371,0.0221 2.31584,-0.16668 3.8472,-0.93236 2.23032,-1.11515 2.5934,-1.9694 1.38636,-3.26172 -1.20861,-1.29399 -2.25355,-1.65843 -4.93536,-1.72128 -1.39205,-0.0326 -2.63847,-0.12096 -2.76983,-0.19631 -0.31571,-0.18111 0.64374,-2.02069 1.05391,-2.02069 0.17526,0 1.1226,-0.7912 2.1052,-1.75823 0.9826,-0.96703 1.93218,-1.66823 2.11018,-1.55822 0.178,0.11001 -0.6539,1.15321 -1.84865,2.31823 l -2.17228,2.11822 2.46111,0.22539 c 1.41187,0.12929 2.88088,0.47036 3.44569,0.8 0.94654,0.55242 2.20367,2.48175 2.20367,3.382 0,0.49446 -1.63102,2.15261 -2.1174,2.15261 -0.17732,0 -0.96144,0.3093 -1.74249,0.68733 -1.73423,0.83937 -3.54262,1.00859 -5.31891,0.49772 z m 214.31162,-3.18505 c -0.9343,-1.12425 -2.5737,-3.8898 -2.57994,-4.35215 -0.004,-0.29032 -0.27205,-0.87243 -0.59587,-1.29359 -0.48399,-0.62947 -0.75321,-0.72273 -1.51289,-0.52407 -0.50826,0.13292 -1.78812,0.30688 -2.84412,0.38658 -1.73939,0.13129 -2.06105,0.0511 -3.41947,-0.85248 -0.98039,-0.65212 -1.73801,-1.49016 -2.18854,-2.42084 -0.79876,-1.65002 -1.214,-1.79337 -1.4711,-0.50788 -0.17751,0.88753 -1.71901,1.96443 -2.81193,1.96443 -0.79195,0 -4.02849,-1.58727 -4.06989,-1.99596 -0.0225,-0.22222 -0.0801,-1.48404 -0.12804,-2.80404 -0.0916,-2.52312 0.31468,-3.52 1.43457,-3.52 0.28952,0 0.6632,-0.13155 0.8304,-0.29233 0.94011,-0.90403 4.11558,-0.0402 4.81349,1.30936 0.25682,0.49663 0.53189,0.90297 0.61126,0.90297 0.22284,0 1.43925,-2.62591 1.43925,-3.10696 0,-0.23472 0.35723,-0.58952 0.79385,-0.78846 0.43662,-0.19894 0.87832,-0.62785 0.98156,-0.95314 0.10325,-0.32529 0.31231,-0.59144 0.46459,-0.59144 0.15228,0 0.35998,-0.26186 0.46156,-0.58191 0.33788,-1.06455 6.25844,-1.74442 6.25844,-0.71867 0,0.13671 -1.188,0.3435 -2.64,0.45954 -2.60455,0.20814 -2.65608,0.22917 -3.83787,1.56601 -2.25264,2.54819 -2.80213,3.78051 -2.80213,6.28428 0,1.6471 0.16304,2.52338 0.60457,3.24942 1.41763,2.33111 4.74771,3.43969 6.69297,2.22809 l 1.05755,-0.65869 -0.67245,-0.94435 c -0.36984,-0.5194 -0.80973,-1.02922 -0.97754,-1.13292 -0.40066,-0.24763 -0.39514,-1.4308 0.007,-1.4308 0.17148,0 0.51674,0.39634 0.76724,0.88076 0.2505,0.48441 0.77247,1.16764 1.15992,1.51828 l 0.70446,0.63753 0.74265,-0.93136 c 0.67872,-0.85121 1.04499,-1.97009 1.30081,-3.97378 0.13886,-1.08762 -0.42272,-2.34878 -1.40707,-3.15992 -0.65428,-0.53914 -0.73181,-0.71124 -0.32434,-0.72 0.29449,-0.006 0.97849,0.36129 1.52,0.81694 0.89849,0.75603 0.98455,0.99672 0.98455,2.75353 0,2.01125 -1.06148,4.78088 -2.1512,5.61293 -0.46314,0.35363 -0.46655,0.45399 -0.0326,0.96 0.26651,0.3108 0.73464,1.21309 1.0403,2.00509 0.30566,0.792 1.048,2.18441 1.64964,3.09423 0.60165,0.90983 1.0939,1.73783 1.0939,1.84 0,0.33285 -0.60655,0.19566 -0.94718,-0.21423 z m -16.73566,-8.72664 c 1.21374,-0.60549 1.45913,-0.92959 1.99838,-2.63931 0.38981,-1.2359 0.371,-1.47964 -0.19751,-2.56 -0.83778,-1.59205 -2.59236,-2.04051 -4.56985,-1.16805 l -1.32026,0.5825 0.0351,1.77575 c 0.0496,2.51231 0.17393,2.7856 1.67649,3.68622 0.73727,0.44191 1.35438,0.80484 1.37134,0.80651 0.017,0.002 0.4698,-0.21596 1.00632,-0.48362 z m -220.51979,6.48664 c 0.10744,-1.78963 0.74021,-5.70484 0.98638,-6.10315 0.10672,-0.17267 -0.0219,-0.47209 -0.28572,-0.66539 -0.26386,-0.1933 -1.25786,-1.4827 -2.20889,-2.86533 -2.07321,-3.01408 -2.54443,-3.8175 -2.35193,-4.01001 0.21727,-0.21727 1.74279,1.29711 1.74279,1.73007 0,0.20604 0.288,0.63526 0.64,0.95381 0.352,0.31856 0.64,0.74778 0.64,0.95382 0,0.20604 0.36105,0.71381 0.80233,1.12837 0.78613,0.73853 0.81178,0.74127 1.26983,0.13579 0.25712,-0.33989 0.47207,-0.83611 0.47766,-1.10272 0.006,-0.2666 0.29566,-1.01738 0.64459,-1.6684 0.34892,-0.65102 0.54951,-1.40488 0.44576,-1.67526 -0.10375,-0.27038 -0.0292,-0.4916 0.16559,-0.4916 0.55866,0 0.55819,0.97346 -0.001,3.04 -0.19066,0.704 -0.50534,1.568 -0.69929,1.92 -0.19395,0.352 -0.46844,1.432 -0.60998,2.4 -0.14155,0.968 -0.34057,2.192 -0.44228,2.72 -0.10171,0.528 -0.25747,1.86 -0.34613,2.96 -0.10363,1.28561 -0.30224,2 -0.55604,2 -0.26399,0 -0.36778,-0.4507 -0.31319,-1.36 z m 243.81126,0.41425 c -0.52792,-0.0985 -1.1032,-0.48209 -1.29249,-0.86177 -0.18762,-0.37632 -0.53404,-0.91667 -0.76983,-1.20078 -0.43944,-0.52949 -0.53916,-4.42077 -0.13025,-5.08241 0.11369,-0.18395 0.22639,-1.48906 0.25045,-2.90025 0.0312,-1.82883 0.16687,-2.60683 0.4724,-2.70867 0.34986,-0.11662 0.38658,0.49703 0.19977,3.33837 -0.46363,7.0519 -0.24895,8.11161 1.74132,8.59536 1.54012,0.37433 1.89577,-0.3059 2.08826,-3.9941 0.20618,-3.95039 0.736,-6.72 1.28553,-6.72 0.5059,0 0.7631,1.01085 0.62775,2.46721 -0.059,0.63466 0.0241,1.49937 0.18461,1.92157 0.43069,1.1328 -0.52344,4.57227 -1.64624,5.93443 -1.02146,1.2392 -1.60432,1.4736 -3.01128,1.21104 z m -191.6935,-0.6696 c -0.1144,-0.36045 -0.0345,-0.86445 0.17761,-1.12 0.2472,-0.29785 0.26392,-0.46465 0.0466,-0.46465 -0.22431,0 -0.33416,-1.62557 -0.32463,-4.80342 0.0153,-5.11319 -0.30817,-6.39658 -1.61248,-6.39658 -1.31885,0 -1.73042,1.06932 -1.81536,4.71655 -0.0441,1.8939 -0.0952,3.70547 -0.11352,4.02571 -0.0237,0.41386 -0.24158,0.55268 -0.75334,0.48 -0.70964,-0.10079 -0.7223,-0.18588 -0.88,-5.91575 -0.088,-3.19743 -0.26293,-5.91636 -0.38874,-6.04208 -0.33946,-0.33921 0.33701,-1.42443 0.88792,-1.42443 0.57976,0 1.15436,1.38651 1.16039,2.8 0.004,0.99128 0.61689,1.43766 1.03801,0.75628 0.0964,-0.15605 0.6954,-0.38129 1.33101,-0.50053 0.8708,-0.16336 1.30722,-0.0796 1.77056,0.33969 0.58939,0.53338 0.65842,0.51431 1.66312,-0.45948 1.1964,-1.1596 2.70085,-1.35624 3.48844,-0.45596 0.79172,0.90502 1.38904,12.26664 0.61991,11.79129 -0.14816,-0.0916 -0.3604,-2.47852 -0.47165,-5.30433 -0.21064,-5.35029 -0.45931,-6.40696 -1.50779,-6.40696 -0.85166,0 -2.1293,1.16483 -2.40785,2.19524 -0.12561,0.46462 -0.26443,3.43676 -0.30851,6.60476 -0.0441,3.168 -0.0969,5.868 -0.11748,6 -0.0831,0.53379 -1.28815,0.19609 -1.48221,-0.41535 z m 140.62407,-1.66465 c -0.0857,-6.9247 -0.0142,-7.6 0.80499,-7.6 0.63868,0 0.83404,1.2415 0.79028,5.0222 -0.045,3.8869 -0.12938,4.2578 -0.96871,4.2578 -0.51478,0 -0.60888,-0.2523 -0.62656,-1.68 z m 73.71468,0.65357 c -0.49694,-0.6285 -0.96987,-7.18923 -0.77373,-10.73357 0.0447,-0.80682 0.67985,-1.00615 0.67985,-0.21333 0,0.27867 0.108,0.45107 0.24,0.38313 1.51817,-0.78149 2.82509,-1.22784 3.36062,-1.14776 0.79404,0.11873 1.73819,1.35228 2.03438,2.65796 0.27994,1.23401 0.66895,7.23527 0.50302,7.76 -0.24829,0.78516 -0.6983,0.38198 -0.71435,-0.64 -0.0243,-1.54833 -0.23374,-5.03775 -0.38242,-6.37173 -0.11172,-1.00239 -0.97157,-2.82827 -1.33189,-2.82827 -0.72845,0 -2.25193,1.08079 -2.92819,2.07731 -0.73889,1.08881 -0.82399,1.46272 -0.65258,2.86739 0.64428,5.27978 0.71205,6.11927 0.51258,6.34887 -0.12116,0.13945 -0.36744,0.0675 -0.54729,-0.16 z m -328.41388,-0.34957 c 0,-0.2288 0.16994,-0.58594 0.37764,-0.79364 0.20771,-0.2077 0.45971,-0.96187 0.56,-1.67594 0.20789,-1.48002 0.55672,-1.71707 1.16903,-0.79442 0.37211,0.56072 0.3075,0.8283 -0.52156,2.16 -0.9224,1.48165 -1.58511,1.94321 -1.58511,1.104 z m 313.7589,-0.944 c -0.0953,-0.396 -0.15261,-1.656 -0.12734,-2.8 0.0253,-1.144 -0.0612,-2.88438 -0.19216,-3.86751 -0.27359,-2.05392 0.20349,-3.48083 0.95521,-2.85696 0.27556,0.22869 0.4357,1.10218 0.44591,2.43217 0.009,1.14142 0.11514,2.23585 0.23641,2.43206 0.33509,0.54219 0.38215,4.1844 0.0623,4.82024 -0.39593,0.78704 -1.17407,0.69684 -1.3803,-0.16 z m 30.15284,0.35697 c -0.78202,-0.43764 -0.72382,-2.26205 0.0958,-3.00381 0.82746,-0.74884 1.26447,-0.34662 1.4956,1.37655 0.14012,1.04472 0.0585,1.34832 -0.43352,1.61162 -0.39376,0.21073 -0.7995,0.21621 -1.1579,0.0156 z m -166.11592,-0.40938 c -0.5083,-0.22866 -1.26356,-0.97641 -1.67836,-1.66167 -0.71936,-1.18839 -0.75426,-1.51694 -0.75582,-7.11587 -0.002,-5.60013 -0.0311,-5.87766 -0.64164,-6.03733 -0.80479,-0.21045 -0.80351,-0.22012 0.15678,-1.1804 0.47379,-0.4738 0.71934,-0.99855 0.60576,-1.29455 -0.10506,-0.27377 -0.0316,-0.49777 0.16322,-0.49777 0.29723,0 0.52406,1.14816 0.39401,1.99438 -0.0449,0.29215 0.98657,0.53128 2.76588,0.64123 2.06628,0.12769 1.46854,0.72439 -0.72565,0.72439 h -1.92 l -0.0273,5.68444 c -0.0168,3.50884 0.10563,5.9465 0.32,6.36916 0.6362,1.25429 1.87392,1.90124 3.66392,1.91511 1.11839,0.009 1.63575,0.13582 1.55475,0.38214 -0.17156,0.52169 -2.77197,0.57318 -3.87555,0.0767 z m 140.52668,-1.08429 c -0.74938,-0.59276 -1.40334,-1.11833 -1.45327,-1.16795 -0.0499,-0.0496 -0.216,-1.20699 -0.36908,-2.57194 -0.26752,-2.38548 -0.24538,-2.52868 0.57077,-3.69255 1.39128,-1.98404 2.1998,-2.30852 4.74078,-1.9026 2.20066,0.35156 2.9883,0.72455 2.9883,1.41515 0,0.21177 0.36,0.72323 0.8,1.13659 1.10842,1.04131 1.00666,1.39 -0.33236,1.1388 -1.42041,-0.26647 -7.58613,0.44674 -7.90274,0.91414 -0.74761,1.10365 0.33201,3.4513 1.93983,4.21818 0.6464,0.30831 1.55067,0.56162 2.0095,0.56291 0.89479,0.002 3.0142,-0.8899 3.33106,-1.40259 0.2254,-0.36469 1.12103,-0.4228 1.10108,-0.0714 -0.007,0.132 -0.71112,0.7776 -1.5636,1.43466 -2.06945,1.59507 -3.83371,1.59164 -5.86027,-0.0114 z m 6.13872,-6.97785 c 0.0788,-0.0788 -0.16718,-0.45363 -0.54657,-0.83302 -0.51054,-0.51054 -1.17117,-0.71838 -2.54222,-0.7998 -1.58443,-0.0941 -1.98565,0.002 -2.77323,0.66323 -1.45196,1.21929 -0.88719,1.49868 2.61595,1.29406 1.70656,-0.0997 3.16729,-0.24569 3.24607,-0.32447 z m -329.90122,7.39455 c 0,-0.57708 -0.0631,-0.58332 -1.104,-0.10906 -0.93494,0.42598 -3.13081,-0.0737 -4.096,-0.9321 -0.67429,-0.59967 -0.72129,-2.22289 -0.12273,-4.23884 0.51642,-1.7393 1.43243,-2.33107 3.26233,-2.10754 l 1.2996,0.15874 -0.1796,-1.32821 c -0.14627,-1.08175 -0.38057,-1.44548 -1.26267,-1.96021 -0.93141,-0.5435 -1.2663,-0.58309 -2.39158,-0.28274 -0.71968,0.19209 -1.42264,0.27872 -1.56215,0.1925 -0.46948,-0.29016 0.0952,-0.73281 1.37402,-1.07717 1.68491,-0.4537 3.97305,0.47795 4.48764,1.82721 0.40222,1.05461 0.9202,4.74071 1.12662,8.01742 0.12167,1.93128 0.0643,2.32 -0.34266,2.32 -0.26885,0 -0.48882,-0.216 -0.48882,-0.48 z m -1.5738,-2.48 c 0.20279,-0.396 0.66433,-0.95508 1.02565,-1.2424 0.58952,-0.4688 0.61513,-0.62336 0.24948,-1.5061 -0.28282,-0.6828 -0.75783,-1.09932 -1.55294,-1.36173 -1.07685,-0.35539 -1.19198,-0.324 -1.92132,0.52391 -0.63478,0.73797 -0.74435,1.13665 -0.60267,2.19291 0.26732,1.99305 2.04259,2.87594 2.8018,1.39341 z m 49.71687,2.55126 c -0.0931,-0.24249 -0.0414,-0.78972 0.11486,-1.21607 0.15623,-0.42635 0.24667,-2.46645 0.20097,-4.53355 -0.0804,-3.63928 0.13973,-4.67054 0.76039,-3.56148 0.27759,0.49602 0.35164,0.4965 1.05087,0.007 0.82327,-0.57663 2.38163,-0.70559 2.68061,-0.22182 0.1037,0.16778 -0.36894,0.45518 -1.0503,0.63865 -2.04999,0.552 -2.27051,1.0193 -2.24996,4.76782 0.0162,2.95979 -0.0513,3.36161 -0.66009,3.9288 -0.53414,0.49763 -0.7141,0.53818 -0.84735,0.19092 z m 87.94579,0.009 c -0.17023,-0.22 -0.40416,-0.66455 -0.51984,-0.98789 -0.19608,-0.54803 -0.27383,-0.53446 -1.14671,0.20002 -1.11187,0.93557 -1.89731,0.85795 -3.69294,-0.36495 -1.65518,-1.12726 -2.11928,-2.55221 -1.3005,-3.99305 0.31696,-0.55777 0.80065,-1.19413 1.07487,-1.41413 0.67021,-0.53769 4.96018,-0.55177 4.78149,-0.0157 -0.0824,0.24715 -0.70233,0.35383 -1.73705,0.29891 -1.34621,-0.0714 -1.77381,0.0533 -2.61856,0.76414 -1.49052,1.25419 -1.38814,2.43443 0.31839,3.67064 0.73041,0.5291 1.43748,0.96201 1.57127,0.96201 0.13379,0 0.9716,-0.57573 1.86182,-1.27941 l 1.61856,-1.2794 -0.0314,-2.6406 c -0.0173,-1.45232 -0.13124,-2.78459 -0.25322,-2.96059 -0.12197,-0.176 -0.2408,-0.67722 -0.26406,-1.11382 -0.0516,-0.96813 -0.85686,-1.60618 -2.02717,-1.60618 -0.62687,0 -1.19069,0.3701 -1.99458,1.30926 -0.87093,1.01749 -1.26871,1.26228 -1.78493,1.09844 -1.02921,-0.32666 -0.79526,-1.11189 0.78136,-2.62256 1.37279,-1.31537 1.54123,-1.38514 3.34371,-1.38514 1.7692,0 1.95071,0.0706 2.67279,1.04 0.42607,0.572 0.81207,1.292 0.85776,1.6 0.0983,0.66288 0.11846,7.98075 0.0257,9.35058 -0.10114,1.49361 -0.89396,2.20011 -1.53672,1.36942 z m 5.8463,0.17388 c -1.51272,-0.2384 -2.25415,-1.76674 -1.4427,-2.97388 0.27253,-0.40541 0.43524,-0.34325 1.04712,0.4 0.43365,0.52675 1.04077,0.87952 1.51244,0.87881 0.80179,-0.001 2.84419,-1.06868 2.89698,-1.5141 0.016,-0.13459 0.0813,-0.99372 0.1453,-1.90919 0.11538,-1.65137 0.10427,-1.67406 -1.41034,-2.88 -0.83965,-0.66854 -2.12595,-1.50352 -2.85845,-1.85552 -3.22948,-1.55193 -1.90685,-4.64 1.98734,-4.64 1.1369,0 1.52072,0.14217 1.80182,0.66741 0.47658,0.89049 0.18629,1.10964 -0.6728,0.50791 -0.50626,-0.3546 -0.91287,-0.40884 -1.47179,-0.19634 -0.42475,0.16149 -0.94387,0.25929 -1.15358,0.21732 -0.20972,-0.042 -0.42706,0.2196 -0.48298,0.58126 -0.0797,0.51532 0.46172,1.02451 2.50295,2.35403 1.93839,1.26253 2.72504,1.98467 3.07539,2.82318 0.60462,1.44706 0.47902,4.4471 -0.23586,5.63338 -0.89672,1.48805 -3.01155,2.25706 -5.24084,1.90573 z m -104.65862,-0.38385 c -0.17791,-0.1787 -0.87124,-0.39285 -1.54074,-0.47589 -0.75444,-0.0936 -1.7314,-0.57227 -2.56948,-1.25902 -1.31882,-1.08067 -1.35414,-1.16024 -1.43027,-3.22204 -0.0826,-2.2365 0.12105,-2.86058 1.3747,-4.21329 0.68648,-0.74073 0.98095,-0.82764 2.47423,-0.73027 l 1.69502,0.11052 -0.0219,-4.08 c -0.0169,-3.14937 0.0732,-4.08 0.39492,-4.08 0.32177,0 0.41406,0.95647 0.40491,4.1961 -0.009,3.35641 0.0876,4.30597 0.48509,4.74519 0.64065,0.70791 0.634,1.51021 -0.0155,1.8737 -0.41481,0.23214 -0.4777,0.64678 -0.33001,2.1759 0.26955,2.79089 0.25041,3.21663 -0.19327,4.29837 -0.27302,0.66566 -0.50927,0.88016 -0.72772,0.66073 z m -0.48156,-1.62011 c 0.36617,-0.23153 0.4798,-1.03872 0.49599,-3.52343 0.0261,-4.00489 -0.23586,-4.39998 -2.4188,-3.64789 -2.08769,0.71926 -2.2327,0.92239 -2.2278,3.12063 0.006,2.4786 0.25163,3.39811 0.91295,3.41099 0.28747,0.006 0.8022,0.2216 1.14384,0.48 0.71179,0.53837 1.41063,0.59167 2.09382,0.1597 z m 209.70773,1.35012 c -0.10846,-0.308 -0.41182,-1.064 -0.67414,-1.68 -0.43618,-1.02427 -0.63962,-1.89353 -1.19826,-5.12 -0.10666,-0.616 -0.32238,-1.408 -0.4794,-1.76 -0.15701,-0.352 -0.35148,-1.11335 -0.43215,-1.69189 -0.2521,-1.80791 -1.26287,-4.69127 -1.78149,-5.08194 -0.54003,-0.40681 -0.36824,-0.75129 0.43335,-0.86893 0.28009,-0.0411 0.715,-0.35431 0.96646,-0.69599 0.43736,-0.59428 0.46704,-0.59587 0.68371,-0.0367 0.12457,0.32148 0.57552,0.71721 1.00211,0.8794 0.79577,0.30255 0.74174,0.93609 -0.0798,0.93609 -0.34138,0 -0.42123,0.29626 -0.31129,1.15496 0.0813,0.63522 0.27939,1.31922 0.44012,1.52 0.16074,0.20077 0.37711,0.86904 0.48083,1.48504 0.10372,0.616 0.27995,1.65495 0.39162,2.30878 0.11167,0.65384 0.40388,1.35547 0.64934,1.55918 0.24547,0.20372 0.4463,0.61197 0.4463,0.90722 0,0.29525 0.13292,0.67362 0.29538,0.84082 0.16245,0.1672 0.34245,0.72489 0.4,1.23932 0.10518,0.94029 0.90462,1.59508 0.90462,0.74094 0,-0.25139 0.288,-0.71771 0.64,-1.03626 0.352,-0.31856 0.64,-0.71182 0.64,-0.87391 0,-0.16209 0.64335,-1.13079 1.42967,-2.15267 0.78632,-1.02188 1.60944,-2.27094 1.82916,-2.77569 0.21972,-0.50475 0.71,-1.34973 1.0895,-1.87773 0.3795,-0.528 0.82838,-1.392 0.9975,-1.92 0.24887,-0.77696 0.48547,-0.96 1.24084,-0.96 0.7132,0 0.9566,0.16333 1.03198,0.69251 0.067,0.47044 -0.11256,0.75955 -0.56,0.90156 -0.36226,0.11498 -0.65865,0.47885 -0.65865,0.8086 0,0.32976 -0.1216,0.67471 -0.27022,0.76656 -0.14863,0.0918 -0.74392,1.14435 -1.32288,2.33889 -0.57896,1.19453 -1.57762,2.89188 -2.21923,3.77188 -0.64162,0.88 -1.39575,1.96 -1.67585,2.4 -0.28009,0.44 -1.03184,1.36814 -1.67054,2.06253 -0.63871,0.69439 -1.16128,1.37839 -1.16128,1.52 0,0.50875 -1.30441,0.24519 -1.49729,-0.30253 z m 1.02,-1.28 c -0.12418,-0.308 -0.30342,-1.136 -0.39832,-1.84 -0.16905,-1.25394 -0.89299,-3.04 -1.23221,-3.04 -0.24342,0 0.21062,2.88361 0.60462,3.84 0.30139,0.73159 0.38821,0.98006 0.5032,1.44 0.022,0.088 0.19941,0.16 0.39424,0.16 0.21004,0 0.26233,-0.22795 0.12847,-0.56 z m 4.44305,-4.74617 c 0.10683,-0.27839 0.19424,-0.72803 0.19424,-0.99918 0,-0.40195 -0.0887,-0.41943 -0.48,-0.0947 -0.51903,0.43076 -0.66098,1.6 -0.19424,1.6 0.15717,0 0.37317,-0.22778 0.48,-0.50617 z m 2.43424,-4.15271 c 0,-0.27439 -0.144,-0.40989 -0.32,-0.30112 -0.176,0.10878 -0.32,0.33328 -0.32,0.49889 0,0.16561 0.144,0.30111 0.32,0.30111 0.176,0 0.32,-0.2245 0.32,-0.49888 z m -212.48,9.31335 c -0.792,-0.58467 -1.39895,-1.23827 -1.34877,-1.45244 0.0502,-0.21416 -0.0282,-0.55424 -0.17423,-0.75571 -0.41149,-0.56783 -0.47784,-5.21734 -0.0849,-5.95149 0.28697,-0.5362 0.66486,-0.65483 2.08605,-0.65483 4.2315,0 5.9574,2.81318 4.33899,7.07248 -1.18978,3.13124 -2.36133,3.5549 -4.8171,1.74199 z m 3.01917,-0.16655 c 0.45146,-0.17164 0.82083,-0.53879 0.82083,-0.81589 0,-0.27709 0.23311,-0.95459 0.51802,-1.50555 0.44024,-0.85133 0.46165,-1.25366 0.14259,-2.67938 -0.20649,-0.9227 -0.56234,-1.83275 -0.79077,-2.02234 -0.63519,-0.52715 -4.21316,-0.8248 -4.49197,-0.37368 -0.12679,0.20516 -0.23957,1.2676 -0.25061,2.36097 -0.0254,2.51185 0.73652,4.46616 1.92441,4.93624 1.15707,0.45789 1.18212,0.45907 2.1275,0.0996 z m 114.08792,1.06442 c -0.57531,-0.15573 -1.46559,-1.77602 -1.73208,-3.15234 -0.52295,-2.70082 0.0492,-7.81021 0.99122,-8.85108 0.44911,-0.49626 0.81183,-0.58922 1.6705,-0.42813 1.15177,0.21607 2.73591,1.09323 2.46452,1.36463 -0.0873,0.0873 0.009,0.4638 0.21462,0.83666 0.48613,0.88271 0.58557,1.49978 0.36023,2.23542 -0.1549,0.50566 -0.42282,0.57446 -1.74305,0.4476 -1.17515,-0.11292 -1.67638,-0.0213 -2.03171,0.37133 -0.61221,0.67648 -0.74415,2.70542 -0.21723,3.34033 0.22604,0.27237 0.32134,0.64026 0.21177,0.81755 -0.26188,0.42374 0.95324,1.62569 1.6435,1.62569 0.29665,0 0.87208,-0.31256 1.27873,-0.69459 1.28192,-1.2043 1.15872,-0.39414 -0.14913,0.98069 -1.16702,1.22679 -1.73409,1.43859 -2.96189,1.10624 z m 3.08973,-8.5729 c 0.22869,-0.59594 -0.51247,-2.10114 -1.25556,-2.54992 -0.46066,-0.2782 -0.67286,-0.22277 -1.04,0.27164 -0.56709,0.76368 -0.60452,2.3077 -0.0613,2.52691 0.83704,0.33776 2.18643,0.19541 2.35682,-0.24863 z m 3.20454,8.52749 c -0.50546,-0.81785 -0.90631,-10.04412 -0.48546,-11.17362 0.18053,-0.4845 0.27016,-0.42978 0.57865,0.35328 l 0.36503,0.92658 0.71021,-0.63222 c 0.39062,-0.34772 1.28621,-0.81004 1.99021,-1.02737 0.704,-0.21734 1.45911,-0.46951 1.67803,-0.56038 0.767,-0.31837 1.65528,3.0918 1.84597,7.0868 0.0588,1.232 0.21063,2.86473 0.33739,3.62828 0.22078,1.32992 0.19861,1.38372 -0.52745,1.28 -1.19934,-0.17134 -1.57233,-1.35527 -1.44551,-4.58828 0.0621,-1.584 0.20277,-3.3731 0.31252,-3.97579 0.23479,-1.28937 -0.55005,-2.83108 -1.18236,-2.32257 -0.20822,0.16745 -0.83664,0.40234 -1.39648,0.52198 -0.55984,0.11964 -1.18947,0.42427 -1.39918,0.67695 -0.20971,0.25269 -0.5952,0.45943 -0.85665,0.45943 -0.40223,0 -0.44959,0.55381 -0.30788,3.6 0.0921,1.98 0.22448,4.0763 0.29416,4.65844 0.12158,1.01588 -0.17102,1.63891 -0.5112,1.08849 z M 91.76972,192.18793 c -0.2938,-0.76564 -0.14932,-9.25188 0.16818,-9.87807 0.47811,-0.94296 0.91144,-0.278 0.69617,1.06828 -0.11088,0.69337 -0.0752,1.26061 0.0793,1.26053 0.15449,-9e-5 0.90007,-0.71915 1.65685,-1.59791 0.75677,-0.87876 1.72982,-1.68657 2.16233,-1.79512 1.04006,-0.26104 2.37665,0.61964 2.36448,1.55795 -0.005,0.39338 0.14218,2.11806 0.32729,3.83262 0.43461,4.02553 0.4405,4.10309 0.38065,5.01595 -0.078,1.18922 -0.4316,0.54522 -0.54728,-0.99665 -0.0568,-0.75718 -0.2514,-2.52869 -0.43245,-3.93669 -0.6427,-4.99841 -1.21891,-5.82709 -2.91424,-4.19121 -2.53705,2.44807 -3.27258,4.02597 -3.32314,7.12908 -0.0421,2.5807 -0.25871,3.46791 -0.61814,2.53124 z m 13.02496,-0.38407 c -1.41087,-0.91482 -2.33479,-2.20683 -2.56436,-3.58601 -0.0786,-0.47246 -0.24492,-2.65903 -0.36952,-4.85903 l -0.22653,-4 -1.73515,-0.16 c -1.06092,-0.0978 -1.79069,-0.32873 -1.87808,-0.59424 -0.11216,-0.34077 0.26133,-0.40965 1.73515,-0.32 1.84326,0.11212 1.87996,0.0979 1.97934,-0.76576 0.11655,-1.01295 0.69874,-1.20455 0.69874,-0.22995 0,0.70121 0.17188,0.7957 2,1.09952 1.64704,0.27373 1.51282,0.81043 -0.20268,0.81043 -1.18412,0 -1.43274,0.11219 -1.59563,0.72 -0.28376,1.05885 -0.24364,6 0.0487,6 0.13773,0 0.28002,0.6804 0.31621,1.512 0.0576,1.32371 0.2438,1.69 1.49514,2.94134 1.32863,1.32862 1.54369,1.4276 3.05239,1.40484 1.21804,-0.0184 1.54441,0.0703 1.30786,0.35532 -0.61511,0.74116 -2.66804,0.57514 -4.0616,-0.32846 z m 93.35467,-0.17536 c -0.60513,-1.06396 -1.17234,-1.17006 -1.40939,-0.26361 -0.15102,0.57752 -0.26045,0.60437 -1.0314,0.25311 -0.83173,-0.37897 -0.85431,-0.45611 -0.63392,-2.16607 0.43448,-3.37101 0.56373,-6.27409 0.51347,-11.53253 l -0.0505,-5.27943 0.72832,0.72848 c 0.68271,0.68286 0.72765,0.98335 0.71774,4.79942 -0.006,2.23903 -0.064,4.79095 -0.12931,5.67095 -0.20712,2.79095 -0.0649,4.49281 0.34142,4.08646 0.19884,-0.19884 0.40329,-0.74186 0.45431,-1.20671 0.13861,-1.26269 1.45605,-2.99601 2.54415,-3.34727 0.528,-0.17045 1.68,-0.35378 2.56,-0.40739 1.68956,-0.10294 1.73176,-0.16532 1.35644,-2.00509 -0.16243,-0.79621 -1.71226,-1.61448 -2.25303,-1.18953 -0.4832,0.3797 -2.14341,0.78784 -2.14341,0.52692 0,-0.60102 1.58055,-1.3972 2.79262,-1.40674 1.6717,-0.0132 2.26154,0.73651 2.54053,3.22888 0.10592,0.94626 0.39292,1.95183 0.63779,2.23459 0.38174,0.44083 0.37563,0.57187 -0.0429,0.91918 -0.34535,0.28662 -0.49105,1.02524 -0.49825,2.52589 -0.0112,2.34551 -0.25698,2.83125 -2.04677,4.04583 -0.92721,0.62922 -1.54127,0.79264 -2.80971,0.74775 -1.41868,-0.0502 -1.68808,-0.17155 -2.13826,-0.96309 z m 5.20799,-1.10657 c 0.8039,-1.00752 0.93383,-1.46283 1.00635,-3.52674 0.0752,-2.13991 0.0167,-2.40584 -0.60307,-2.74053 -2.46242,-1.32982 -5.6205,1.287 -5.7521,4.76626 -0.0707,1.86867 0.80268,2.65791 2.9412,2.65789 1.32208,0 1.58557,-0.12661 2.40762,-1.15688 z m 107.97953,1.7384 c -0.24693,-0.731 -0.0831,-4.89536 0.21138,-5.37177 0.15495,-0.25071 0.24424,-1.162 0.19843,-2.02509 -0.0849,-1.59977 0.44155,-3.42465 0.98798,-3.42465 0.1665,0 0.21518,0.27588 0.10816,0.61307 -0.2686,0.84629 0.16411,1.02021 1.57149,0.63161 1.26973,-0.35059 1.9215,-0.13569 1.13069,0.37281 -0.2589,0.16647 -1.01073,0.45219 -1.67073,0.63493 -0.66,0.18274 -1.21108,0.5067 -1.22463,0.71992 -0.0135,0.21321 -0.0835,0.81966 -0.15539,1.34766 -0.0719,0.528 -0.21848,2.184 -0.3257,3.68 -0.18572,2.59127 -0.52297,3.73541 -0.83168,2.82151 z m 6.1374,-4.90151 c 0,-4.83102 0.18286,-5.95855 0.80348,-4.95436 0.12328,0.19946 0.51927,0.0755 1.02204,-0.32 0.45143,-0.3551 1.23337,-0.64564 1.73763,-0.64564 1.02082,0 0.97131,-0.2056 0.92465,3.84 -0.0152,1.32 -0.016,3.28706 -0.002,4.37125 0.0143,1.08418 -0.12527,2.06468 -0.31006,2.17888 -0.31634,0.19551 -0.57076,-4.49667 -0.38118,-7.03013 0.18497,-2.4719 -0.77798,-3.08583 -2.31833,-1.47806 -0.87019,0.90829 -0.88251,0.97821 -0.83194,4.72 0.063,4.66225 0.0676,4.59806 -0.32452,4.59806 -0.2004,0 -0.32,-1.97333 -0.32,-5.28 z m -176.61126,3.67256 c -0.89581,-0.70809 -1.62874,-1.45607 -1.62874,-1.66217 0,-0.2061 -0.35935,0.11235 -0.79857,0.70767 -1.05349,1.42793 -1.35518,1.59125 -2.95017,1.59704 -1.04273,0.004 -1.42978,-0.14652 -1.70593,-0.6625 -0.4736,-0.88494 -0.13678,-1.16885 0.59791,-0.50397 0.83798,0.75836 1.64855,0.65898 2.67925,-0.3285 0.71308,-0.68317 0.89751,-1.14492 0.89751,-2.24704 0,-1.30481 -0.0903,-1.44504 -1.52,-2.36146 -1.14319,-0.73276 -1.77232,-0.93521 -2.53783,-0.81667 -0.74783,0.1158 -1.22331,-0.0271 -1.79245,-0.53867 -1.0689,-0.96079 -1.20856,-1.54131 -0.71654,-2.97826 0.40109,-1.1714 0.50309,-1.24328 1.89536,-1.33556 0.88024,-0.0583 1.47146,0.0381 1.47146,0.24 0,0.18564 -0.396,0.33974 -0.88,0.34243 -1.02737,0.006 -1.37853,0.22106 -1.90649,1.16913 -0.32441,0.58254 -0.28212,0.82669 0.26323,1.52 0.51392,0.65334 0.93015,0.82597 1.99148,0.82597 1.83887,0 3.44719,0.9247 4.15057,2.38635 0.31833,0.66151 0.6579,1.12363 0.7546,1.02693 0.0967,-0.0967 0.19625,-1.57629 0.22122,-3.28798 0.0292,-2.00037 0.17516,-3.15539 0.40865,-3.23315 0.25707,-0.0856 0.3726,1.0545 0.3952,3.90004 0.0332,4.17592 0.47345,5.92781 1.48976,5.92781 0.25948,0 0.47178,0.15402 0.47178,0.34226 0,0.18824 0.32265,0.29624 0.717,0.24 1.39214,-0.19854 2.59521,-4.01536 2.5364,-8.04689 -0.0307,-2.10817 0.0587,-2.79145 0.3527,-2.69381 0.90673,0.30113 0.23507,8.44441 -0.74653,9.05107 -0.16476,0.10183 -0.29957,0.52848 -0.29957,0.94811 0,0.74589 -1.03826,1.75926 -1.80247,1.75926 -0.20903,0 -1.11299,-0.57934 -2.00879,-1.28744 z m 184.05686,-0.1366 c -0.38309,-0.74069 -0.4397,-1.49893 -0.26279,-3.52 0.41662,-4.75956 0.53689,-5.13564 1.78109,-5.56937 1.25369,-0.43703 3.36208,0.42559 3.84068,1.57137 0.54655,1.30846 0.19309,6.14454 -0.54092,7.40083 -0.58909,1.00826 -0.71259,1.06121 -2.47491,1.06121 -1.73034,0 -1.88767,-0.0634 -2.34315,-0.94404 z m 4.19403,-0.9287 c 0.54531,-1.30509 0.85764,-5.22202 0.4936,-6.19004 -0.30584,-0.81324 -2.3257,-1.34482 -3.14547,-0.82781 -1.14453,0.72184 -1.51733,6.55531 -0.4849,7.58774 0.27657,0.27657 0.99464,0.50285 1.5957,0.50285 0.93733,0 1.15664,-0.15265 1.54107,-1.07274 z m 18.06799,1.33163 c -0.0288,-0.23039 -0.0799,-0.99489 -0.11343,-1.69889 -0.1065,-2.23331 -0.14777,-2.44174 -0.44686,-2.25689 -0.16097,0.0995 -0.34097,0.072 -0.4,-0.0611 -0.059,-0.1331 -0.71186,-0.56599 -1.45073,-0.96199 -2.6839,-1.43845 -6.19771,-0.5648 -6.68767,1.66278 -0.16923,0.76942 -0.0498,1.07836 0.6497,1.68001 1.3902,1.1958 2.49236,0.94304 4.76983,-1.09385 1.45506,-1.30137 1.82113,-1.17777 0.90449,0.30539 -1.20428,1.94855 -3.63906,2.55642 -6.22973,1.5553 -0.84388,-0.32611 -0.89107,-0.44512 -0.8,-2.01781 0.0915,-1.58036 0.17375,-1.72284 1.51203,-2.61979 0.98049,-0.65716 1.92927,-0.99117 3.08854,-1.0873 1.47972,-0.12271 1.84612,-0.0199 3.16724,0.8891 0.82167,0.56532 1.58497,0.93683 1.69623,0.82558 0.11125,-0.11125 0.21626,-1.49313 0.23336,-3.07085 l 0.0311,-2.86856 h -1.64625 c -1.23986,0 -1.78924,0.15799 -2.22545,0.64 -0.31856,0.352 -0.77287,0.64 -1.0096,0.64 -0.23672,0 -0.43519,0.108 -0.44105,0.24 -0.0181,0.40855 -1.27509,1.78092 -1.46095,1.59507 -0.33109,-0.3311 0.78734,-1.99517 1.95554,-2.90957 1.20818,-0.94568 3.3436,-1.39864 4.83228,-1.02501 l 0.76376,0.1917 v 5.73501 c 0,3.47817 -0.12593,5.81285 -0.32,5.93279 -0.176,0.10878 -0.34357,0.009 -0.37238,-0.22111 z M 82.372418,191.0666 c -2.087471,-0.25389 -3.431469,-1.36116 -3.179761,-2.6197 0.09182,-0.45911 -0.0053,-1.0071 -0.215718,-1.21776 -0.264263,-0.26451 -0.353718,-1.52443 -0.289108,-4.07189 0.10528,-4.151 -0.0081,-4.77959 -0.904157,-5.01392 -0.85316,-0.2231 -0.796861,-0.79621 0.0906,-0.92225 0.598536,-0.085 0.7366,-0.33169 0.818399,-1.46226 0.07919,-1.09452 0.21855,-1.36 0.713904,-1.36 0.61437,0 1.008406,0.92821 1.243213,2.92858 0.01347,0.11472 0.888484,0.30886 1.944484,0.43142 1.405862,0.16317 1.92,0.35296 1.92,0.70875 0,0.36055 -0.185733,0.42496 -0.72,0.24967 -0.396,-0.12992 -1.34167,-0.30598 -2.101488,-0.39125 l -1.381488,-0.15503 0.02281,1.87393 c 0.01254,1.03066 0.01214,2.16193 -9.03e-4,2.51393 -0.01304,0.352 0.07114,1.576 0.187072,2.72 0.115931,1.144 0.207093,2.3302 0.202581,2.636 -0.0128,0.86774 1.228978,1.524 2.883735,1.524 0.830451,0 1.604517,0.15308 1.720145,0.34017 0.205013,0.33172 -0.723222,1.62442 -1.102058,1.53478 -0.104722,-0.0248 -0.938238,-0.13601 -1.852258,-0.24717 z m 300.480022,-0.22076 c -1.13967,-0.56809 -1.30043,-1.10669 -1.04767,-3.51011 0.23131,-2.19945 1.6088,-3.73501 3.39394,-3.78341 1.6028,-0.0435 1.92575,0.57578 0.36772,0.7051 -0.92881,0.0771 -1.38929,0.35621 -2.11169,1.28 -1.21993,1.56002 -1.36371,3.66291 -0.29794,4.35768 0.75136,0.4898 4.0336,0.76638 4.64088,0.39106 0.1938,-0.11978 0.43667,-0.0814 0.5397,0.0853 0.55936,0.90507 -3.85497,1.28683 -5.48494,0.47434 z M 304.82936,190.263 c -0.76685,-0.76684 -0.8341,-1.01834 -0.67334,-2.51805 0.28265,-2.63672 0.54957,-3.49352 1.54088,-4.94613 0.85256,-1.24929 1.64642,-1.71463 1.9107,-1.12 0.0587,0.132 0.52862,0.456 1.04433,0.72 0.81523,0.41733 0.95328,0.6889 1.05735,2.08 0.13102,1.7513 -0.62886,5.171 -1.29764,5.83978 -0.23193,0.23193 -0.94114,0.50598 -1.57602,0.60901 -0.96367,0.15638 -1.29504,0.0466 -2.00626,-0.66461 z m 3.1784,-0.90418 c 0.46037,-0.70788 0.93355,-3.32188 0.93973,-5.19134 0.003,-0.82716 -0.14021,-0.98096 -1.09504,-1.17822 -0.62504,-0.12912 -1.14496,-0.0959 -1.20675,0.0771 -0.0597,0.16716 -0.28897,0.48433 -0.50946,0.70482 -0.85105,0.85105 -1.20597,1.97759 -1.20597,3.82778 0,2.08629 0.26695,2.46675 1.73662,2.475 0.55654,0.003 1.04224,-0.2559 1.34087,-0.7151 z m -80.50326,0.48 c -0.0274,-0.484 -0.0247,-1.18655 0.006,-1.56122 0.0307,-0.37467 -0.16292,-1.52093 -0.43024,-2.54723 -0.52326,-2.00895 -0.65954,-5.07655 -0.21327,-4.80074 0.15002,0.0927 0.36053,1.10842 0.4678,2.25712 0.10727,1.14869 0.34452,2.36787 0.52723,2.70927 0.427,0.79785 0.43719,4.8228 0.0122,4.8228 -0.176,0 -0.3424,-0.396 -0.36977,-0.88 z m 164.04519,-0.12837 c -0.12613,-0.58939 -0.39269,-1.27375 -0.59237,-1.52079 -0.37134,-0.45943 -0.62166,-9.88591 -0.30893,-11.63363 0.27021,-1.51016 0.79098,-0.5861 0.741,1.31486 -0.0261,0.99436 -0.0357,2.73025 -0.0213,3.85753 0.0251,1.96468 0.0505,2.02765 0.61141,1.52 0.80762,-0.73089 3.31208,-0.71175 3.97835,0.0304 0.75438,0.84029 0.89701,6.96687 0.15645,6.71998 -0.26897,-0.0897 -0.40796,-0.91078 -0.42429,-2.50667 -0.031,-3.03194 -0.26097,-3.70041 -1.34606,-3.91322 -0.65042,-0.12757 -1.09445,0.0428 -1.76141,0.67581 -1.20198,1.1408 -1.32953,1.87957 -0.69899,4.04855 0.3561,1.22496 0.42798,1.94632 0.21513,2.15917 -0.21285,0.21285 -0.39625,-0.0384 -0.54896,-0.75199 z m -303.48392,-2.0672 c -0.25565,-1.82745 -0.28032,-2.88361 -0.0722,-3.09171 0.32319,-0.32319 0.47101,0.2833 0.81309,3.33609 0.0918,0.81885 0.20751,1.66485 0.25723,1.88 0.0497,0.21516 -0.0671,0.44971 -0.25971,0.52123 -0.21956,0.0815 -0.49488,-0.90493 -0.73839,-2.64561 z m 130.48468,2.03557 c -0.12738,-2.09269 -0.0923,-2.82146 0.23062,-4.78624 0.222,-1.35089 0.2404,-2.25856 0.0496,-2.44931 -0.45146,-0.45147 0.0489,-2.92445 0.59169,-2.92445 0.24853,0 0.45187,0.21244 0.45187,0.47208 0,0.37453 0.16963,0.40759 0.82083,0.16 1.01618,-0.38635 2.05917,-0.40436 2.05917,-0.0356 0,0.15209 -0.648,0.524 -1.44,0.82647 -1.19349,0.4558 -1.44471,0.69606 -1.4675,1.40347 -0.0151,0.46945 -0.0936,1.35754 -0.17435,1.97354 -0.0808,0.616 -0.22765,2.236 -0.32639,3.6 -0.0987,1.364 -0.30828,2.48 -0.46564,2.48 -0.15737,0 -0.30584,-0.324 -0.32994,-0.72 z m -9.23566,-1.90278 c -1.99351,-0.73628 -2.16875,-4.75097 -0.30123,-6.90078 0.57164,-0.65804 1.34115,-1.37133 1.71002,-1.5851 0.81183,-0.47045 4.99069,-0.54693 4.99069,-0.0913 0,0.176 -0.4119,0.32 -0.91534,0.32 -0.50343,0 -1.59276,0.0928 -2.42072,0.20634 -1.29603,0.17764 -1.65424,0.40128 -2.57576,1.60816 -0.74218,0.97201 -1.1401,1.90886 -1.29781,3.05551 -0.31162,2.26575 0.34029,2.80999 3.3659,2.80999 2.38653,0 2.56963,-0.12062 3.13574,-2.06564 0.30262,-1.0397 0.28444,-1.35839 -0.10182,-1.78519 -0.52111,-0.57582 -0.62456,-1.26917 -0.18937,-1.26917 0.15445,0 0.46008,0.216 0.67918,0.48 0.2191,0.264 0.2911,0.48 0.16,0.48 -0.1311,0 -0.078,0.19325 0.11804,0.42945 0.19602,0.23619 0.2987,0.48819 0.22817,0.56 -0.0705,0.0718 -0.20067,0.83074 -0.2892,1.68653 -0.0885,0.85579 -0.32481,1.71979 -0.52507,1.92 -0.39805,0.39795 -4.78563,0.50532 -5.77142,0.14124 z M 72.674272,186.00148 c -2.018482,-0.21244 -5.705256,-0.7869 -6.72,-1.04709 -0.616,-0.15794 -1.664002,-0.37283 -2.328893,-0.47754 -2.29219,-0.36095 -0.896687,-0.68007 2.711378,-0.62003 6.573981,0.10941 10.622268,0.45682 11.123801,0.95462 0.293396,0.29121 0.352721,0.56941 0.16,0.7503 -0.318481,0.29893 -3.552446,0.58645 -4.946286,0.43974 z M 376.55416,183.833 c -0.98757,-0.98757 -0.30416,-1.69036 1.2616,-1.29738 0.61855,0.15525 0.7953,0.37997 0.71928,0.91451 -0.12548,0.88248 -1.26167,1.10208 -1.98088,0.38287 z M 87.83035,180.31976 c -0.29532,-0.76959 0.40106,-1.35516 1.09273,-0.91887 0.77722,0.49026 0.68467,1.21898 -0.17024,1.34038 -0.44296,0.0629 -0.79904,-0.0998 -0.92249,-0.42151 z m 345.87184,-1.36496 c -0.21335,-0.0711 -0.38792,-0.54931 -0.38792,-1.06264 0,-0.84526 0.1011,-0.93334 1.0713,-0.93334 0.96246,0 1.07398,0.0942 1.09766,0.92697 0.0203,0.71397 -0.13672,0.95814 -0.68338,1.06264 -0.39035,0.0746 -0.8843,0.0775 -1.09766,0.006 z m -208.42482,-1.35749 c -0.47464,-0.27735 -0.5908,-1.71745 -0.17229,-2.13596 0.40191,-0.40191 1.43401,0.31911 1.58463,1.10701 0.22145,1.15845 -0.40709,1.61637 -1.41234,1.02895 z m -20.96174,-3.90101 c -0.24033,-0.38887 0.70642,-1.21748 1.39106,-1.21748 0.32198,0 0.34906,0.15143 0.10773,0.60236 -0.40328,0.75352 -1.20891,1.08416 -1.49879,0.61512 z m 299.60342,-11.54517 c -0.40067,-0.29297 -0.51996,-0.72067 -0.42395,-1.52 0.21754,-1.81117 0.51527,-2.23231 1.57813,-2.23231 0.53548,0 1.14485,-0.23845 1.35949,-0.53199 0.55364,-0.75715 1.43124,-0.30904 1.49225,0.76195 0.0879,1.54365 -0.0281,2.00537 -0.74894,2.98037 -0.77221,1.04447 -2.23655,1.28815 -3.25698,0.54198 z M 71.874272,159.99547 c -3.693068,-0.26352 -6.242964,-1.18615 -8.06362,-2.91766 -2.226787,-2.11777 -2.646201,-4.3687 -1.482988,-7.95899 0.672297,-2.07506 1.162342,-2.70156 3.225823,-4.12407 1.923802,-1.32622 3.162302,-2.4737 4.269747,-3.95593 0.361619,-0.484 0.847631,-0.88 1.080027,-0.88 0.577179,0 0.702774,-0.46147 0.781841,-2.87273 0.03738,-1.14 0.09524,-2.0985 0.128568,-2.12999 0.03333,-0.0315 0.852602,-0.15594 1.820602,-0.27657 0.968,-0.12063 1.904,-0.24214 2.08,-0.27002 0.176,-0.0279 0.285563,0.30931 0.243474,0.74931 -0.04209,0.44 -0.132324,1.48253 -0.200522,2.31674 -0.120008,1.46795 -1.036732,2.76267 -1.977305,2.79262 -0.183894,0.006 -1.09466,0.71329 -2.023925,1.57208 l -1.689571,1.56145 0.151787,1.71855 c 0.305959,3.46413 1.9454,5.48718 4.518557,5.57586 0.713628,0.0246 2.017505,0.069 2.897505,0.0986 1.864388,0.0628 2.831148,0.5095 2.109019,0.97449 -0.24804,0.15971 -0.63801,0.21862 -0.866601,0.1309 -0.502004,-0.19264 -0.851308,1.01852 -0.832588,2.88686 0.02249,2.24428 -0.63715,5.01127 -1.195838,5.01621 -0.271696,0.002 -0.781992,0.053 -1.133992,0.11249 -0.352,0.0595 -2.08,0.005 -3.84,-0.12021 z m 4.615446,-1.14232 c 0.341416,-0.33568 0.86671,-4.20295 0.729976,-5.37417 l -0.135442,-1.16016 H 75.19492 c -1.039133,0 -2.139378,-0.13199 -2.44499,-0.2933 -0.305612,-0.16132 -1.006452,-0.45967 -1.557423,-0.66299 -0.968999,-0.35759 -1.084049,-0.53582 -2.377907,-3.68371 -0.14468,-0.352 -0.354883,-1.108 -0.467117,-1.68 -0.112234,-0.572 -0.350701,-1.04 -0.529925,-1.04 -0.179225,0 -1.026087,0.756 -1.881917,1.68 -1.479507,1.59736 -2.477798,3.69301 -2.699654,5.66723 -0.13048,1.1611 1.095715,4.12248 1.799442,4.34584 0.329364,0.10453 0.598843,0.37956 0.598843,0.61117 0,0.23162 0.252,0.50309 0.56,0.60327 0.308,0.10019 1.28,0.44098 2.16,0.75733 1.21479,0.43669 2.364508,0.55539 4.775446,0.49305 1.746495,-0.0452 3.258495,-0.16377 3.36,-0.26356 z m -2.449974,-20.85433 c 0.277566,-0.308 0.603495,-0.956 0.724287,-1.44 0.208208,-0.83427 0.16139,-0.88 -0.900832,-0.88 -1.171959,0 -1.508927,0.38697 -1.508927,1.73284 0,1.25942 0.82168,1.54567 1.685472,0.58716 z M 162.4381,156.9748 c -0.8779,-0.23965 -2.30262,-0.4412 -3.16604,-0.44788 -1.79051,-0.0139 -2.19779,-0.2899 -2.19779,-1.48949 0,-1.00501 -0.67626,-1.36582 -1.41396,-0.75441 -0.68234,0.56553 -7.32779,0.46891 -8.03353,-0.11681 -0.44884,-0.3725 -0.43242,-1.5751 0.0711,-5.20739 0.14341,-1.03451 -0.20139,-1.2668 -0.65789,-0.44323 -0.23268,0.41978 -0.42816,1.29473 -0.4344,1.94435 -0.006,0.64961 -0.15534,1.27011 -0.33134,1.37888 -0.46963,0.29025 -0.38856,-1.90912 0.15539,-4.21588 0.25626,-1.08674 0.45906,-2.67074 0.45067,-3.52 -0.008,-0.84927 0.0883,-3.52613 0.21489,-5.94859 0.1939,-3.71069 0.15366,-4.49198 -0.25546,-4.96 -0.37948,-0.43411 -0.49027,-1.48765 -0.50691,-4.82028 -0.0147,-2.95051 -0.14658,-4.41571 -0.42786,-4.75463 -0.67921,-0.8184 0.52505,-1.42501 2.60903,-1.31421 l 1.76027,0.0936 0.0554,9.6 c 0.0406,7.02767 -0.0663,10.32883 -0.39897,12.32 -0.24991,1.496 -0.45484,3.548 -0.4554,4.56 l -0.001,1.84 h 2.86185 c 2.55794,0 2.91259,0.0724 3.3396,0.68207 0.5018,0.71643 1.56793,0.62914 1.43854,-0.11778 -0.0385,-0.22236 0.0407,-1.21148 0.17608,-2.19805 0.23392,-1.70485 0.33073,-2.64645 0.62816,-6.10983 0.071,-0.82697 0.24287,-2.41097 0.3819,-3.52 0.13902,-1.10902 0.22387,-2.13085 0.18855,-2.27071 -0.1078,-0.42689 -0.11736,-1.4794 -0.0571,-6.28337 0.0557,-4.43618 0.0299,-4.63883 -0.65585,-5.15609 -1.11769,-0.84307 -0.5113,-1.38323 1.25994,-1.12232 5.00334,0.73701 7.06772,1.24557 7.4404,1.83294 0.55517,0.87498 0.69609,2.56372 0.24009,2.87714 -0.24321,0.16716 -1.55095,0.22845 -2.9061,0.13622 l -2.46392,-0.16771 0.14082,1.18874 c 0.0775,0.65381 0.23614,1.76475 0.35265,2.46875 0.11651,0.704 0.18186,1.91928 0.14521,2.70063 -0.0366,0.78136 0.0261,1.96936 0.13939,2.64001 0.20512,1.21409 0.21264,1.21936 1.7387,1.21936 1.75905,0 2.347,0.48787 2.19418,1.82065 -0.1008,0.87909 -0.14293,0.89707 -1.87037,0.79826 l -1.76724,-0.1011 0.0318,5.3811 c 0.0299,5.05278 0.0694,5.38647 0.64724,5.46919 2.86839,0.41058 3.77993,1.30087 3.37502,3.29633 -0.1979,0.97531 -0.344,1.1028 -1.33095,1.16142 -0.60975,0.0362 -1.82692,-0.13022 -2.70481,-0.36987 z m 2.07617,-1.73866 c 0,-0.38463 -1.08286,-0.67421 -3.28,-0.87715 -2.47127,-0.22827 -2.35059,0.32445 0.16,0.73282 2.77353,0.45114 3.12,0.46716 3.12,0.14433 z m -13.28,-2.59732 c -0.10877,-0.176 -0.62977,-0.32 -1.15777,-0.32 -0.55851,0 -0.87729,0.13383 -0.76223,0.32 0.10877,0.176 0.62977,0.32 1.15777,0.32 0.55851,0 0.87729,-0.13383 0.76223,-0.32 z m 1.12,0.17889 c 0,-0.0776 -0.144,-0.23011 -0.32,-0.33889 -0.176,-0.10877 -0.32,-0.0453 -0.32,0.14112 0,0.18638 0.144,0.33888 0.32,0.33888 0.176,0 0.32,-0.0635 0.32,-0.14111 z m 8.46571,-5.45889 c 0.0195,-2.816 -0.0618,-5.264 -0.18079,-5.44 -0.11898,-0.176 -0.0695,-1.04 0.11007,-1.92 0.44552,-2.18397 0.53346,-5.79755 0.17473,-7.18005 -0.16268,-0.62697 -0.28091,-1.60795 -0.26273,-2.17995 0.0182,-0.572 -0.0808,-1.04 -0.2199,-1.04 -0.13913,0 -0.24984,2.052 -0.24602,4.56 0.004,2.508 -0.0937,4.992 -0.21669,5.52 -0.123,0.528 -0.31183,2.04 -0.41963,3.36 -0.34411,4.21368 -0.44066,5.23937 -0.67319,7.15144 -0.24413,2.00747 0.0418,2.53559 1.28353,2.3704 0.57605,-0.0766 0.61735,-0.40686 0.65062,-5.20184 z m -12.72409,-2.95999 c 0.0339,-0.66 0.17789,-1.99201 0.32,-2.96001 0.14211,-0.968 0.18638,-3.344 0.0984,-5.28 -0.143,-3.14606 -0.18586,-3.3476 -0.40344,-1.89718 -0.13389,0.89255 -0.16165,2.04455 -0.0617,2.56 0.1,0.51545 -0.007,2.16118 -0.23657,3.65718 -0.41738,2.71405 -0.41691,5.11999 0.001,5.12001 0.12137,1e-5 0.24841,-0.53999 0.2823,-1.2 z m 16.73838,-16.72001 c 0,-0.176 -0.2245,-0.32 -0.49889,-0.32 -0.27438,0 -0.40988,0.144 -0.30111,0.32 0.10877,0.176 0.33327,0.32 0.49889,0.32 0.16561,0 0.30111,-0.144 0.30111,-0.32 z m -1.28073,-0.59424 c -4e-4,-0.11317 -0.4324,-0.2211 -0.96,-0.23984 -1.03312,-0.0367 -1.31922,0.38719 -0.39927,0.59155 0.63717,0.14155 1.36036,-0.0456 1.35927,-0.35171 z m -14.53581,-2.92576 c 0.2511,0 0.45654,-0.216 0.45654,-0.48 0,-0.6567 -0.43032,-0.60209 -1.10175,0.13983 -0.34713,0.38358 -0.46038,0.77999 -0.29711,1.04 0.20276,0.3229 0.28954,0.29052 0.37482,-0.13983 0.061,-0.308 0.31641,-0.56 0.5675,-0.56 z m 75.41559,31.60902 c -0.43582,-0.21017 -0.83209,-0.80274 -1.00197,-1.49834 -0.15457,-0.63287 -0.24706,-5.03868 -0.20555,-9.79068 0.0443,-5.07479 -0.0495,-8.80023 -0.22749,-9.02829 -0.35089,-0.44971 -0.2058,-6.95852 0.16332,-7.3265 0.13605,-0.13563 0.46162,0.0593 0.72349,0.43318 0.26188,0.37387 0.87057,0.72518 1.35264,0.78069 l 0.87651,0.10092 0.23877,6.24 c 0.13132,3.432 0.30159,6.744 0.37837,7.36 0.0768,0.616 0.29587,3.352 0.48686,6.08 0.19099,2.728 0.42161,5.19683 0.51249,5.48628 0.38913,1.23941 -1.6485,1.95792 -3.29744,1.16274 z m 1.25855,-4.14172 c -0.17295,-1.29101 -0.29267,-2.8117 -0.26603,-3.3793 0.0266,-0.5676 -0.0774,-0.9996 -0.23127,-0.96 -0.42864,0.11034 -0.2306,6.4155 0.21006,6.68785 0.59167,0.36567 0.61992,0.13465 0.28724,-2.34855 z m 177.47162,2.77976 c -0.98191,-1.26033 -1.15538,-1.77111 -1.43995,-4.24 -0.17795,-1.54388 -0.31583,-3.38306 -0.3064,-4.08706 0.0161,-1.20547 -0.23311,-3.59614 -0.71731,-6.88 -0.20893,-1.41694 0.2707,-5.31889 0.88502,-7.2 0.17243,-0.528 0.51751,-1.60261 0.76684,-2.38803 0.44498,-1.40173 1.13809,-2.04804 3.11894,-2.90833 1.37953,-0.59914 3.00093,-0.41089 5.1615,0.59925 1.85774,0.86856 2.13034,1.11557 2.46541,2.23395 0.57036,1.90369 0.50528,12.00635 -0.0847,13.14723 -0.25378,0.49075 -0.49316,1.87299 -0.53197,3.07164 -0.0593,1.83102 -0.24126,2.46286 -1.13858,3.953 -0.58742,0.9755 -1.06803,1.95879 -1.06803,2.18509 0,0.69172 -1.51611,1.47564 -2.4794,1.282 -2.14922,-0.43203 -2.856,-0.6794 -3.6828,-1.28898 -1.84988,-1.36387 -1.79018,1.1387 0.0673,2.81967 0.36022,0.32599 0.65494,0.71439 0.65494,0.86311 0,0.61705 -0.6209,0.18503 -1.67078,-1.16254 z m 5.89948,-3.21727 c 1.23199,-1.41691 1.46711,-3.30776 1.39138,-11.18979 -0.0748,-7.78349 -0.0711,-7.74629 -0.92085,-9.35052 -0.67384,-1.27213 -1.4172,-1.68948 -3.0092,-1.68948 -1.01984,0 -1.32636,0.15966 -1.77964,0.927 -0.368,0.62299 -0.48189,1.25551 -0.34725,1.92868 0.13969,0.69847 0.043,1.17557 -0.31952,1.57611 -0.28591,0.31594 -0.71067,1.50003 -0.9439,2.63132 -0.41641,2.01979 -0.4049,2.11093 0.63811,5.05273 0.58419,1.64772 1.06217,3.39023 1.06217,3.87225 0,0.83842 0.38655,2.32268 0.9615,3.69191 0.1478,0.352 0.52364,1.252 0.8352,2 0.66208,1.58956 1.3857,1.75315 2.432,0.54979 z m -3.9087,-1.22062 c 0,-0.28818 -1.033,-2.13652 -1.27905,-2.28858 -0.42309,-0.26148 -0.16882,1.33157 0.30334,1.90048 0.36749,0.4428 0.97571,0.68472 0.97571,0.3881 z m 6.69529,-11.16917 c -0.002,-4.268 -0.0879,-8.0945 -0.19027,-8.50334 -0.17578,-0.70206 -1.59384,-1.55451 -1.96631,-1.18204 -0.0949,0.0949 0.17061,0.78293 0.59,1.52896 0.73156,1.30132 0.76556,1.6424 0.8369,8.39642 0.0879,8.32402 0.0426,7.52 0.4241,7.52 0.19122,0 0.30813,-2.96895 0.30558,-7.76 z m -8.13529,5.84 c -0.10877,-0.176 -0.34177,-0.32 -0.51777,-0.32 -0.176,0 -0.231,0.144 -0.12223,0.32 0.10877,0.176 0.34177,0.32 0.51777,0.32 0.176,0 0.231,-0.144 0.12223,-0.32 z m -197.14481,10.51987 c -0.32562,-0.52687 -0.5042,-4.7069 -0.65359,-15.29837 -0.0681,-4.82819 -0.25291,-9.24603 -0.41069,-9.81744 -0.43407,-1.57206 -0.2514,-4.02545 0.36506,-4.90326 l 0.54722,-0.7792 0.4927,1.1792 c 0.34088,0.81584 0.69507,1.1792 1.14944,1.1792 1.04226,0 1.77383,0.53573 2.22762,1.63126 0.2314,0.55865 1.11515,2.17114 1.96389,3.58331 0.84874,1.41217 1.54316,2.84638 1.54316,3.18713 0,0.921 1.66813,3.75831 2.2096,3.7583 0.10472,-1e-5 0.18757,-2.68185 0.18411,-5.95966 -0.004,-3.58326 0.12382,-6.11992 0.32,-6.36161 0.52706,-0.64931 1.92033,-0.83064 2.59455,-0.33767 0.54464,0.39822 0.62694,0.98537 0.75034,5.35311 0.0762,2.69821 0.14824,8.71704 0.16,13.37518 l 0.0214,8.46934 -1.28,0.3678 c -1.88105,0.5405 -2.88596,-0.0468 -3.16942,-1.85239 -0.11865,-0.75575 -0.63509,-2.61113 -1.14764,-4.12306 -0.51255,-1.51193 -1.00093,-3.12956 -1.08528,-3.59472 -0.0844,-0.46517 -0.26205,-1.02162 -0.3949,-1.23657 -0.13284,-0.21494 -0.28298,-0.76949 -0.33365,-1.23233 -0.0507,-0.46284 -0.31106,-1.26136 -0.57865,-1.77448 -0.26758,-0.51311 -0.4874,-1.16731 -0.48849,-1.45376 -0.001,-0.28645 -0.21797,-0.70008 -0.48197,-0.91918 -0.264,-0.2191 -0.48,-0.6511 -0.48,-0.96 0,-0.3089 -0.216,-0.7409 -0.48,-0.96 -0.264,-0.2191 -0.48,-0.59673 -0.48,-0.83918 0,-0.24245 -0.144,-0.44082 -0.32,-0.44082 -0.28799,0 -0.46364,8.88572 -0.32162,16.27073 0.032,1.66278 -0.092,2.50561 -0.42355,2.88 -0.25782,0.2911 -0.52128,0.81562 -0.58547,1.1656 -0.13503,0.73621 -1.05496,1.02474 -1.41417,0.44354 z m 11.839,-4.18632 c -0.11918,-1.08124 -0.15475,-1.11526 -0.4324,-0.41355 -0.27562,0.69661 -0.0967,1.52409 0.27926,1.29171 0.1287,-0.0795 0.19761,-0.47471 0.15314,-0.87816 z m -2.47375,-6.41455 c -0.17326,-1.26411 -1.34288,-4.35468 -1.78588,-4.719 -0.27147,-0.22325 -1.76837,-3.28978 -1.79636,-3.68 -0.0474,-0.66075 -2.36418,-5.05398 -3.00114,-5.69094 -0.19638,-0.19638 -0.35706,-0.61626 -0.35706,-0.93306 0,-0.3168 -0.216,-0.576 -0.48,-0.576 -0.264,0 -0.48,0.13989 -0.48,0.31087 0,0.48056 2.84308,6.75364 3.1948,7.04913 0.10475,0.088 0.60465,1.096 1.1109,2.24 0.50624,1.144 1.32856,2.74393 1.82737,3.55539 0.49881,0.81147 0.90693,1.82667 0.90693,2.256 0,0.68485 0.50617,1.54861 0.9075,1.54861 0.0767,0 0.0556,-0.61245 -0.0471,-1.361 z m 2.57475,-2.15749 c -0.0104,-0.88083 -0.1241,-1.60151 -0.25277,-1.60151 -0.35029,0 -0.54479,0.69978 -0.4447,1.6 0.0489,0.44 0.10095,1.0605 0.11561,1.37889 0.0147,0.31838 0.15582,0.49906 0.31367,0.40151 0.15785,-0.0976 0.27854,-0.89806 0.26819,-1.77889 z m -0.0739,-3.72666 c -0.0618,-0.32717 -0.12771,-0.88285 -0.14653,-1.23485 -0.0278,-0.52047 -0.0856,-0.55035 -0.30938,-0.16 -0.15135,0.264 -0.23734,0.84 -0.19111,1.28 0.0462,0.44 0.11157,1.088 0.14518,1.44 0.0587,0.61452 0.0721,0.61272 0.33764,-0.0452 0.15209,-0.37683 0.22598,-0.95283 0.1642,-1.28 z m 232.79871,16.52515 c -0.264,-0.17061 -0.76026,-0.3124 -1.1028,-0.3151 -1.01645,-0.008 -3.05872,-1.63317 -3.59649,-2.86197 -0.54088,-1.23591 -0.58004,-3.21232 -0.29364,-14.8222 0.11663,-4.72795 0.27511,-6.54107 0.62931,-7.20001 0.26038,-0.4844 0.55219,-1.13272 0.64848,-1.44072 0.0963,-0.308 0.48049,-0.56 0.8538,-0.56 0.37332,0 0.91915,-0.29687 1.21296,-0.65972 0.88431,-1.09208 2.19505,-1.00816 4.02537,0.25772 4.04777,2.7995 4.67741,4.33422 4.49729,10.962 -0.0646,2.376 -0.18899,5.04 -0.2765,5.92 -0.0875,0.88 -0.24375,2.78937 -0.34719,4.24305 -0.16344,2.29682 -0.32316,2.83546 -1.21933,4.11189 -1.47186,2.0964 -3.7731,3.17815 -5.03126,2.36506 z m 3.52,-3.41371 c 0.59529,-0.87011 0.85857,-1.79077 1.02889,-3.59781 0.12589,-1.33566 0.32077,-3.36448 0.43307,-4.50848 0.2857,-2.91057 0.33857,-8.60272 0.0911,-9.8075 -0.28378,-1.38147 -0.98699,-2.75718 -1.49384,-2.92247 -0.32623,-0.10639 -0.36499,0.14001 -0.17244,1.09637 0.2616,1.29931 0.26231,9.79337 10e-4,14.6736 -0.0942,1.76162 -0.40236,3.53239 -0.79345,4.56 -0.7621,2.00247 -0.29634,2.26291 0.90545,0.50629 z m -1.98612,-0.0263 c 0.72031,-1.02659 0.98189,-2.27342 1.24038,-5.91255 0.25461,-3.58438 0.26003,-11.99289 0.009,-13.33164 -0.20804,-1.10546 -1.02939,-2.27581 -1.59758,-2.27581 -0.17332,0 -0.5092,-0.252 -0.7464,-0.56 -0.40444,-0.52516 -0.46814,-0.51297 -1.0237,0.19585 -1.00652,1.2842 -1.30826,4.28333 -1.30775,12.9986 4.8e-4,8.04292 0.0227,8.33815 0.68211,9.04 0.92447,0.98406 1.98706,0.92425 2.74394,-0.15445 z m -11.06588,3.06 c -0.2134,-0.2134 -0.388,-1.15315 -0.388,-2.08834 0,-0.93519 -0.12874,-1.95039 -0.28609,-2.256 -0.2846,-0.55276 -0.55848,-1.77832 -1.47595,-6.60454 -0.58107,-3.05668 -0.86386,-3.4536 -2.37057,-3.3273 l -1.14739,0.0962 -0.0648,4.64 c -0.0875,6.26826 -0.42026,8 -1.53709,8 -0.53094,0 -0.80006,-1.4849 -0.45877,-2.53137 0.14864,-0.45575 0.32075,-5.83309 0.38247,-11.94966 0.0838,-8.29845 0.21298,-11.22178 0.50919,-11.51798 0.4426,-0.44261 2.22397,-0.47111 5.80899,-0.0929 1.8959,0.19999 2.57914,0.41978 3.25287,1.04643 0.83162,0.77351 0.85101,0.87814 0.77828,4.1994 -0.0954,4.3555 -0.6291,5.7421 -2.73554,7.10703 l -1.51528,0.98187 0.30492,1.33861 c 0.16771,0.73624 0.48992,2.05861 0.71602,2.93861 0.99998,3.89193 1.48414,6.84686 1.38533,8.45485 -0.10885,1.77144 -0.46763,2.25612 -1.1586,1.56515 z m -3.35216,-16.36364 c 0.21772,-0.1583 0.75772,-0.197 1.2,-0.086 0.77246,0.19388 0.80513,0.14168 0.82864,-1.32427 0.0135,-0.83935 0.0799,-1.8141 0.14763,-2.1661 0.38698,-2.01116 0.1128,-4.67459 -0.56824,-5.52 -0.17723,-0.22 -0.74607,-0.4 -1.26409,-0.4 -0.51802,0 -1.20996,-0.14348 -1.53764,-0.31885 -0.32768,-0.17537 -0.83867,-0.22564 -1.13555,-0.11172 -0.46672,0.1791 -0.50951,0.51419 -0.3162,2.476 0.12296,1.24788 0.23047,3.42216 0.2389,4.83172 0.008,1.40958 0.082,2.67936 0.16358,2.82175 0.18474,0.32262 1.71018,0.18487 2.24297,-0.20253 z m 4.45088,-3.03389 c 0.19837,-0.31764 0.3679,-1.57764 0.37673,-2.8 0.0177,-2.4414 -0.4994,-3.66247 -1.55083,-3.66247 -0.50364,0 -0.63262,0.21748 -0.63262,1.06666 0,0.58667 0.10385,1.17052 0.23078,1.29745 0.12693,0.12693 0.24827,1.06402 0.26965,2.08243 0.0525,2.50043 0.53688,3.24795 1.30629,2.01593 z M 286.0275,154.47427 c -0.0854,-0.22251 -0.15991,-4.60742 -0.16562,-9.74426 -0.006,-5.13683 -0.0897,-9.46805 -0.18665,-9.62492 -0.27362,-0.44272 -0.32587,-8.56528 -0.0579,-8.99888 0.13093,-0.21185 0.6203,-0.34068 1.08749,-0.28629 0.83507,0.0972 0.84788,0.07 0.75731,-1.60749 -0.11074,-2.05093 0.43547,-1.98341 0.74675,0.0923 0.20355,1.35741 0.80251,1.99903 1.47698,1.58219 0.17261,-0.10668 0.95162,-0.0983 1.73112,0.0186 1.10201,0.16526 1.41728,0.34719 1.41728,0.81788 0,0.60611 -1.56217,1.26312 -3.04,1.27855 -1.2986,0.0136 -1.36247,0.28942 -1.32051,5.70279 0.0374,4.83044 0.0889,5.26142 0.68051,5.69533 0.352,0.25818 0.92051,0.39655 1.26335,0.30749 1.02121,-0.26529 1.4634,0.33642 1.07211,1.45887 -0.30886,0.88599 -0.42919,0.95105 -1.4165,0.76583 l -1.07895,-0.20242 v 4.46027 c 0,3.70401 0.0828,4.49204 0.48851,4.64772 0.26868,0.1031 1.64956,0.28428 3.06861,0.40263 2.6284,0.2192 3.30339,0.61792 2.5608,1.51269 -0.26168,0.31531 -1.16573,0.39981 -3.4758,0.3249 -3.74899,-0.12159 -4.24212,-0.003 -4.24212,1.02236 0,0.55043 -0.17742,0.77843 -0.60576,0.77843 -0.33317,0 -0.67563,-0.18205 -0.76101,-0.40455 z m 2.14646,-3.72258 c 0.0976,-0.15793 0.0822,-0.76319 -0.0341,-1.34502 -0.17946,-0.89729 -0.2487,-0.96301 -0.45608,-0.43287 -0.52664,1.34623 -0.13065,2.78244 0.4902,1.77789 z m -0.0931,-2.99287 c 0.1778,-1.52689 0.0853,-2.79056 -0.19738,-2.69599 -0.37732,0.12624 -0.4685,3.09599 -0.0951,3.09599 0.13522,0 0.26681,-0.18 0.29243,-0.4 z m 0.11448,-5.31262 c -0.30954,-0.80667 -0.76553,0.0427 -0.567,1.05613 0.1837,0.93772 0.18656,0.93883 0.46694,0.18089 0.15516,-0.41944 0.20019,-0.9761 0.10006,-1.23702 z m 2.07893,-1.64738 c 0,-0.176 -0.288,-0.32 -0.64,-0.32 -0.352,0 -0.64,0.144 -0.64,0.32 0,0.176 0.288,0.32 0.64,0.32 0.352,0 0.64,-0.144 0.64,-0.32 z m -2.51222,-7.45566 c 0.1678,-2.05701 -0.0669,-5.02434 -0.3974,-5.02434 -0.15971,0 -0.29038,1.44 -0.29038,3.2 0,3.18624 0.47409,4.44378 0.68778,1.82434 z m -0.0478,-6.30434 c 0,-0.176 -0.144,-0.32 -0.32,-0.32 -0.176,0 -0.32,0.144 -0.32,0.32 0,0.176 0.144,0.32 0.32,0.32 0.176,0 0.32,-0.144 0.32,-0.32 z m 1.83333,-0.19334 c -0.10633,-0.10633 -0.38233,-0.1177 -0.61333,-0.0253 -0.25527,0.10216 -0.17945,0.17798 0.19333,0.19334 0.33734,0.0139 0.52634,-0.0617 0.42,-0.16807 z m 202.64667,27.63021 c -1.57184,-0.47408 -3.09146,-1.67033 -3.66416,-2.88444 -0.91955,-1.94943 -1.13584,-4.49671 -1.13584,-13.37722 0,-5.36641 -0.12245,-8.97312 -0.30855,-9.08814 -0.16971,-0.10488 -1.40853,-0.22778 -2.75293,-0.27311 -2.34844,-0.0792 -2.45635,-0.0509 -2.74945,0.72 -0.16779,0.44133 -0.30899,1.88773 -0.31377,3.21423 -0.0119,3.31067 0.60272,11.47719 0.95295,12.66156 0.34523,1.16739 0.49199,7.14456 0.19447,7.91988 -0.25154,0.65552 -2.1327,0.7632 -2.62699,0.15037 -0.17745,-0.22 -0.32379,-1.48 -0.3252,-2.8 -0.001,-1.32 -0.0848,-2.904 -0.18522,-3.52 -0.10045,-0.616 -0.2602,-4 -0.35498,-7.52 -0.19985,-7.42155 -0.42012,-10.08094 -0.88144,-10.64197 -0.18179,-0.22109 -0.70816,-0.40784 -1.16971,-0.41501 -0.46155,-0.007 -1.79744,-0.09 -2.96864,-0.18398 -1.82439,-0.14646 -2.15485,-0.268 -2.30661,-0.84834 -0.3584,-1.37053 0.29082,-1.59575 3.94331,-1.36802 1.85502,0.11567 3.94876,0.20116 4.65276,0.18998 6.88301,-0.10924 7.2705,-0.0809 8.19003,0.59894 0.49723,0.36762 1.05389,0.6684 1.23701,0.6684 0.52305,0 0.38893,0.87005 -0.167,1.08338 -0.4002,0.15357 -0.45599,0.48516 -0.27955,1.66172 0.27211,1.81454 0.43009,4.2352 0.61508,9.42419 0.0865,2.42793 0.33649,4.55792 0.63368,5.40024 0.26991,0.76501 0.49164,1.62483 0.49272,1.9107 10e-4,0.28588 0.22231,0.9423 0.49161,1.45873 0.26931,0.51643 0.42328,1.1119 0.34217,1.32327 -0.0811,0.21136 0.0716,0.69705 0.33933,1.07931 0.69588,0.9935 2.16131,0.79696 2.24819,-0.30154 0.0348,-0.44 0.142,-2.024 0.23823,-3.52 0.0962,-1.496 0.26862,-3.872 0.38309,-5.28 0.19419,-2.3886 0.34949,-5.7326 0.5231,-11.26392 0.0887,-2.82626 0.42683,-3.27334 1.66861,-2.2063 0.84003,0.72181 0.91836,0.98149 1.00344,3.32641 0.0843,2.32457 0.55948,6.86587 0.90158,8.61708 0.0766,0.3923 0.004,0.7968 -0.16099,0.89889 -0.34288,0.21191 -0.41011,2.1714 -0.0856,2.49588 0.7329,0.73289 0.0154,7.68378 -0.89559,8.67596 -0.15351,0.1672 -0.27911,0.54088 -0.27911,0.83041 0,1.4437 -2.65814,2.02149 -5.44,1.18246 z m 4.37943,-0.93918 c 0.20869,-0.16605 0.47732,-0.75996 0.59695,-1.3198 0.11964,-0.55984 0.38089,-1.2201 0.58057,-1.46725 0.57699,-0.71415 0.43681,-8.24818 -0.17918,-9.63064 l -0.49904,-1.12 -0.37351,0.93802 c -0.20542,0.51591 -0.35813,2.09991 -0.33935,3.52 0.0508,3.84125 -0.002,4.69691 -0.3277,5.3054 -0.16261,0.30384 -0.21705,0.63103 -0.12098,0.7271 0.39186,0.39187 -0.54727,1.41133 -1.59687,1.73347 -1.71968,0.52778 -3.38424,-0.46651 -3.39542,-2.02819 -0.003,-0.37631 -0.38539,-1.96031 -0.85043,-3.52 -0.63575,-2.13221 -0.87735,-3.74884 -0.97376,-6.5158 -0.0705,-2.024 -0.18295,-4.184 -0.24984,-4.8 -0.0669,-0.616 -0.1327,-1.804 -0.14624,-2.64 -0.0136,-0.836 -0.15839,-1.52 -0.32188,-1.52 -0.16349,0 -0.29748,0.54 -0.29776,1.2 -2.8e-4,0.66 -0.0112,1.56 -0.0241,2 -0.013,0.44 0.013,3.896 0.0578,7.68 0.0806,6.81113 0.0904,6.89827 0.97736,8.70453 0.94916,1.93287 1.97932,2.72027 4.06403,3.10634 1.30324,0.24135 2.87646,0.0789 3.41943,-0.35318 z m -14.85204,-1.13769 c 0.22976,-0.98574 -0.0273,-6.25977 -0.39376,-8.08 -0.1949,-0.968 -0.40912,-2.768 -0.47604,-4 -0.0669,-1.232 -0.2182,-3.608 -0.33617,-5.28 -0.1207,-1.71072 -0.0772,-3.63739 0.0994,-4.4062 0.26472,-1.15208 0.23126,-1.40861 -0.21346,-1.63676 -1.36271,-0.69911 -1.66918,0.86657 -0.98955,5.05527 0.18315,1.12876 0.40475,4.80077 0.49246,8.16 0.16345,6.26037 0.3085,10.08285 0.39874,10.50769 0.10378,0.48865 1.29239,0.22049 1.41836,-0.32 z m -0.90811,-24.75353 c -0.2349,-0.38007 -2.05928,-0.37008 -2.05928,0.0113 0,0.33256 1.22251,0.60057 1.83816,0.40298 0.21899,-0.0703 0.31849,-0.2567 0.22112,-0.41426 z m -2.85788,0.0313 c 0.26726,-0.43244 -0.25697,-0.57516 -2.71784,-0.73995 -2.18117,-0.14606 -2.88356,-0.0301 -2.88356,0.47618 0,0.16803 0.47663,0.22976 1.05918,0.13717 0.58254,-0.0926 1.48254,-0.0418 2,0.11276 1.30525,0.38997 2.30639,0.39542 2.54222,0.0138 z m 8.94493,-0.29563 c 0.10126,-0.16384 0.0738,-0.35977 -0.0611,-0.43539 -0.41461,-0.23249 -2.64522,0.14554 -2.64522,0.44829 0,0.37959 2.47104,0.36782 2.70633,-0.0129 z m -301.98631,25.9923 c -0.37676,-0.0951 -0.57019,-0.47397 -0.59113,-1.15787 -0.14636,-4.77954 -0.31737,-12.96017 -0.37688,-18.02937 -0.0396,-3.37305 -0.19162,-6.25305 -0.33783,-6.4 -0.14621,-0.14694 -1.83785,-0.3159 -3.75919,-0.37546 -2.95694,-0.0917 -3.52319,-0.0305 -3.68769,0.39816 -0.25058,0.65299 -0.76728,0.33732 -0.76728,-0.46876 0,-0.532 0.22955,-0.62111 1.6,-0.62111 1.22043,0 1.6,-0.11575 1.6,-0.48792 0,-0.67139 1.55667,-1.20615 2.72,-0.9344 0.528,0.12334 1.716,0.26131 2.64,0.30661 1.58955,0.0779 1.85937,-0.0672 1.70667,-0.91798 -0.027,-0.15052 0.0906,-0.44198 0.26128,-0.64769 0.17072,-0.20571 0.26867,-0.89987 0.21768,-1.54259 -0.11284,-1.42213 0.17634,-1.95739 0.97271,-1.8004 0.52829,0.10414 0.60166,0.42787 0.60166,2.65473 v 2.53613 l 3.44,-0.0414 c 3.23514,-0.0389 3.44,-0.003 3.44,0.59564 0,0.39929 0.13759,0.55197 0.36871,0.40913 0.20279,-0.12533 2.21728,-0.24183 4.47663,-0.25888 l 4.10792,-0.031 0.29912,0.85818 c 0.40453,1.16064 0.0961,2.15396 -0.73062,2.35282 -0.37497,0.0902 -1.76176,0.26862 -3.08176,0.3965 l -2.4,0.2325 -0.0324,3.9203 c -0.0235,2.84127 0.0811,4.01448 0.37985,4.26246 0.22676,0.18819 1.10535,0.36806 1.95243,0.3997 1.27665,0.0477 1.55415,0.16704 1.62198,0.69754 0.1415,1.10662 -0.44891,1.57112 -2.22361,1.7494 l -1.69822,0.1706 -0.0458,3.2 c -0.0252,1.76 0.0163,3.43861 0.0921,3.73024 0.1155,0.44415 0.63508,0.53546 3.20018,0.56238 1.68426,0.0177 3.15964,0.0923 3.27862,0.16584 0.35077,0.2168 0.006,2.68463 -0.39665,2.83528 -0.20267,0.0759 -1.15281,0.0361 -2.11141,-0.0886 -0.95859,-0.12462 -2.18259,-0.16924 -2.72,-0.0992 -0.5374,0.0701 -1.29924,0.16791 -1.69298,0.21738 -0.39374,0.0495 -0.97303,0.32267 -1.28731,0.60709 -0.31428,0.28442 -0.72872,0.41641 -0.92098,0.29331 -0.42386,-0.27138 -0.93015,-1.70002 -0.75975,-2.14381 0.26351,-0.68624 0.61172,-9.87339 0.57006,-15.04 -0.0241,-2.992 -0.0357,-6.04804 -0.0257,-6.7912 l 0.0182,-1.35119 -0.80243,0.63119 c -0.92909,0.73083 -3.12144,0.84427 -4.77319,0.24699 -1.44273,-0.5217 -1.726,-0.15837 -1.95894,2.51265 -0.31559,3.61869 -0.0439,11.19189 0.42948,11.97045 0.0598,0.0984 0.13214,1.17839 0.16071,2.4 0.0286,1.22161 0.25306,2.93125 0.49888,3.79919 0.55458,1.95814 0.57563,3.68235 0.0469,3.84529 -0.78439,0.24174 -2.96945,0.40999 -3.52,0.27104 z m 1.95096,-1.85441 c 0.061,-0.528 -0.0606,-1.73081 -0.27032,-2.67292 -0.2097,-0.94211 -0.4355,-2.67011 -0.50178,-3.84 -0.36025,-6.35889 -0.6466,-8.56756 -1.15118,-8.87941 -0.20487,-0.12663 -0.25163,0.80459 -0.13248,2.63832 0.10129,1.55871 0.24222,5.13801 0.31319,7.95401 0.071,2.816 0.14311,5.31002 0.16032,5.54226 0.0184,0.24889 0.32689,0.38027 0.75129,0.32 0.53226,-0.0756 0.74893,-0.35257 0.83096,-1.06226 z m 13.16904,-11.04 c 0,-0.176 -0.144,-0.32 -0.32,-0.32 -0.176,0 -0.32,0.144 -0.32,0.32 0,0.176 0.144,0.32 0.32,0.32 0.176,0 0.32,-0.144 0.32,-0.32 z m -14.72,-6.98667 c 0,-0.49867 0.0966,-1.00324 0.21461,-1.12128 0.398,-0.398 0.28153,-3.77328 -0.14234,-4.12496 -0.22426,-0.18606 -0.47808,-0.26795 -0.56405,-0.18198 -0.15785,0.15786 -0.21982,4.28344 -0.0843,5.61489 0.10577,1.03944 0.57612,0.88704 0.57612,-0.18667 z m 318.34197,19.60709 c -1.03917,-0.55449 -1.21793,-1.09788 -1.04627,-3.18042 0.43584,-5.28749 0.92767,-6.36577 3.06861,-6.72748 0.78766,-0.13308 1.7155,-0.62578 2.4515,-1.30179 0.6513,-0.59822 1.3539,-1.08836 1.56133,-1.0892 0.20743,-8.4e-4 0.57104,-0.19543 0.80803,-0.43241 0.23699,-0.23699 0.9801,-0.53392 1.65136,-0.65985 2.17168,-0.40741 2.68151,-0.80391 3.24367,-2.52263 0.8778,-2.68371 0.73835,-4.55988 -0.5129,-6.9009 -1.34921,-2.52428 -3.07512,-3.87471 -4.9273,-3.85534 -5.22564,0.0546 -5.27098,0.0634 -6.30699,1.22153 -0.76808,0.85862 -1.0875,1.02267 -1.4949,0.76773 -0.28496,-0.17832 -0.56288,-0.69746 -0.6176,-1.15364 -0.0797,-0.6645 0.11119,-0.93596 0.96,-1.36516 0.58272,-0.29465 1.34749,-0.78242 1.69949,-1.08393 0.96883,-0.82986 3.22584,-1.39125 3.97706,-0.98921 0.34148,0.18275 1.06696,0.33228 1.61218,0.33228 0.54522,0 1.50599,0.21504 2.13503,0.47787 0.62905,0.26283 1.25828,0.40707 1.3983,0.32054 0.44841,-0.27713 3.6523,2.3494 4.38745,3.59682 1.7834,3.02608 1.96803,3.65664 1.90787,6.51588 -0.0661,3.14083 -0.20156,3.39158 -2.69628,4.99067 -0.92312,0.59171 -1.9217,1.46787 -2.21908,1.94703 -1.23637,1.99213 -1.68237,2.27045 -4.00502,2.49932 -2.40485,0.23697 -3.09238,0.77597 -3.34845,2.62507 -0.066,0.47674 -0.17965,1.2268 -0.2525,1.6668 -0.0729,0.44 -0.14239,1.38448 -0.15451,2.09884 -0.0121,0.71436 -0.20205,1.52509 -0.42205,1.80162 -0.58925,0.74066 -1.88078,0.9214 -2.85803,0.39996 z m 1.65803,-3.35471 c 0,-0.86709 0.17263,-2.22196 0.38362,-3.01083 0.4124,-1.5419 0.22628,-2.09384 -0.50219,-1.48926 -0.70726,0.58697 -1.21852,5.24535 -0.67262,6.12864 0.4114,0.66565 0.79119,-0.1161 0.79119,-1.62855 z m 7.17867,-7.70169 c 0.16426,-0.15034 0.20488,-0.36713 0.0903,-0.48176 -0.26843,-0.26842 -2.14893,0.50398 -2.14893,0.88266 0,0.32677 1.60514,0.0142 2.05867,-0.4009 z m -282.91589,10.85559 c -0.77723,-0.37576 -1.49743,-1.82998 -1.33112,-2.68778 0.18391,-0.9486 0.88034,-0.87288 1.46799,0.1596 0.30819,0.54149 0.76613,0.98544 1.01763,0.98655 0.25151,0.001 0.91736,0.16839 1.47969,0.37173 1.01501,0.36703 1.19333,0.3326 2.67118,-0.51577 0.94226,-0.54092 1.67102,-2.33451 1.86637,-4.59344 0.18637,-2.15511 -0.24846,-3.18959 -1.93097,-4.59376 -1.82477,-1.5229 -2.71125,-1.95517 -3.64392,-1.77688 -1.04977,0.20068 -1.91117,-0.75411 -2.20738,-2.44668 -0.2731,-1.56055 -0.25113,-6.0445 0.034,-6.94292 0.28276,-0.89092 1.66344,-1.5108 4.26362,-1.91423 2.92268,-0.45347 3.64847,-0.13178 3.50818,1.5549 -0.0863,1.03701 -0.21036,1.19187 -1.03002,1.28534 -0.51258,0.0584 -1.26135,-0.07 -1.66394,-0.28548 -0.582,-0.31148 -0.93756,-0.30659 -1.7353,0.0238 -1.51958,0.62943 -1.90881,1.18354 -1.90881,2.71739 0,2.23504 0.42159,2.9545 1.97664,3.37323 0.75061,0.20212 1.65297,0.56937 2.00525,0.81612 0.35228,0.24675 0.86047,0.45429 1.12931,0.46121 0.26884,0.007 1.24484,0.76292 2.1689,1.68 1.20821,1.1991 1.69637,1.93705 1.73803,2.62742 0.0319,0.528 0.18415,1.12878 0.3384,1.33507 0.42696,0.571 0.088,2.91275 -0.51866,3.58309 -0.29576,0.3268 -0.59386,0.88559 -0.66245,1.24175 -0.33129,1.72029 -2.02613,3.03777 -4.59117,3.56893 -2.06607,0.42784 -3.51578,0.4183 -4.44147,-0.0292 z m 9.00452,-5.28177 c 0.5658,-1.23589 0.72459,-1.91394 0.50065,-2.13788 -0.18037,-0.18038 -0.32795,-0.74062 -0.32795,-1.24499 0,-1.6011 -0.96743,-2.9156 -3.27019,-4.4434 -0.75339,-0.49986 -1.65781,-0.91402 -2.00981,-0.92037 -0.352,-0.006 -0.91952,-0.22297 -1.26116,-0.48137 -0.76888,-0.58156 -2.09884,-0.61566 -2.09884,-0.0538 0,0.64527 0.69155,1.184 1.51989,1.184 0.41354,0 1.21274,0.23734 1.776,0.52742 3.61871,1.86368 4.73404,4.37411 3.87323,8.71803 -0.31165,1.57268 0.30056,1.03147 1.29818,-1.14762 z m -2.8673,-17.38222 c 0,-0.30465 -0.32396,-0.48107 -0.90118,-0.49079 -1.10254,-0.0186 -1.38715,0.34091 -0.62555,0.79007 0.75245,0.44376 1.52673,0.29198 1.52673,-0.29928 z m 143.26308,21.98293 c -1.76037,-1.27521 -1.97445,-2.46168 -1.95506,-10.83527 0.008,-3.63919 -0.085,-7.63519 -0.2077,-8.88 -0.15764,-1.59984 -0.11709,-2.26328 0.13833,-2.26328 0.19964,0 0.36135,0.50123 0.36135,1.12 0,0.616 0.144,1.12 0.32,1.12 0.65838,0 0.45971,-1.93637 -0.25525,-2.48794 -0.44005,-0.33948 -0.46178,-0.51523 -0.12952,-1.04726 0.43704,-0.69982 0.43713,-0.69975 -1.37523,-1.10714 -1.33073,-0.29912 -4.75364,-0.32297 -5.2174,-0.0363 -0.28593,0.17672 -0.3826,3.3066 -0.3826,12.38762 0,13.24663 0.035,13.00716 -1.78041,12.18 -0.69033,-0.31453 -0.78226,-0.56667 -0.80295,-2.20207 -0.0129,-1.01577 -0.13192,-2.60976 -0.2646,-3.54221 -0.13268,-0.93244 -0.13964,-1.75814 -0.0155,-1.83489 0.37621,-0.23251 0.64987,-3.81606 0.79874,-10.45939 0.13608,-6.07311 0.11721,-6.32256 -0.50358,-6.65479 -0.35473,-0.18985 -0.77519,-0.26469 -0.93436,-0.16631 -0.15918,0.0984 -0.6242,0.043 -1.03339,-0.12306 -0.40919,-0.16605 -1.13998,-0.38663 -1.62398,-0.49016 -1.28726,-0.27536 -1.0762,-0.83725 0.25068,-0.66737 0.67443,0.0863 1.05419,0.021 0.94111,-0.16196 -0.10423,-0.1687 -0.46903,-0.30672 -0.81065,-0.30672 -0.34161,0 -0.62111,-0.144 -0.62111,-0.32 0,-0.42292 0.57318,-0.40347 4,0.13573 1.584,0.24923 4.71711,0.44176 6.96247,0.42785 2.24536,-0.0139 4.13642,0.0336 4.20235,0.10555 0.38093,0.41582 0.57408,4.42158 0.62157,12.89064 l 0.0536,9.55976 0.84314,0.92024 c 0.62035,0.67706 1.13849,0.92023 1.96082,0.92023 1.84996,0 1.97323,-0.39467 2.08719,-6.68254 0.0562,-3.1006 0.25287,-6.71746 0.43707,-8.03746 0.1842,-1.32 0.38341,-3.2475 0.44268,-4.28334 0.1211,-2.11625 0.22401,-2.27655 1.62967,-2.53846 1.32435,-0.24676 2.24566,0.39091 1.80187,1.24713 -0.17523,0.33807 -0.41102,3.06267 -0.52399,6.05467 -0.42447,11.24263 -0.45093,11.51117 -1.2924,13.12 -0.27616,0.528 -0.50299,1.33944 -0.50408,1.8032 -0.003,1.29519 -1.25389,1.92712 -3.98917,2.0153 -2.1178,0.0683 -2.42282,-0.006 -3.62972,-0.87995 z m -9.54126,-0.77855 c 0.0907,-0.308 0.17617,-3.44 0.1899,-6.96 0.0137,-3.52 0.0346,-6.616 0.0464,-6.88 0.0382,-0.85286 -0.24797,-2.55647 -0.4661,-2.7746 -0.11664,-0.11664 -0.21436,-0.008 -0.21717,0.24126 -0.0309,2.75088 -0.31337,7.47034 -0.51548,8.61334 -0.33926,1.91868 -0.2689,7.41806 0.10338,8.08 0.23861,0.42429 0.68923,0.25643 0.85902,-0.32 z m 0.20664,-19.36 c 0.0416,-3.92102 -0.0258,-4.48935 -0.47844,-4.03668 -0.23325,0.23324 -0.43455,4.58257 -0.25546,5.51942 0.30965,1.61985 0.70956,0.81188 0.7339,-1.48274 z m 8.77787,-5.06211 c -0.10125,-0.16384 -0.6436,-0.2862 -1.20522,-0.2719 l -1.02111,0.026 0.96,0.42306 c 0.98664,0.4348 1.59219,0.35009 1.26633,-0.17715 z m -11.0356,-0.63039 c -0.60374,-0.38182 -0.95073,-0.38582 -0.95073,-0.011 0,0.30402 0.99984,0.64012 1.27073,0.42716 0.0829,-0.0652 -0.0611,-0.25246 -0.32,-0.4162 z m -14.32738,26.16883 c -0.18803,-0.22656 -0.33931,-1.97892 -0.3448,-3.99415 -0.005,-1.97477 -0.16123,-3.87349 -0.34634,-4.21937 -0.18512,-0.34589 -0.36479,-0.96981 -0.39927,-1.38649 -0.061,-0.73727 -0.13942,-0.75706 -2.91981,-0.73696 l -2.85711,0.0206 -0.59801,1.115 c -0.32891,0.61326 -0.59801,1.4869 -0.59801,1.94144 0,0.45453 -0.41661,1.64104 -0.9258,2.63668 -0.50919,0.99564 -1.0777,2.246 -1.26335,2.77857 -0.44767,1.28417 -1.34785,1.24818 -1.99011,-0.0796 -0.59172,-1.22329 -0.37113,-2.97503 0.63754,-5.06273 0.36394,-0.75329 0.66172,-1.54514 0.66172,-1.75967 0,-0.21454 0.40888,-1.30349 0.90862,-2.4199 0.49973,-1.11641 0.84843,-2.20773 0.77488,-2.42516 -0.0736,-0.21744 0.17327,-0.82648 0.5485,-1.35343 0.37522,-0.52695 0.73645,-1.2397 0.80273,-1.5839 0.0663,-0.34419 0.25556,-0.88715 0.42061,-1.20658 0.16505,-0.31942 0.4832,-1.37276 0.70701,-2.34076 0.22381,-0.968 0.66089,-2.264 0.97131,-2.88 0.31041,-0.616 0.80158,-1.624 1.09148,-2.24 1.0392,-2.2081 1.49702,-2.88 1.96236,-2.88 0.25992,0 0.55049,0.203 0.6457,0.45112 0.0952,0.24811 0.52269,0.53886 0.94995,0.64609 0.89766,0.2253 1.0323,1.25828 0.2916,2.23722 -0.47197,0.62376 -0.39714,2.50335 0.1539,3.86557 0.14239,0.352 0.41676,1.576 0.60973,2.72 0.19296,1.144 0.45442,2.656 0.58102,3.36 0.1266,0.704 0.19445,1.40772 0.15078,1.56383 -0.0437,0.1561 0.23631,0.61988 0.62218,1.03062 0.56294,0.59922 0.62541,0.83856 0.31611,1.21124 -0.23817,0.28698 -0.31904,0.99365 -0.21164,1.84938 0.0956,0.76171 0.26936,2.72168 0.38614,4.35549 0.11678,1.63381 0.33488,3.04631 0.48468,3.13889 0.76567,0.47321 -0.24303,2.05055 -1.31132,2.05055 -0.31788,0 -0.72872,-0.18165 -0.91298,-0.40367 z m -1.71273,-13.67633 c 0.13261,-1.72616 -0.58242,-6.72 -0.96218,-6.72 -0.14764,0 -0.26844,0.21886 -0.26844,0.48636 0,0.26749 -0.36159,1.05916 -0.80354,1.75925 -0.84345,1.3361 -1.73894,3.69447 -1.97837,5.21023 l -0.14151,0.89583 2.02171,-0.0958 2.02171,-0.0958 z m 71.42185,13.37966 c -0.65889,-0.70722 -0.84275,-1.56271 -0.42554,-1.97992 0.24059,-0.24059 0.45193,-6.41182 0.5274,-15.39974 l 0.0457,-5.44 h -2.98105 c -2.57996,0 -3.0428,-0.0836 -3.44,-0.62116 -1.06384,-1.43984 -0.20218,-3.13166 1.12245,-2.20386 0.61695,0.43214 1.81869,0.52235 7.33819,0.55089 3.63022,0.0188 6.81641,-0.0379 7.08041,-0.12587 0.35485,-0.11829 0.48,0.0878 0.48,0.79055 0,1.3629 -0.95245,1.72248 -4.36107,1.64645 -3.26924,-0.0729 -3.2173,-0.12216 -2.99948,2.843 0.0776,1.056 0.22038,3 0.31735,4.32 0.097,1.32 0.21705,5.532 0.26683,9.36 l 0.0905,6.96 h -1.2046 c -0.82712,0 -1.40907,-0.21946 -1.85707,-0.70034 z m 2.09474,-7.89626 c -0.17195,-8.53603 -0.1319,-8.01213 -0.55656,-7.28101 -0.38382,0.6608 -0.79629,12.96015 -0.4637,13.82688 0.16199,0.42215 0.29172,0.44721 0.67373,0.13017 0.39629,-0.32889 0.45255,-1.41275 0.34653,-6.67604 z m -151.7848,7.2366 c -0.41265,-0.52242 -0.93,-7.38664 -1.01591,-13.47918 -0.023,-1.63254 -0.0895,-1.8269 -0.5065,-1.48082 -0.264,0.2191 -0.48,0.60274 -0.48,0.85253 0,0.67234 -1.87258,4.59205 -2.75468,5.76612 -0.42092,0.56026 -0.76532,1.25755 -0.76532,1.54953 0,0.29198 -0.288,0.89701 -0.64,1.3445 -0.352,0.4475 -0.64,1.07371 -0.64,1.39159 0,0.31788 -0.14515,0.66767 -0.32255,0.77731 -0.1774,0.10964 -0.25893,0.55017 -0.18118,0.97896 0.15264,0.84172 -0.4403,1.29867 -1.57627,1.21476 -0.352,-0.026 -0.88442,-0.0626 -1.18316,-0.0813 -0.68264,-0.0427 -1.88602,-2.40697 -3.17387,-6.23556 -0.53994,-1.60515 -1.17231,-3.13445 -1.40526,-3.39845 -0.23296,-0.264 -0.52377,-1.02 -0.64625,-1.68 -0.12248,-0.66 -0.35066,-1.2 -0.50707,-1.2 -0.15642,0 -0.28492,-0.18 -0.28557,-0.4 -0.002,-0.72211 -1.83273,-5.1182 -2.01111,-4.82956 -0.26436,0.42774 0.044,8.23127 0.41008,10.37923 0.17722,1.03968 0.48474,2.79033 0.68339,3.89033 0.56846,3.14775 0.30552,4.08 -1.15077,4.08 -1.49586,0 -1.72112,-0.7523 -1.77257,-5.92 -0.0263,-2.64 -0.10267,-5.304 -0.16974,-5.92 -0.20399,-1.87349 -0.19131,-10.8712 0.0158,-11.20628 0.10664,-0.17255 0.47339,-0.31373 0.81501,-0.31373 0.34161,0 0.62111,-0.216 0.62111,-0.48 0,-0.81117 0.56576,-0.53695 1.48545,0.72 0.48292,0.66 1.04412,1.344 1.24711,1.52 0.4857,0.42111 1.42711,2.25572 1.42864,2.78411 6.7e-4,0.22874 0.40004,1.21672 0.88751,2.19552 0.48746,0.97879 1.15739,2.63479 1.48873,3.68 0.33134,1.04521 1.06622,2.90838 1.63306,4.14038 0.56684,1.232 1.12207,2.50822 1.23385,2.83604 0.29687,0.8707 0.99279,0.18138 1.67713,-1.66125 0.30534,-0.82213 0.74492,-1.77883 0.97684,-2.12599 0.23192,-0.34716 0.42168,-0.89464 0.42168,-1.21661 0,-0.32197 0.28231,-1.11793 0.62735,-1.76879 1.35572,-2.55739 2.2577,-4.76936 2.51931,-6.1783 0.15062,-0.81119 0.51224,-1.81523 0.8036,-2.2312 0.29136,-0.41597 0.52974,-0.99285 0.52974,-1.28195 0,-0.99553 1.28735,-2.25505 2.19713,-2.14963 0.68957,0.0799 0.85183,0.27356 0.89216,1.06471 0.0271,0.53187 0.14325,1.46787 0.2581,2.08 0.11484,0.61213 0.27497,4.20896 0.35582,7.99297 0.0809,3.784 0.21985,7.456 0.30887,8.16 0.34402,2.72074 0.37691,5.45735 0.0702,5.84 -0.17635,0.22 -0.71737,0.4 -1.20227,0.4 -0.4849,0 -1.02381,-0.18 -1.19759,-0.4 z m -3.66421,-12.24847 c -0.0985,-0.0985 -0.27746,0.0791 -0.39763,0.39467 -0.17366,0.45606 -0.1369,0.49282 0.17914,0.17914 0.21869,-0.21707 0.31701,-0.47528 0.21849,-0.57381 z m 0.79426,-1.66549 0.16888,-0.88342 -0.60896,0.75202 c -0.33492,0.41362 -0.52777,0.88338 -0.42855,1.04391 0.2871,0.46455 0.68537,0.0462 0.86863,-0.91251 z m 28.06754,14.0724 c -0.44,-0.073 -0.91876,-0.24639 -1.0639,-0.38544 -0.14515,-0.13904 -0.32322,-4.98684 -0.39571,-10.7729 -0.12181,-9.72257 -0.23399,-11.95778 -0.65523,-13.05549 -0.18864,-0.49159 1.21813,-1.47356 2.39298,-1.67037 0.46302,-0.0776 1.99469,-0.22321 3.4037,-0.32366 2.54693,-0.18157 2.56944,-0.17637 3.86833,0.89339 2.57938,2.12437 2.44545,1.46244 2.40263,11.87533 -0.0428,10.39978 -0.18484,11.35595 -1.87931,12.64838 -0.98386,0.75043 -1.3835,0.83422 -4.18067,0.87657 -1.70105,0.0258 -3.45282,-0.0129 -3.89282,-0.0858 z m 4.32323,-2.32366 c 0.11054,-0.17887 0.32979,-0.24562 0.48721,-0.14833 0.15742,0.0973 0.56108,-0.098 0.89702,-0.43391 0.57188,-0.57188 0.61064,-1.17704 0.60814,-9.49591 -0.002,-5.17814 -0.14015,-9.33309 -0.3322,-9.95884 -0.42445,-1.383 -1.52996,-2.10159 -3.0401,-1.97611 l -1.1833,0.0983 -0.0507,6.56 c -0.0279,3.608 -0.14572,7.784 -0.26185,9.28 -0.28911,3.72436 -0.20169,5.85978 0.2517,6.14805 0.55909,0.35548 2.3907,0.30434 2.62408,-0.0733 z m 3.65208,-1.36985 c 0.15371,-0.40428 0.25815,-4.70919 0.23208,-9.56645 -0.044,-8.19773 -0.0911,-8.87973 -0.65699,-9.50494 -0.87082,-0.96217 -1.15257,-0.8332 -0.80059,0.36646 0.16782,0.572 0.30464,5.18 0.30403,10.24 -10e-4,8.87661 0.16945,10.4429 0.92147,8.46493 z m -7.11619,-12.43825 c -0.0368,-4.81764 -0.17977,-7.77356 -0.37912,-7.84004 -0.20741,-0.0692 -0.29745,2.06073 -0.25591,6.05332 0.0352,3.38802 0.0712,6.91604 0.08,7.84004 0.009,0.924 0.15052,1.68 0.31503,1.68 0.17888,0 0.27536,-3.10875 0.24,-7.73332 z m -19.09912,15.41332 c -0.75176,-0.75176 -0.69166,-0.008 -0.81448,-10.08 -0.0537,-4.4 -0.19939,-9.71601 -0.32385,-11.81336 -0.20612,-3.47352 -0.17429,-3.85137 0.35718,-4.24 0.61893,-0.45257 3.26295,-0.57739 3.84997,-0.18174 0.22196,0.14959 0.3483,1.74814 0.34738,4.3951 -8e-4,2.288 0.0354,5.312 0.0804,6.72 0.11574,3.62125 -0.3055,11.09262 -0.66329,11.76449 -0.16533,0.31046 -0.20643,1.06641 -0.0914,1.67988 0.17405,0.92774 0.0821,1.22131 -0.54634,1.74487 -0.96328,0.80249 -1.40171,0.80464 -2.19559,0.0108 z m 1.71238,-9.36 c 0.10693,-2.508 0.26203,-5.208 0.34466,-6 0.0826,-0.792 0.23359,-3.1248 0.33546,-5.184 0.17761,-3.59037 0.15718,-3.75901 -0.498,-4.10965 -0.98872,-0.52915 -1.41886,0.0577 -1.36883,1.86763 0.0229,0.82831 0.12674,4.31402 0.23077,7.74602 0.10402,3.432 0.19238,7.14 0.19634,8.24 0.004,1.1 0.13276,2 0.2862,2 0.15344,0 0.36647,-2.052 0.4734,-4.56 z m 37.18744,9.4463 c -0.7577,-0.22094 -1.55776,-0.61874 -1.77791,-0.884 -0.22015,-0.26526 -0.53272,-0.4823 -0.6946,-0.4823 -0.30644,0 -0.93516,-0.45982 -1.75015,-1.28 -1.42975,-1.43885 -2.96148,-4.96116 -3.68764,-8.48 -0.491,-2.37928 0.0102,-7.81507 0.87471,-9.48686 0.25422,-0.4916 0.4415,-1.00616 0.41618,-1.14348 -0.18157,-0.98483 0.60458,-2.46872 1.87022,-3.53008 1.44473,-1.21155 2.53216,-1.5693 5.74652,-1.89055 1.58845,-0.15875 1.67786,-0.12558 2.15647,0.79996 0.27463,0.53106 0.80822,1.01179 1.18577,1.06829 0.66223,0.0991 3.41295,3.5232 3.45916,4.30597 0.0203,0.3443 0.85402,3.24702 1.22833,4.27675 0.23069,0.63464 0.46473,3.00536 0.47386,4.8 0.0194,3.82133 -1.33161,8.84311 -2.49848,9.28675 -0.39628,0.15066 -1.1797,0.84534 -1.74093,1.54372 -0.8699,1.08247 -1.23164,1.28659 -2.45215,1.38366 -0.78745,0.0626 -2.05166,-0.0669 -2.80936,-0.28783 z m 3.63793,-2.29505 c 0.39701,-0.55754 0.66039,-1.42292 0.65761,-2.16065 -0.004,-1.1183 0.9954,-4.99045 1.60209,-6.20597 0.5837,-1.16945 0.25315,-4.60409 -0.6751,-7.01472 -0.50729,-1.31742 -0.92235,-2.79016 -0.92235,-3.27276 0,-1.29327 -1.19015,-3.35043 -2.3476,-4.05777 -0.96042,-0.58694 -1.11534,-0.59328 -3.01758,-0.12348 -1.90999,0.47172 -2.038,0.56522 -2.69659,1.96966 -0.9126,1.94614 -0.90774,1.91008 -1.10615,8.19444 -0.16682,5.28362 -0.14703,5.5136 0.68843,8 1.31544,3.91487 2.85294,5.66281 5.27949,6.0021 1.06116,0.14837 1.73672,-0.2059 2.53775,-1.33085 z m 2.65979,-0.91125 c 1.09839,-1.15444 1.83685,-3.20235 2.22125,-6.16 0.37668,-2.89833 0.37692,-2.87957 -0.0669,-5.28 -0.19525,-1.056 -0.38811,-2.13853 -0.42859,-2.40563 -0.0405,-0.26709 -0.15586,-0.62709 -0.25641,-0.8 -0.10055,-0.1729 -0.27703,-0.83714 -0.39217,-1.47608 -0.22674,-1.25819 -2.53442,-5.07829 -3.06774,-5.07829 -0.42209,0 -0.41398,0.0928 0.11796,1.34914 0.24472,0.57797 0.60156,1.90002 0.79297,2.93789 0.19142,1.03787 0.60319,2.16898 0.91506,2.51357 1.07545,1.18829 0.60291,9.11017 -0.63922,10.71629 -0.42315,0.54714 -0.72012,4.56311 -0.33743,4.56311 0.16717,0 0.68072,-0.396 1.14122,-0.88 z m -11.25328,-3.91333 c -0.38998,-1.23567 -0.85268,-2.24667 -1.02822,-2.24667 -0.17554,0 -0.24957,0.252 -0.1645,0.56 0.0851,0.308 0.24723,1.24158 0.36036,2.07462 0.1252,0.92187 0.41646,1.63257 0.74423,1.816 0.2962,0.16576 0.59674,0.24318 0.66787,0.17205 0.0711,-0.0711 -0.18975,-1.14033 -0.57974,-2.376 z m -0.77375,-5.27631 c 0.0704,-0.63871 -0.0179,-1.13036 -0.20297,-1.13036 -0.18015,0 -0.34947,0.252 -0.37628,0.56 -0.0268,0.308 -0.0723,0.776 -0.10102,1.04 -0.0643,0.59082 0.1539,1.06253 0.38478,0.83165 0.094,-0.094 0.22698,-0.67959 0.29549,-1.30129 z m -0.0163,-2.71751 c 0.11509,-0.98843 -0.30364,-1.34321 -0.61811,-0.52372 -0.19387,0.50522 0.0975,1.90396 0.345,1.65642 0.0879,-0.0879 0.21081,-0.59762 0.27311,-1.1327 z M 88.15315,150.47392 c -0.36911,-0.24029 -0.35607,-1.64108 0.073,-7.84738 0.19593,-2.83379 0.15688,-3.19972 -0.40978,-3.84 -0.3445,-0.38924 -1.09191,-1.64372 -1.660916,-2.78772 -1.272229,-2.55784 -4.490468,-7.80121 -4.877446,-7.94667 -0.156077,-0.0587 -0.283776,-0.37296 -0.283776,-0.69843 0,-0.81772 1.119752,-1.10343 1.975468,-0.50407 0.386796,0.27092 1.017396,0.41272 1.403972,0.31569 0.981486,-0.24633 2.644318,1.29612 3.739098,3.46842 0.95769,1.90028 1.94113,2.979 2.43668,2.67274 0.17355,-0.10726 0.41384,-0.66137 0.53399,-1.23135 0.12015,-0.56998 0.63523,-1.7225 1.14462,-2.56114 0.5094,-0.83864 0.92617,-1.78833 0.92617,-2.1104 0,-1.00737 1.12763,-1.75527 2.29459,-1.52187 1.27782,0.25556 2.50541,1.0339 2.50541,1.58852 0,0.22918 -0.65751,1.26344 -1.46115,2.29836 -0.80363,1.03492 -1.53483,2.24809 -1.6249,2.69593 -0.0901,0.44785 -0.57938,1.39027 -1.08738,2.09427 -2.30968,3.20083 -2.74896,4.7739 -3.03824,10.88 -0.10839,2.288 -0.26781,4.412 -0.35427,4.72 -0.1621,0.57751 -1.53486,0.77103 -2.23518,0.3151 z m 2.02201,-7.84217 c -0.0468,-1.5311 -0.17212,-1.99293 -0.54089,-1.99293 -0.35718,0 -0.49053,0.4094 -0.52115,1.6 -0.0429,1.66743 0.34868,2.86437 0.8381,2.56189 0.15665,-0.0968 0.25743,-1.07285 0.22394,-2.16896 z m 0.41421,-3.99293 c -0.008,-0.93096 -0.54988,-1.57322 -0.97142,-1.15168 -0.26977,0.26978 -0.2703,0.53612 -0.002,1.03733 0.43808,0.81855 0.98021,0.88223 0.97349,0.11435 z m -1.13579,-2.86147 c 0.41157,-1.07254 -3.91241,-7.77853 -5.015553,-7.77853 -0.310065,0 -0.563755,0.0544 -0.563755,0.12092 0,0.26463 1.015643,2.33466 1.589224,3.23908 0.334859,0.528 0.931171,1.5969 1.325134,2.37533 0.74511,1.47224 1.67967,2.58467 2.17141,2.58467 0.15717,0 0.37926,-0.24366 0.49354,-0.54147 z m 2.84376,-2.20291 c 0.32069,-0.43845 0.53104,-0.95328 0.46745,-1.14407 -0.0636,-0.19078 -0.50471,0.24107 -0.98025,0.95966 -0.91543,1.38331 -0.47891,1.54028 0.5128,0.18441 z m 3.03293,-5.31962 c 0.46219,-0.46219 0.5165,-1.33566 0.0657,-1.05707 -0.45794,0.28303 -1.03411,1.44107 -0.71698,1.44107 0.147,0 0.44006,-0.1728 0.65126,-0.384 z m 22.544,21.32284 c -0.748,-0.44831 -1.37274,-1.05895 -1.38832,-1.35698 -0.0156,-0.29802 -0.087,-1.79127 -0.15873,-3.31833 -0.0717,-1.52706 -0.21467,-3.39906 -0.31764,-4.16 -0.15814,-1.16872 -0.34527,-4.13537 -0.43325,-6.86884 -0.015,-0.46539 -0.30445,-0.76409 -0.90206,-0.9308 -0.86424,-0.24109 -0.85708,-0.2506 0.4,-0.53098 0.704,-0.15702 1.496,-0.27187 1.76,-0.25521 3.18192,0.20073 3.96092,0.31524 4.27377,0.62825 0.20143,0.20152 0.38598,1.25913 0.41011,2.35023 0.0241,1.0911 0.15087,3.56782 0.28164,5.50382 0.13077,1.936 0.21629,4.04982 0.19006,4.69737 -0.0262,0.64755 0.1079,1.27354 0.29809,1.39108 0.1902,0.11755 0.47233,0.54651 0.62698,0.95325 0.24534,0.6453 0.53644,0.75347 2.28467,0.84892 3.22255,0.17594 3.29437,0.0526 3.41388,-5.86162 0.0571,-2.82333 -0.0572,-5.72474 -0.26883,-6.829 -0.20241,-1.056 -0.43972,-2.712 -0.52735,-3.68 -0.0876,-0.968 -0.26927,-1.87542 -0.40365,-2.01648 -0.44929,-0.47165 0.0566,-1.87186 0.79844,-2.20986 1.03023,-0.46941 3.0165,-0.0512 3.04339,0.64084 0.14237,3.66328 0.0228,14.25063 -0.18326,16.2255 -0.14691,1.408 -0.23706,2.79091 -0.20035,3.07313 0.0367,0.28222 -0.35649,0.96622 -0.8738,1.52 l -0.94056,1.00687 -4.91162,-0.003 c -4.69135,-0.003 -4.9726,-0.0396 -6.27161,-0.81816 z m 2.94341,-1.07198 c 0.0996,-0.16124 0.0143,-0.70124 -0.18977,-1.2 -0.20402,-0.49877 -0.34794,-1.96282 -0.31984,-3.25344 0.0281,-1.29062 -0.0558,-2.51462 -0.18647,-2.72 -0.13067,-0.20538 -0.25303,-1.38142 -0.2719,-2.61342 -0.0728,-4.75531 -0.0219,-4.55038 -1.17543,-4.72289 -0.572,-0.0855 -1.11769,-0.0344 -1.21265,0.11359 -0.19872,0.30975 -0.11805,2.08548 0.34021,7.4893 0.1791,2.112 0.32005,4.24044 0.31321,4.72987 -0.0193,1.38269 2.12569,3.1105 2.70264,2.17699 z m -11.87645,-1.45996 c -0.71764,-0.50266 -0.71009,-0.3752 -0.87669,-14.78518 -0.033,-2.85766 -0.26782,-3.15039 -2.11027,-2.63103 -1.24023,0.34961 -3.81423,0.32562 -4.50104,-0.042 -0.75648,-0.40486 -0.85002,-2.27861 -0.14303,-2.86536 0.58641,-0.48668 1.49542,-0.18952 1.26411,0.41324 -0.32763,0.85379 0.71888,1.31497 2.06724,0.91099 0.67484,-0.20218 2.03111,-0.36761 3.01395,-0.36761 1.36929,0 1.86014,-0.13089 2.1,-0.56 0.43415,-0.77667 6.03308,-1.21315 12.03877,-0.93853 1.27025,0.0581 1.28,0.0683 1.28,1.33853 v 1.28 l -1.43372,0.102 c -0.78855,0.0561 -1.58055,0.22317 -1.76,0.37126 -0.17945,0.14809 -1.80022,0.23642 -3.60171,0.19629 -1.80149,-0.0401 -3.39993,0.009 -3.5521,0.10874 -0.42534,0.27936 -1.08626,1.65459 -0.88965,1.85119 0.0961,0.0961 0.0247,0.45487 -0.15859,0.79735 -0.20165,0.37679 -0.33159,3.32883 -0.32905,7.47539 0.004,5.68465 -0.0781,6.93494 -0.47835,7.33524 -0.60654,0.60654 -1.07413,0.60882 -1.92987,0.009 z m 1.12013,-16.82493 c -0.14185,-0.9694 -0.84412,-1.19029 -0.74483,-0.23427 0.0418,0.40276 0.0944,0.9411 0.1169,1.1963 0.0293,0.33348 0.13848,0.36636 0.38793,0.11691 0.19091,-0.19091 0.29891,-0.67643 0.24,-1.07894 z m -39.449074,-2.50714 c -0.42931,-0.83019 -0.404773,-0.98348 0.330669,-2.06578 0.752778,-1.10782 0.886739,-1.16905 2.557399,-1.16905 1.456986,0 1.902797,0.13979 2.568337,0.80533 0.588921,0.58892 0.747763,0.99737 0.591111,1.52 -0.388535,1.29623 -0.961724,1.59013 -3.315839,1.7002 -2.205752,0.10313 -2.280676,0.0814 -2.731677,-0.7907 z m 4.077525,-0.59266 c 0.461075,-0.25107 -0.477038,-1.04217 -1.235836,-1.04217 -0.984244,0 -1.337243,0.63489 -0.637487,1.14656 0.497345,0.36367 1.072616,0.33161 1.873323,-0.10439 z m 417.575379,-0.15672 c -0.22636,-0.27275 -0.24713,-0.59638 -0.0575,-0.89618 0.16324,-0.2581 0.299,-0.74368 0.3017,-1.07907 0.003,-0.33538 0.35911,-1.07418 0.79203,-1.64177 0.43292,-0.56759 1.16028,-1.87573 1.61634,-2.90698 1.29405,-2.92606 2.46633,-3.91408 3.36263,-2.8341 0.32815,0.3954 0.3112,0.71238 -0.0898,1.68 -0.27187,0.65596 -0.81209,1.98465 -1.2005,2.95265 -0.38841,0.968 -0.92333,2.0061 -1.18872,2.30689 -0.26538,0.30079 -0.57864,1.02079 -0.69613,1.6 -0.18798,0.92667 -0.35002,1.06466 -1.34966,1.14929 -0.66444,0.0562 -1.28311,-0.081 -1.49033,-0.33073 z m 4.70585,-7.16861 c 0.98556,-1.25293 0.85074,-2.13072 -0.22262,-1.44944 -0.48729,0.30929 -1.10587,2.2926 -0.71504,2.2926 0.15094,0 0.57289,-0.37942 0.93766,-0.84316 z m -369.83277,4.29916 c -0.62972,-0.62972 -0.45122,-1.3053 0.89043,-3.37004 1.4968,-2.30353 1.51263,-2.31615 2.63704,-2.10121 1.50751,0.28818 1.40693,1.16675 -0.41387,3.61536 -1.63409,2.19752 -2.34702,2.62247 -3.1136,1.85589 z m 97.69348,-0.26008 c -0.18553,-0.3002 -5.4e-4,-0.75108 1.27846,-3.11592 0.26176,-0.484 0.97203,-1.456 1.57836,-2.16 l 1.10243,-1.28 0.67097,0.65822 0.67097,0.65822 -0.64549,1.45923 c -1.17093,2.64708 -3.95762,4.90977 -4.6557,3.78025 z"
       id="path2" />
  </g>
</svg>
